<svg width="20" height="23" viewBox="0 0 20 23" fill="none" xmlns="http://www.w3.org/2000/svg">
<path fill-rule="evenodd" clip-rule="evenodd" d="M16.5 7.84756C16.5 9.52848 15.7184 10.9812 14.4309 12.6001C13.8764 13.2973 13.2537 13.995 12.5831 14.7463L12.5829 14.7466C12.4737 14.8689 12.3633 14.9926 12.2516 15.118C11.5162 15.9442 10.7413 16.8293 10 17.797C9.2587 16.8293 8.48379 15.9442 7.74835 15.118C7.63686 14.9928 7.52655 14.8692 7.4175 14.747L7.41687 14.7463C6.74631 13.995 6.12355 13.2973 5.56908 12.6001C4.28162 10.9812 3.5 9.52848 3.5 7.84756C3.5 4.02258 6.45236 1 10 1C13.5476 1 16.5 4.02258 16.5 7.84756ZM17.5 7.84756C17.5 10.7399 15.5516 12.9225 13.3266 15.4151L13.3266 15.4151C12.4399 16.4084 11.5093 17.4509 10.6406 18.6072C10.3233 19.0294 9.67668 19.0294 9.35943 18.6072C8.4907 17.4509 7.5601 16.4084 6.67343 15.4152L6.67341 15.4151C4.44838 12.9225 2.5 10.7399 2.5 7.84756C2.5 3.51347 5.85786 0 10 0C14.1421 0 17.5 3.51347 17.5 7.84756ZM10 3.00002C10.2761 3.00002 10.5 3.22387 10.5 3.50002V6.74528L14.1652 8.02809C14.4258 8.11931 14.5632 8.40455 14.4719 8.66519C14.3807 8.92583 14.0955 9.06317 13.8348 8.97194L9.83482 7.57194C9.63428 7.50175 9.5 7.31249 9.5 7.10002V3.50002C9.5 3.22387 9.72386 3.00002 10 3.00002ZM0.5 18.5C0.776142 18.5 1 18.7239 1 19V21.5H19V19.5C19 19.2239 19.2239 19 19.5 19C19.7761 19 20 19.2239 20 19.5V22V22.5H19.5H0.5H0V22V19C0 18.7239 0.223858 18.5 0.5 18.5Z" fill="#6E6E7B"/>
</svg>
