<svg width="40" height="41" viewBox="0 0 40 41" fill="none" xmlns="http://www.w3.org/2000/svg">
<path d="M40 20.5C40 24.868 40 33.166 40 38.5016C40 39.6061 39.1061 40.5 38.0015 40.5C32.6009 40.5 25.3854 40.5 20 40.5C14.4975 40.5 8.31194 40.5 2.00003 40.5C0.895457 40.5 2.27822e-06 39.6039 2.27822e-06 38.4994C2.27822e-06 31.3291 2.27822e-06 25.045 2.27822e-06 20.5C2.27822e-06 15.4357 -1.92189e-06 8.88788 1.08363e-06 2.5C1.60333e-06 1.39544 0.896288 0.500022 2.00085 0.500019C9.10102 0.500003 15.0106 0.500024 20 0.500024C24.9039 0.500024 31.9107 0.500024 38.0005 0.500024C39.1051 0.500024 40 1.39544 40 2.50001C40 8.88788 40 15.4357 40 20.5Z" fill="#BACBD6"/>
<g clip-path="url(#clip0_7891_5614)">
<path d="M32.8574 44.8136V34.3611C32.8574 31.985 31.8414 29.7062 30.033 28.026C28.2246 26.3458 25.7719 25.4019 23.2145 25.4019H16.7859C14.2285 25.4019 11.7758 26.3458 9.96739 28.026C8.15901 29.7062 7.14307 31.985 7.14307 34.3611V44.8136" fill="white"/>
<path d="M20.0001 23.2451C24.734 23.2451 28.5716 19.3825 28.5716 14.6177C28.5716 9.85288 24.734 5.99023 20.0001 5.99023C15.2663 5.99023 11.4287 9.85288 11.4287 14.6177C11.4287 19.3825 15.2663 23.2451 20.0001 23.2451Z" fill="white"/>
</g>
<defs>
<clipPath id="clip0_7891_5614">
<rect width="30" height="36.6667" fill="white" transform="translate(5 3.83325)"/>
</clipPath>
</defs>
</svg>
