<svg width="24" height="25" viewBox="0 0 24 25" fill="none" xmlns="http://www.w3.org/2000/svg">
<path d="M17 6.50012H19.6C20.1039 6.50012 20.5872 6.71083 20.9435 7.08591C21.2998 7.46098 21.5 7.96969 21.5 8.50012V20.5001C21.5 21.0306 21.2998 21.5393 20.9435 21.9143C20.5872 22.2894 20.1039 22.5001 19.6 22.5001H4.4C3.89609 22.5001 3.41282 22.2894 3.0565 21.9143C2.70018 21.5393 2.5 21.0306 2.5 20.5001V8.50012C2.5 7.96969 2.70018 7.46098 3.0565 7.08591C3.41282 6.71083 3.89609 6.50012 4.4 6.50012H7M17 6.50012H7M17 6.50012V6.31228C17 4.67713 15.8458 3.26929 14.2424 2.94861C12.7621 2.65255 11.2379 2.65255 9.75755 2.94861C8.15415 3.26929 7 4.67713 7 6.31228V6.50012M15 14.5001V15.5001C15 16.6047 14.1046 16.5001 13 16.5001H11C9.89543 16.5001 9 16.6047 9 15.5001V14.5001M15 14.5001C15 13.3955 14.1046 13.5001 13 13.5001H11C9.89543 13.5001 9 13.3955 9 14.5001M15 14.5001L21.5 10.0001M9 14.5001L2.5 10.0001" stroke="#6E6E7B" stroke-linecap="round" stroke-linejoin="round"/>
</svg>
