<svg width="24" height="24" viewBox="0 0 24 24" fill="none" xmlns="http://www.w3.org/2000/svg">
<g clip-path="url(#clip0_8_1060)">
<rect x="1" y="1" width="22" height="22" rx="11" stroke="#6E6E7B" stroke-linecap="round" stroke-linejoin="round"/>
<path d="M9.375 5V4.5C9.09886 4.5 8.875 4.72386 8.875 5H9.375ZM14.625 5H15.125C15.125 4.72386 14.9011 4.5 14.625 4.5V5ZM9.375 9.375V9.875C9.65114 9.875 9.875 9.65114 9.875 9.375H9.375ZM5 9.375V8.875C4.72386 8.875 4.5 9.09886 4.5 9.375H5ZM5 14.625H4.5C4.5 14.9011 4.72386 15.125 5 15.125V14.625ZM9.375 14.625H9.875C9.875 14.3489 9.65114 14.125 9.375 14.125V14.625ZM9.375 19H8.875C8.875 19.2761 9.09886 19.5 9.375 19.5V19ZM14.625 19V19.5C14.9011 19.5 15.125 19.2761 15.125 19H14.625ZM14.625 14.625V14.125C14.3489 14.125 14.125 14.3489 14.125 14.625H14.625ZM19 14.625V15.125C19.2761 15.125 19.5 14.9011 19.5 14.625H19ZM19 9.375H19.5C19.5 9.09886 19.2761 8.875 19 8.875V9.375ZM14.625 9.375H14.125C14.125 9.65114 14.3489 9.875 14.625 9.875V9.375ZM9.375 5.5H14.625V4.5H9.375V5.5ZM9.875 9.375V5H8.875V9.375H9.875ZM5 9.875H9.375V8.875H5V9.875ZM5.5 14.625V9.375H4.5V14.625H5.5ZM9.375 14.125H5V15.125H9.375V14.125ZM9.875 19V14.625H8.875V19H9.875ZM14.625 18.5H9.375V19.5H14.625V18.5ZM14.125 14.625V19H15.125V14.625H14.125ZM19 14.125H14.625V15.125H19V14.125ZM18.5 9.375V14.625H19.5V9.375H18.5ZM14.625 9.875H19V8.875H14.625V9.875ZM14.125 5V9.375H15.125V5H14.125Z" fill="#6E6E7B"/>
</g>
<defs>
<clipPath id="clip0_8_1060">
<rect width="24" height="24" fill="white"/>
</clipPath>
</defs>
</svg>
