<svg width="24" height="24" viewBox="0 0 24 24" fill="none" xmlns="http://www.w3.org/2000/svg">
<path fill-rule="evenodd" clip-rule="evenodd" d="M1.63144 6.93355C1.62965 6.79865 1.68244 6.66876 1.77784 6.57337L4.11018 4.24102C4.298 4.0532 4.5999 4.04502 4.79762 4.22239L10.1783 9.04929C10.2805 9.14098 10.3405 9.27067 10.3442 9.40793C10.3479 9.54519 10.295 9.67794 10.1979 9.77503L7.72411 12.2489C7.5325 12.4405 7.22312 12.4446 7.0265 12.2581L1.78734 7.28972C1.68945 7.19689 1.63322 7.06844 1.63144 6.93355ZM2.848 6.91742L4.38503 8.37501C4.40571 8.34051 4.43091 8.30797 4.46063 8.27825L6.04978 6.6891L4.4824 5.28302L2.848 6.91742ZM7.3613 11.1975L5.09335 9.04672C5.11959 9.02903 5.14452 9.00857 5.16774 8.98535L6.79524 7.35785L9.11757 9.44118L7.3613 11.1975ZM12.7893 10.5996C12.9845 10.7949 13.3011 10.7949 13.4964 10.5996C13.6916 10.4044 13.6916 10.0878 13.4964 9.89253L11.8471 8.24327C11.6518 8.04801 11.3352 8.04802 11.14 8.24328C10.9447 8.43854 10.9447 8.75512 11.14 8.95039L12.7893 10.5996ZM12.4903 11.5001C12.6235 11.4975 12.7522 11.5481 12.8479 11.6407L17.9651 16.5915C18.005 16.6136 18.0425 16.6416 18.0763 16.6755C18.1061 16.7053 18.1314 16.7378 18.152 16.7724L18.8017 17.401C18.8675 17.4646 18.9145 17.5449 18.9377 17.6334L19.7679 20.7959C19.8131 20.9678 19.7635 21.1508 19.6379 21.2765C19.5122 21.4021 19.3293 21.4516 19.1574 21.4065L15.9948 20.5763C15.9119 20.5545 15.8359 20.5118 15.7743 20.4522L16.1217 20.0927L15.7742 20.4522L15.7741 20.452L15.7735 20.4515L15.7712 20.4492L15.7621 20.4404L15.7264 20.406L15.5897 20.2738L15.0894 19.7895C14.6682 19.3816 14.0895 18.8205 13.4592 18.2079C12.3637 17.1432 11.11 15.9204 10.2575 15.0754L10.1979 15.135C10.0043 15.3287 9.69082 15.3305 9.49493 15.139C9.29904 14.9476 9.29361 14.6342 9.48276 14.4361L12.1386 11.6547C12.2306 11.5584 12.3572 11.5028 12.4903 11.5001ZM16.9977 17.047L12.5143 12.7093L10.947 14.3507C11.7948 15.1913 13.0532 16.4189 14.1561 17.4908C14.6143 17.9361 15.0451 18.3541 15.408 18.7058C15.432 18.6375 15.4714 18.5733 15.526 18.5187L16.9977 17.047ZM16.0611 19.3383C16.1238 19.3139 16.1825 19.2764 16.2331 19.2258L17.7165 17.7424L18.006 18.0225L18.5834 20.2219L16.3752 19.6423L16.285 19.555L16.0611 19.3383Z" fill="#6E6E7B"/>
<path d="M3.71874 14.6685C2.46895 15.5623 1.75562 16.096 1.62859 16.6726C1.5308 17.1097 1.66622 17.6172 2.03162 18.1786C2.04513 18.1994 2.0607 18.2193 2.07803 18.2377L3.24646 19.4755C3.24646 19.4755 3.28185 19.5099 3.30153 19.5243C3.85432 19.9347 4.35721 20.1414 4.8013 20.1414C4.90147 20.1414 4.99868 20.1307 5.09282 20.1097C5.30536 20.1499 5.70456 19.4755 7.10617 18.0381C8.43774 16.6726 8.40345 16.6726 9.26343 15.5584C10.2684 14.2564 10.6685 13.9568 12.3901 11.8953L13.9574 10.0886C14.3449 9.70415 14.8846 9.49952 15.4346 9.52694C15.6756 9.54095 15.9066 9.59622 16.1182 9.69117C16.3382 9.78727 16.5338 9.92057 16.7036 10.0889L17.1897 10.5718C17.0329 10.7092 16.9465 10.9159 16.9465 11.1354C16.9465 11.3518 17.0351 11.5639 17.1897 11.7174L17.8446 12.3678C18.2109 12.7317 18.8068 12.7314 19.1727 12.3678L21.1141 10.4401C21.4799 10.0771 21.4799 9.48614 21.1141 9.12312L20.4571 8.47088C20.3032 8.3157 20.0947 8.22907 19.872 8.22907C19.6494 8.22907 19.441 8.3157 19.2849 8.47292L18.9498 8.11749C18.7346 7.90396 18.6162 7.62059 18.6162 7.31956C18.6162 6.79408 18.4102 6.30008 18.036 5.92846L15.5916 3.4988C14.7007 2.61656 13.5748 2.08861 12.4205 2.01189C11.5997 1.95353 10.7925 2.11034 10.0221 2.47379C9.71852 2.616 9.54933 2.9338 9.60176 3.26444C9.65421 3.5952 9.91386 3.84635 10.2478 3.88923C11.1484 4.00404 11.8514 4.39287 12.2277 4.98354C12.5992 5.56738 12.6549 6.33174 12.3901 7.19897L10.2562 9.00917C10.2562 9.00917 8.1947 11.483 6.03641 12.8899C5.64316 13.1463 4.65573 13.9987 3.71874 14.6685Z" stroke="#6E6E7B"/>
</svg>
