<svg width="24" height="24" viewBox="0 0 24 24" fill="none" xmlns="http://www.w3.org/2000/svg">
<path d="M11.0833 10.15H1V16.5667H2.83333C2.83333 16.5667 3.75 15.1917 5.125 15.1917C6.24198 15.1917 7.0565 15.9995 7.32286 16.875C7.38439 17.0772 7.41667 16.3664 7.41667 16.5667H11.0833V10.15Z" stroke="#6E6E7B" stroke-linecap="round" stroke-linejoin="round"/>
<path d="M11.0834 9.6675V3.73337H14.5109C15.226 3.73337 15.8867 4.11521 16.2438 4.73485L19.086 9.6675L23 12.2547V16.5667H21.1667C21.1667 16.5667 20.7084 15.1917 19.3334 15.1917C17.5 15.1917 17.0417 16.5667 17.0417 16.5667H11.0834V9.6675Z" stroke="#6E6E7B" stroke-linecap="round" stroke-linejoin="round"/>
<path d="M14.75 4.65004V11.0667H21.1667" stroke="#6E6E7B" stroke-linecap="round" stroke-linejoin="round"/>
<path d="M5.11003 19.8675C6.37568 19.8675 7.40169 18.8415 7.40169 17.5758C7.40169 16.3102 6.37568 15.2841 5.11003 15.2841C3.84437 15.2841 2.81836 16.3102 2.81836 17.5758C2.81836 18.8415 3.84437 19.8675 5.11003 19.8675Z" stroke="#6E6E7B" stroke-linecap="round" stroke-linejoin="round"/>
<path d="M19.1216 19.8675C20.3873 19.8675 21.4133 18.8415 21.4133 17.5758C21.4133 16.3102 20.3873 15.2842 19.1216 15.2842C17.856 15.2842 16.83 16.3102 16.83 17.5758C16.83 18.8415 17.856 19.8675 19.1216 19.8675Z" stroke="#6E6E7B" stroke-linecap="round" stroke-linejoin="round"/>
</svg>
