<svg width="24" height="24" viewBox="0 0 24 24" fill="none" xmlns="http://www.w3.org/2000/svg">
<path d="M4.5 1.57141V7.99998C4.5 9.77519 5.93909 11.2143 7.71429 11.2143V11.2143C9.48949 11.2143 10.9286 9.77518 10.9286 7.99998V1.57141" stroke="#6E6E7B" stroke-linecap="round" stroke-linejoin="round"/>
<path d="M4.5 6.92853L10.9286 6.92853" stroke="#6E6E7B" stroke-linecap="round" stroke-linejoin="round"/>
<path d="M6.10707 11.2142H9.32136V15.8447C9.32136 16.6846 9.39694 17.5228 9.54718 18.3491L9.9641 20.6422C10.1873 21.8699 9.24417 23 7.99636 23H7.43207C6.18426 23 5.24112 21.8699 5.46433 20.6422L5.88125 18.3491C6.0315 17.5228 6.10707 16.6846 6.10707 15.8447V11.2142Z" stroke="#6E6E7B" stroke-linecap="round" stroke-linejoin="round"/>
<path d="M6.64282 1.03571V6.39285" stroke="#6E6E7B" stroke-linecap="round" stroke-linejoin="round"/>
<path d="M8.78564 1.03571V6.39285" stroke="#6E6E7B" stroke-linecap="round" stroke-linejoin="round"/>
<path d="M15.2145 13.3571H18.4288V15.8447C18.4288 16.6846 18.5044 17.5228 18.6546 18.3491L19.0715 20.6422C19.2947 21.8699 18.3516 23 17.1038 23H16.5395C15.2917 23 14.3485 21.8699 14.5718 20.6422L14.9887 18.3491C15.1389 17.5228 15.2145 16.6846 15.2145 15.8447V13.3571Z" stroke="#6E6E7B" stroke-linecap="round" stroke-linejoin="round"/>
<path d="M15.2147 1.57141L16.1431 2.34509C17.6267 3.58142 18.6682 5.26655 19.1105 7.14642V7.14642C19.367 8.2363 19.367 9.37082 19.1105 10.4607L18.429 13.3571H15.2147V1.57141Z" stroke="#6E6E7B" stroke-linecap="round" stroke-linejoin="round"/>
</svg>
