<svg width="24" height="24" viewBox="0 0 24 24" fill="none" xmlns="http://www.w3.org/2000/svg">
<path d="M21 9L12 2L8.5 4.72222L4.5 7.83333L3 9V20C3 20.5304 3.12493 21.1249 3.5 21.5C3.87507 21.8751 4.46957 22 5 22H19C19.5304 22 20.1249 21.8751 20.5 21.5C20.8751 21.1249 21 20.5304 21 20V9Z" stroke="#6E6E7B" stroke-linecap="round" stroke-linejoin="round"/>
<path fill-rule="evenodd" clip-rule="evenodd" d="M13.4301 12.908C13.2349 13.1033 12.9183 13.1033 12.723 12.908L11.7121 11.8971C11.5168 11.7018 11.5168 11.3852 11.7121 11.19C11.9073 10.9947 12.2239 10.9947 12.4192 11.19L13.4301 12.2009C13.6254 12.3962 13.6254 12.7127 13.4301 12.908Z" fill="#6E6E7B"/>
<path d="M7.30004 15.2652C6.53398 15.813 6.09674 16.1402 6.01887 16.4936C5.95893 16.7615 6.04194 17.0726 6.26591 17.4167C6.2742 17.4295 6.28374 17.4417 6.29436 17.4529L7.01056 18.2116C7.01056 18.2116 7.03225 18.2327 7.04431 18.2416C7.38314 18.4931 7.69139 18.6198 7.9636 18.6198C8.025 18.6198 8.08459 18.6133 8.14229 18.6004C8.27257 18.625 8.51726 18.2116 9.37638 17.3306C10.1926 16.4936 10.1716 16.4936 10.6987 15.8107C11.3147 15.0126 11.5599 14.829 12.6152 13.5653L13.5759 12.4579C13.8134 12.2223 14.1442 12.0968 14.4813 12.1137C14.629 12.1222 14.7706 12.1561 14.9004 12.2143C15.0352 12.2732 15.1551 12.3549 15.2592 12.4581L15.5571 12.7541C15.461 12.8383 15.4081 12.965 15.4081 13.0995C15.4081 13.2322 15.4623 13.3622 15.5571 13.4563L15.9585 13.855C16.183 14.078 16.5483 14.0778 16.7726 13.855L17.9626 12.6734C18.1868 12.4509 18.1868 12.0886 17.9626 11.8661L17.5599 11.4663C17.4656 11.3712 17.3377 11.3181 17.2013 11.3181C17.0648 11.3181 16.9371 11.3712 16.8414 11.4676L16.6359 11.2497C16.5041 11.1188 16.4315 10.9452 16.4315 10.7606C16.4315 10.4385 16.3052 10.1357 16.0758 9.90796L14.5775 8.41868C14.0315 7.87792 13.3414 7.5543 12.6338 7.50728C12.1307 7.47151 11.6359 7.56762 11.1637 7.7904C10.9776 7.87757 10.8739 8.07237 10.9061 8.27503C10.9382 8.47778 11.0974 8.63172 11.3021 8.658C11.8541 8.72838 12.285 8.96671 12.5156 9.32876C12.7434 9.68663 12.7775 10.1551 12.6152 10.6867L11.3072 11.7963C11.3072 11.7963 10.0436 13.3126 8.72067 14.175C8.47962 14.3322 7.87437 14.8546 7.30004 15.2652Z" stroke="#6E6E7B"/>
</svg>
