<svg width="24" height="24" viewBox="0 0 24 24" fill="none" xmlns="http://www.w3.org/2000/svg">
<path d="M18.5 7V22.5" stroke="#6E6E7B" stroke-linecap="round" stroke-linejoin="round"/>
<path d="M15 18C15.5 18.924 16.5 20 18.428 20C21.8724 20 22 18 22 17.5C22 15.3658 20.372 15.04 18.428 14.482C16.79 14.05 15.458 13.636 15.458 12.214C15.458 10.918 16.826 10 18.428 10C19.778 10 20.84 10.468 21.704 11.512" stroke="#6E6E7B" stroke-linecap="round" stroke-linejoin="round"/>
<path d="M11.4857 21.6C5.80502 21.6 1.19995 17.0333 1.19995 11.4C1.19995 5.76671 5.80502 1.20001 11.4857 1.20001C14.5577 1.20001 17.3152 2.53559 19.2 4.65316" stroke="#6E6E7B" stroke-linecap="round" stroke-linejoin="round"/>
<path d="M11.9294 5.8588V12.2117L7.69415 14.3294" stroke="#6E6E7B" stroke-linecap="round" stroke-linejoin="round"/>
</svg>
