<svg width="24" height="24" viewBox="0 0 24 24" fill="none" xmlns="http://www.w3.org/2000/svg">
<path fill-rule="evenodd" clip-rule="evenodd" d="M12 24C18.6274 24 24 18.6274 24 12C24 5.37258 18.6274 0 12 0C5.37258 0 0 5.37258 0 12C0 18.6274 5.37258 24 12 24ZM16.3536 9.85355C16.5488 9.65829 16.5488 9.34171 16.3536 9.14645C16.1583 8.95118 15.8417 8.95118 15.6464 9.14645L11 13.7929L8.85355 11.6464C8.65829 11.4512 8.34171 11.4512 8.14645 11.6464C7.95118 11.8417 7.95118 12.1583 8.14645 12.3536L10.6464 14.8536L11 15.2071L11.3536 14.8536L16.3536 9.85355Z" fill="#22223B"/>
</svg>
