<svg width="16" height="16" viewBox="0 0 16 16" fill="none" xmlns="http://www.w3.org/2000/svg">
<path fill-rule="evenodd" clip-rule="evenodd" d="M8 16C12.4183 16 16 12.4183 16 8C16 3.58172 12.4183 0 8 0C3.58172 0 0 3.58172 0 8C0 12.4183 3.58172 16 8 16ZM11.3631 6.34375C11.5529 6.14322 11.5443 5.82676 11.3438 5.63691C11.1432 5.44706 10.8268 5.45572 10.6369 5.65625L7.21427 9.27147L5.36421 7.30452C5.17502 7.10337 4.85858 7.09368 4.65744 7.28287C4.45629 7.47206 4.4466 7.7885 4.63579 7.98965L6.84887 10.3426L7.21189 10.7285L7.57617 10.3438L11.3631 6.34375Z" fill="#22223B"/>
</svg>
