<svg width="24" height="24" viewBox="0 0 24 24" fill="none" xmlns="http://www.w3.org/2000/svg">
<path d="M11 5H4.77778C4.30628 5 3.8541 5.1873 3.5207 5.5207C3.1873 5.8541 3 6.30628 3 6.77778V19.2222C3 19.6937 3.1873 20.1459 3.5207 20.4793C3.8541 20.8127 4.30628 21 4.77778 21H17.2222C17.6937 21 18.1459 20.8127 18.4793 20.4793C18.8127 20.1459 19 19.6937 19 19.2222V13" stroke="#6E6E7B" stroke-linecap="round" stroke-linejoin="round"/>
<path d="M18.0416 3.12489C18.2277 2.93885 18.4485 2.79127 18.6916 2.69059C18.9347 2.58991 19.1952 2.53809 19.4583 2.53809C19.7214 2.53809 19.9819 2.58991 20.225 2.69059C20.4681 2.79127 20.6889 2.93885 20.875 3.12489C21.061 3.31093 21.2086 3.53179 21.3093 3.77486C21.4099 4.01793 21.4618 4.27846 21.4618 4.54156C21.4618 4.80465 21.4099 5.06518 21.3093 5.30825C21.2086 5.55132 21.061 5.77218 20.875 5.95822L11.3125 15.5207L7.41663 16.5832L8.47913 12.6874L18.0416 3.12489Z" stroke="#6E6E7B" stroke-linecap="round" stroke-linejoin="round"/>
</svg>
