<svg width="40" height="40" viewBox="0 0 40 40" fill="none" xmlns="http://www.w3.org/2000/svg">
<path d="M19.9997 21.6666C20.9201 21.6666 21.6663 20.9205 21.6663 20C21.6663 19.0795 20.9201 18.3333 19.9997 18.3333C19.0792 18.3333 18.333 19.0795 18.333 20C18.333 20.9205 19.0792 21.6666 19.9997 21.6666Z" fill="#6E6E7B" stroke="#22223B" stroke-width="2" stroke-linecap="round" stroke-linejoin="round"/>
<path d="M31.6667 21.6666C32.5871 21.6666 33.3333 20.9205 33.3333 20C33.3333 19.0795 32.5871 18.3333 31.6667 18.3333C30.7462 18.3333 30 19.0795 30 20C30 20.9205 30.7462 21.6666 31.6667 21.6666Z" fill="#6E6E7B" stroke="#22223B" stroke-width="2" stroke-linecap="round" stroke-linejoin="round"/>
<path d="M8.33366 21.6666C9.25413 21.6666 10.0003 20.9205 10.0003 20C10.0003 19.0795 9.25413 18.3333 8.33366 18.3333C7.41318 18.3333 6.66699 19.0795 6.66699 20C6.66699 20.9205 7.41318 21.6666 8.33366 21.6666Z" fill="#6E6E7B" stroke="#22223B" stroke-width="2" stroke-linecap="round" stroke-linejoin="round"/>
</svg>
