<svg width="16" height="16" viewBox="0 0 16 16" fill="none" xmlns="http://www.w3.org/2000/svg">
<path d="M9.79204 1.66675H5.29708C4.99905 1.66675 4.71322 1.78514 4.50248 1.99588C4.29173 2.20663 4.17334 2.49245 4.17334 2.79049V11.7804C4.17334 12.0784 4.29173 12.3643 4.50248 12.575C4.71322 12.7858 4.99905 12.9042 5.29708 12.9042H12.0395C12.3376 12.9042 12.6234 12.7858 12.8341 12.575C13.0449 12.3643 13.1633 12.0784 13.1633 11.7804V5.03797L9.79204 1.66675Z" stroke="#BD593A" stroke-linecap="round" stroke-linejoin="round"/>
<path d="M9.79102 1.66675V5.03797H13.1622" stroke="#BD593A" stroke-linecap="round" stroke-linejoin="round"/>
<path d="M10.9153 7.84717H6.42029" stroke="#BD593A" stroke-linecap="round" stroke-linejoin="round"/>
<path d="M10.9153 10.0947H6.42029" stroke="#BD593A" stroke-linecap="round" stroke-linejoin="round"/>
<path d="M8.01469 5.59961H6.42029" stroke="#BD593A" stroke-linecap="round" stroke-linejoin="round"/>
<path d="M3.93327 3.10693L3.85714 3.10693C3.5591 3.10693 3.27328 3.22533 3.06253 3.43607C2.85179 3.64681 2.7334 3.93264 2.7334 4.23067V13.2206C2.7334 13.5186 2.85179 13.8045 3.06253 14.0152C3.27328 14.2259 3.5591 14.3443 3.85714 14.3443H10.5996C10.8976 14.3443 11.1834 14.2259 11.3942 14.0152C11.6049 13.8045 11.7233 13.5186 11.7233 13.2206V13.0002" stroke="#BD593A" stroke-linecap="round" stroke-linejoin="round"/>
</svg>
