<?xml version="1.0" standalone="no"?>
<!DOCTYPE svg PUBLIC "-//W3C//DTD SVG 20010904//EN"
 "http://www.w3.org/TR/2001/REC-SVG-20010904/DTD/svg10.dtd">
<svg version="1.0" xmlns="http://www.w3.org/2000/svg"
 width="861.000000pt" height="375.000000pt" viewBox="0 0 861.000000 375.000000"
 preserveAspectRatio="xMidYMid meet">

<g transform="translate(0.000000,375.000000) scale(0.100000,-0.100000)"
fill="#071b29" stroke="none">
<path d="M1075 3694 c-336 -60 -634 -253 -818 -531 -166 -249 -235 -506 -224
-828 9 -224 49 -384 144 -568 183 -353 523 -595 931 -662 142 -24 375 -17 482
15 141 41 315 130 430 221 l53 42 -6 -134 c-10 -216 -44 -305 -157 -419 -76
-77 -188 -136 -320 -171 -69 -18 -112 -23 -225 -23 -125 1 -153 4 -256 32 -64
17 -158 49 -210 72 -145 64 -146 64 -172 47 -12 -8 -68 -103 -124 -210 -142
-269 -141 -273 43 -365 245 -122 432 -170 704 -179 678 -21 1180 270 1324 768
34 120 46 243 46 486 l0 208 130 153 130 153 0 -278 c0 -160 4 -294 10 -315 6
-20 22 -46 37 -58 24 -19 39 -20 292 -20 235 0 270 2 298 18 17 9 300 334 639
734 l609 717 5 -697 c4 -534 8 -702 18 -719 29 -52 37 -53 319 -53 181 0 270
4 288 12 14 6 252 277 528 602 276 325 553 652 617 726 l115 135 5 -712 5
-712 23 -23 c22 -23 27 -23 298 -26 215 -2 281 0 302 11 36 17 1119 933 1155
976 56 67 34 107 -175 324 -157 162 -164 166 -236 127 -20 -10 -183 -147 -362
-303 l-325 -285 -5 802 c-4 636 -8 806 -18 824 -7 13 -28 32 -45 42 -29 18
-52 20 -289 20 l-256 0 -32 -26 c-17 -15 -302 -343 -633 -731 l-602 -705 -5
689 c-5 646 -6 691 -23 717 -34 51 -63 56 -334 56 -195 0 -253 -3 -268 -14
-11 -7 -299 -338 -640 -735 l-620 -722 -5 693 -5 693 -23 32 c-35 50 -68 55
-344 51 -245 -3 -247 -3 -272 -27 -14 -14 -30 -41 -36 -60 -6 -21 -10 -194
-10 -412 l0 -376 -127 -148 -128 -149 -5 544 c-5 592 -4 574 -63 610 -29 18
-52 20 -228 20 -113 0 -209 -5 -227 -11 -45 -16 -64 -65 -70 -181 l-5 -98 -22
18 c-225 176 -387 259 -585 296 -103 20 -334 20 -445 0z m405 -615 c136 -22
280 -99 385 -207 122 -125 184 -271 192 -452 6 -133 -13 -227 -66 -335 -90
-180 -227 -300 -416 -362 -69 -23 -97 -27 -205 -27 -114 0 -132 2 -211 30
-223 79 -392 265 -445 489 -25 104 -23 260 5 359 55 199 180 355 353 440 141
70 260 89 408 65z"/>
<path d="M7470 860 c-15 -28 4 -60 35 -60 14 0 29 8 35 20 15 28 -4 60 -35 60
-14 0 -29 -8 -35 -20z"/>
<path d="M5140 559 l0 -310 28 3 27 3 3 308 2 307 -30 0 -30 0 0 -311z"/>
<path d="M3155 711 c-111 -28 -168 -107 -168 -233 0 -129 75 -218 192 -226 74
-5 123 11 167 54 l34 35 0 -78 c0 -60 -5 -85 -20 -111 -58 -94 -214 -98 -273
-6 -16 25 -29 34 -49 34 -34 0 -34 -2 -6 -52 14 -24 41 -51 68 -66 39 -23 56
-27 125 -27 94 0 139 22 183 88 l27 40 3 274 3 273 -30 0 c-30 0 -31 -1 -31
-46 l0 -46 -25 30 c-43 51 -134 80 -200 63z m107 -51 c41 -12 104 -75 114
-115 12 -47 -1 -143 -23 -173 -37 -50 -81 -72 -142 -72 -66 0 -108 22 -140 73
-63 102 -21 245 84 282 49 17 60 18 107 5z"/>
<path d="M3710 711 c-117 -24 -190 -129 -177 -255 13 -129 96 -206 222 -206
137 0 228 92 228 231 0 121 -64 205 -174 228 -27 6 -53 10 -57 10 -4 -1 -23
-4 -42 -8z m95 -52 c87 -24 137 -117 117 -217 -20 -96 -75 -142 -170 -142 -91
0 -153 62 -160 160 -8 104 34 175 116 200 38 12 52 11 97 -1z"/>
<path d="M4230 711 c-138 -28 -211 -164 -169 -314 24 -86 111 -146 212 -147
139 0 226 88 227 231 0 118 -64 204 -170 228 -50 12 -50 12 -100 2z m103 -55
c75 -27 109 -83 108 -177 0 -109 -55 -171 -156 -177 -74 -4 -120 18 -152 74
-41 71 -27 200 27 249 22 19 86 44 115 44 11 0 37 -6 58 -13z"/>
<path d="M4733 710 c-51 -12 -96 -43 -128 -89 -26 -37 -30 -53 -34 -122 -3
-70 0 -86 24 -135 37 -76 86 -107 175 -112 75 -5 132 17 168 63 11 14 23 25
27 25 4 0 5 -36 2 -80 -6 -93 -29 -139 -81 -164 -75 -35 -189 -8 -221 54 -12
23 -22 30 -45 30 -28 0 -29 -1 -19 -30 14 -40 79 -96 126 -109 89 -25 190 -4
240 50 49 54 53 80 53 359 l0 260 -25 0 c-23 0 -25 -4 -25 -46 l0 -47 -44 41
c-31 29 -58 43 -95 51 -57 12 -53 12 -98 1z m154 -71 c68 -42 99 -170 60 -245
-20 -38 -70 -82 -103 -90 -42 -11 -120 2 -151 24 -84 59 -92 226 -15 295 54
49 145 56 209 16z"/>
<path d="M5460 711 c-111 -23 -173 -105 -174 -232 -1 -131 76 -219 198 -227
99 -6 175 29 211 99 21 39 19 49 -9 49 -17 0 -30 -10 -44 -34 -26 -44 -75 -70
-132 -70 -85 0 -147 50 -165 132 l-7 32 191 0 191 0 0 48 c-1 98 -67 181 -160
201 -28 6 -54 10 -58 10 -4 -1 -23 -4 -42 -8z m131 -67 c36 -18 69 -69 69
-106 l0 -28 -160 0 c-121 0 -160 3 -160 13 1 21 36 91 53 106 50 41 136 47
198 15z"/>
<path d="M5963 709 c-17 -5 -45 -23 -62 -40 l-31 -31 0 36 c0 33 -2 36 -30 36
l-30 0 0 -230 0 -230 30 0 30 0 0 153 c0 125 3 158 18 186 48 96 172 105 236
18 19 -26 21 -46 25 -193 3 -164 3 -164 26 -164 23 0 23 1 27 158 3 126 7 163
21 189 50 94 189 95 239 2 15 -29 18 -58 18 -192 l0 -158 28 3 27 3 0 165 c0
141 -3 170 -19 203 -53 107 -209 127 -290 36 l-35 -38 -38 39 c-54 53 -118 70
-190 49z"/>
<path d="M6777 706 c-200 -55 -209 -381 -11 -446 85 -29 197 4 238 69 15 26
15 26 16 -26 0 -52 1 -53 30 -53 l30 0 0 230 0 230 -30 0 c-29 0 -30 -1 -30
-47 l-1 -48 -20 28 c-44 58 -140 85 -222 63z m126 -50 c50 -18 76 -42 98 -91
39 -84 11 -195 -60 -242 -47 -32 -135 -32 -182 0 -68 45 -99 161 -65 240 26
60 89 103 156 106 8 0 32 -6 53 -13z"/>
<path d="M7346 710 c-16 -5 -44 -24 -63 -42 l-33 -32 0 37 c0 34 -2 37 -30 37
l-30 0 2 -227 3 -228 28 -3 27 -3 0 151 c0 204 16 240 118 256 38 6 42 9 42
35 0 31 -11 35 -64 19z"/>
<path d="M7795 706 c-22 -9 -50 -27 -62 -41 l-23 -26 0 35 c0 33 -2 36 -30 36
l-30 0 0 -231 0 -230 28 3 27 3 5 165 c6 186 10 198 76 230 50 25 89 25 133 2
62 -33 71 -66 71 -244 l0 -158 31 0 31 0 -4 168 c-2 140 -6 173 -22 205 -38
77 -144 115 -231 83z"/>
<path d="M8310 711 c-111 -23 -173 -104 -174 -226 -2 -137 73 -225 198 -233
99 -6 175 29 211 99 21 39 19 49 -9 49 -17 0 -30 -10 -44 -34 -27 -45 -74 -69
-138 -69 -67 0 -116 29 -143 87 -39 79 -45 76 169 76 l190 0 0 48 c-1 81 -56
166 -124 192 -36 13 -100 18 -136 11z m131 -66 c36 -19 69 -70 69 -107 l0 -28
-161 0 -161 0 7 28 c20 82 95 138 173 128 23 -3 56 -13 73 -21z"/>
<path d="M7480 480 l0 -230 25 0 25 0 0 230 0 230 -25 0 -25 0 0 -230z"/>
</g>
</svg>
