<svg width="40" height="40" viewBox="0 0 40 40" fill="none" xmlns="http://www.w3.org/2000/svg">
<path d="M28.7857 6.42847H33.9429C34.8547 6.42847 35.7292 6.80976 36.374 7.48846C37.0187 8.16716 37.381 9.08768 37.381 10.0475V35.3808C37.381 36.3407 37.0187 37.2612 36.374 37.9399C35.7292 38.6186 34.8547 38.9999 33.9429 38.9999H6.4381C5.52626 38.9999 4.65176 38.6186 4.00699 37.9399C3.36223 37.2612 3 36.3407 3 35.3808V10.0475C3 9.08768 3.36223 8.16716 4.00699 7.48846C4.65176 6.80976 5.52626 6.42847 6.4381 6.42847H28.7857Z" stroke="#22223B" stroke-width="2" stroke-linecap="round" stroke-linejoin="round"/>
<path d="M3 18.1905H37.381" stroke="#22223B" stroke-width="2" stroke-linecap="round" stroke-linejoin="round"/>
<rect x="12.0479" y="1" width="1.80952" height="10.8571" rx="0.904762" fill="#22223B"/>
<rect x="26.5234" y="1" width="1.80952" height="10.8571" rx="0.904762" fill="#22223B"/>
<rect x="25.6182" y="22.7143" width="7.2381" height="7.2381" stroke="#22223B" stroke-width="2" stroke-linecap="round" stroke-linejoin="round"/>
</svg>
