<svg width="48" height="48" viewBox="0 0 48 48" fill="none" xmlns="http://www.w3.org/2000/svg">
<path d="M40.5 18.25C40.5 22.5078 38.3298 26.79 35.1351 31.3125C33.5466 33.5611 31.7343 35.8301 29.8596 38.1557C29.7022 38.351 29.5443 38.5468 29.3861 38.7429C27.667 40.8739 25.9099 43.0522 24.2686 45.2736C24.2661 45.277 24.2646 45.2783 24.2643 45.2785L24.263 45.2793C24.2614 45.2801 24.2568 45.2817 24.25 45.2817C24.2432 45.2817 24.2386 45.2801 24.237 45.2793L24.2357 45.2785C24.2354 45.2783 24.2339 45.277 24.2314 45.2736C22.5901 43.0521 20.8329 40.8738 19.1138 38.7428C18.9556 38.5467 18.7978 38.351 18.6404 38.1557C16.7657 35.8301 14.9534 33.5611 13.3649 31.3125C10.1702 26.79 8 22.5078 8 18.25C8 9.27537 15.2754 2 24.25 2C33.2246 2 40.5 9.27537 40.5 18.25Z" stroke="#215FA6" stroke-width="2"/>
<circle cx="24.2499" cy="18.25" r="6.66667" stroke="#215FA6" stroke-width="2"/>
</svg>
