<svg width="38" height="42" viewBox="0 0 38 42" fill="none" xmlns="http://www.w3.org/2000/svg">
<path d="M37 15L19 1L12 6.44445L4 12.6667L1 15V37C1 38.0609 1.24985 39.2499 2 40C2.75015 40.7501 3.93913 41 5 41H33C34.0609 41 35.2499 40.7501 36 40C36.7501 39.2499 37 38.0609 37 37V15Z" stroke="#BD593A" stroke-width="2" stroke-linecap="round" stroke-linejoin="round"/>
<path fill-rule="evenodd" clip-rule="evenodd" d="M21.86 22.816C21.4695 23.2065 20.8363 23.2065 20.4458 22.816L18.4239 20.7941C18.0334 20.4036 18.0334 19.7705 18.4239 19.3799C18.8144 18.9894 19.4476 18.9894 19.8381 19.3799L21.86 21.4018C22.2505 21.7923 22.2505 22.4255 21.86 22.816Z" fill="#6E6E7B"/>
<path d="M9.60033 27.5304C8.0682 28.6261 7.19373 29.2803 7.03799 29.9873C6.91811 30.5231 7.08413 31.1453 7.53207 31.8334C7.54863 31.859 7.56772 31.8833 7.58896 31.9059L9.02135 33.4233C9.02135 33.4233 9.06474 33.4655 9.08887 33.4832C9.76653 33.9863 10.383 34.2396 10.9274 34.2396C11.0502 34.2396 11.1694 34.2266 11.2848 34.2008C11.5454 34.2501 12.0348 33.4233 13.753 31.6612C15.3854 29.9873 15.3433 29.9873 16.3976 28.6214C17.6296 27.0253 18.1201 26.6579 20.2306 24.1307L22.152 21.9159C22.627 21.4446 23.2886 21.1937 23.9628 21.2273C24.2583 21.2445 24.5415 21.3123 24.8009 21.4287C25.0706 21.5465 25.3104 21.7099 25.5186 21.9162L26.1145 22.5082C25.9222 22.6767 25.8164 22.93 25.8164 23.1991C25.8164 23.4644 25.9249 23.7244 26.1145 23.9127L26.9173 24.7099C27.3663 25.156 28.0969 25.1557 28.5454 24.7099L30.9254 22.3468C31.3738 21.9018 31.3738 21.1773 30.9254 20.7323L30.12 19.9327C29.9314 19.7425 29.6757 19.6363 29.4028 19.6363C29.1298 19.6363 28.8744 19.7425 28.683 19.9352L28.2721 19.4995C28.0084 19.2377 27.8633 18.8903 27.8633 18.5213C27.8633 17.8771 27.6106 17.2715 27.1519 16.8159L24.1553 13.8374C23.0632 12.7559 21.683 12.1086 20.2679 12.0146C19.2616 11.943 18.2721 12.1353 17.3277 12.5808C16.9555 12.7552 16.7481 13.1447 16.8124 13.5501C16.8767 13.9556 17.195 14.2635 17.6044 14.316C18.7084 14.4568 19.5702 14.9334 20.0315 15.6575C20.487 16.3733 20.5552 17.3103 20.2306 18.3734L17.6147 20.5926C17.6147 20.5926 15.0874 23.6253 12.4416 25.3501C11.9595 25.6643 10.749 26.7092 9.60033 27.5304Z" stroke="#BD593A" stroke-width="2"/>
</svg>
