<svg width="24" height="24" viewBox="0 0 24 24" fill="none" xmlns="http://www.w3.org/2000/svg">
<mask id="path-1-inside-1_810_9925" fill="white">
<path fill-rule="evenodd" clip-rule="evenodd" d="M17 8C17 10.7614 14.7614 13 12 13C9.23858 13 7 10.7614 7 8C7 5.23858 9.23858 3 12 3C14.7614 3 17 5.23858 17 8ZM18 8C18 11.3137 15.3137 14 12 14C8.68629 14 6 11.3137 6 8C6 4.68629 8.68629 2 12 2C15.3137 2 18 4.68629 18 8ZM10 15C8.59359 15 7.22513 15.4562 6.1 16.3C4.46326 17.5276 3.5 19.4541 3.5 21.5V23.5V24H4H20H20.5V23.5V21.5C20.5 19.4541 19.5367 17.5276 17.9 16.3C16.7749 15.4562 15.4064 15 14 15H10ZM6.7 17.1C7.65203 16.386 8.80996 16 10 16H14C15.19 16 16.348 16.386 17.3 17.1C18.6849 18.1387 19.5 19.7688 19.5 21.5V23H4.5V21.5C4.5 19.7688 5.31507 18.1387 6.7 17.1Z"/>
</mask>
<path d="M6.1 16.3L7 17.5H7L6.1 16.3ZM3.5 24H2C2 24.8284 2.67157 25.5 3.5 25.5L3.5 24ZM20.5 24V25.5C21.3284 25.5 22 24.8284 22 24H20.5ZM17.9 16.3L17 17.5H17L17.9 16.3ZM6.7 17.1L7.6 18.3H7.6L6.7 17.1ZM17.3 17.1L16.4 18.3L16.4 18.3L17.3 17.1ZM19.5 23V24.5C20.3284 24.5 21 23.8284 21 23H19.5ZM4.5 23H3C3 23.8284 3.67157 24.5 4.5 24.5V23ZM12 14.5C15.5899 14.5 18.5 11.5899 18.5 8H15.5C15.5 9.933 13.933 11.5 12 11.5V14.5ZM5.5 8C5.5 11.5899 8.41015 14.5 12 14.5V11.5C10.067 11.5 8.5 9.933 8.5 8H5.5ZM12 1.5C8.41015 1.5 5.5 4.41015 5.5 8H8.5C8.5 6.067 10.067 4.5 12 4.5V1.5ZM18.5 8C18.5 4.41015 15.5899 1.5 12 1.5V4.5C13.933 4.5 15.5 6.067 15.5 8H18.5ZM12 15.5C16.1421 15.5 19.5 12.1421 19.5 8H16.5C16.5 10.4853 14.4853 12.5 12 12.5V15.5ZM4.5 8C4.5 12.1421 7.85786 15.5 12 15.5V12.5C9.51472 12.5 7.5 10.4853 7.5 8H4.5ZM12 0.5C7.85786 0.5 4.5 3.85786 4.5 8H7.5C7.5 5.51472 9.51472 3.5 12 3.5V0.5ZM19.5 8C19.5 3.85786 16.1421 0.5 12 0.5V3.5C14.4853 3.5 16.5 5.51472 16.5 8H19.5ZM7 17.5C7.86548 16.8509 8.91815 16.5 10 16.5V13.5C8.26904 13.5 6.58477 14.0614 5.2 15.1L7 17.5ZM5 21.5C5 19.9262 5.74097 18.4443 7 17.5L5.2 15.1C3.18555 16.6108 2 18.9819 2 21.5H5ZM5 23.5V21.5H2V23.5H5ZM5 24V23.5H2V24H5ZM4 22.5H3.5V25.5H4V22.5ZM20 22.5H4V25.5H20V22.5ZM20.5 22.5H20V25.5H20.5V22.5ZM19 23.5V24H22V23.5H19ZM19 21.5V23.5H22V21.5H19ZM17 17.5C18.259 18.4443 19 19.9262 19 21.5H22C22 18.9819 20.8144 16.6108 18.8 15.1L17 17.5ZM14 16.5C15.0819 16.5 16.1345 16.8509 17 17.5L18.8 15.1C17.4152 14.0614 15.731 13.5 14 13.5V16.5ZM10 16.5H14V13.5H10V16.5ZM10 14.5C8.48541 14.5 7.01167 14.9912 5.8 15.9L7.6 18.3C8.29239 17.7807 9.13452 17.5 10 17.5V14.5ZM14 14.5H10V17.5H14V14.5ZM18.2 15.9C16.9883 14.9912 15.5146 14.5 14 14.5V17.5C14.8655 17.5 15.7076 17.7807 16.4 18.3L18.2 15.9ZM21 21.5C21 19.2967 19.9626 17.222 18.2 15.9L16.4 18.3C17.4072 19.0554 18 20.241 18 21.5H21ZM21 23V21.5H18V23H21ZM4.5 24.5H19.5V21.5H4.5V24.5ZM3 21.5V23H6V21.5H3ZM5.8 15.9C4.03736 17.222 3 19.2967 3 21.5H6C6 20.241 6.59278 19.0554 7.6 18.3L5.8 15.9Z" fill="#6E6E7B" mask="url(#path-1-inside-1_810_9925)"/>
</svg>
