<?xml version="1.0" encoding="UTF-8"?>
<!-- Generator: visioncortex VTracer 0.6.3 -->
<svg version="1.1" xmlns="http://www.w3.org/2000/svg" width="901" height="800">
<path d="M0 0 C1.86 -0 3.72 -0.01 5.58 -0.02 C10.68 -0.03 15.78 -0 20.87 0.03 C26.37 0.05 31.88 0.04 37.38 0.04 C46.91 0.03 56.43 0.05 65.96 0.09 C79.74 0.14 93.51 0.15 107.29 0.16 C129.64 0.17 151.99 0.21 174.34 0.27 C196.05 0.32 217.76 0.37 239.47 0.39 C240.14 0.39 240.81 0.39 241.5 0.39 C248.22 0.4 254.94 0.41 261.67 0.42 C318.03 0.48 374.39 0.59 430.75 0.72 C430.75 1.38 430.75 2.04 430.75 2.72 C432.24 2.23 432.24 2.23 433.75 1.72 C438.3 4.26 442.06 7.23 444.25 11.97 C444.42 12.88 444.58 13.79 444.75 14.72 C445.08 15.71 445.41 16.7 445.75 17.72 C445.84 19.34 445.88 20.96 445.87 22.57 C445.88 23.58 445.88 24.58 445.88 25.62 C445.88 26.73 445.87 27.84 445.87 28.98 C445.87 30.74 445.87 30.74 445.87 32.54 C445.88 35.8 445.87 39.07 445.87 42.33 C445.86 45.85 445.86 49.37 445.87 52.89 C445.87 58.99 445.86 65.09 445.86 71.19 C445.85 80.01 445.85 88.83 445.85 97.65 C445.84 111.95 445.84 126.26 445.83 140.57 C445.82 154.47 445.81 168.37 445.81 182.27 C445.81 183.55 445.81 183.55 445.81 184.86 C445.8 189.16 445.8 193.46 445.8 197.75 C445.79 233.41 445.77 269.06 445.75 304.72 C445.09 304.72 444.43 304.72 443.75 304.72 C443.96 305.31 444.17 305.89 444.38 306.5 C444.75 308.72 444.75 308.72 443.93 310.54 C443.5 311.11 443.07 311.69 442.63 312.28 C442.21 312.86 441.8 313.44 441.37 314.04 C438.28 317.25 435.68 318.62 431.22 319.1 C429.83 319.11 428.44 319.11 427.04 319.1 C426.27 319.1 425.5 319.11 424.7 319.11 C422.11 319.12 419.51 319.11 416.91 319.1 C415.03 319.11 413.16 319.11 411.28 319.12 C406.11 319.13 400.94 319.12 395.78 319.11 C390.21 319.11 384.64 319.12 379.07 319.13 C368.16 319.14 357.24 319.14 346.33 319.13 C337.46 319.12 328.6 319.12 319.73 319.12 C318.47 319.12 317.21 319.12 315.91 319.12 C313.35 319.13 310.79 319.13 308.23 319.13 C284.88 319.14 261.54 319.13 238.2 319.11 C216.88 319.1 195.57 319.1 174.25 319.11 C150.31 319.13 126.37 319.14 102.43 319.13 C99.88 319.12 97.33 319.12 94.77 319.12 C93.52 319.12 92.26 319.12 90.97 319.12 C82.11 319.12 73.25 319.12 64.39 319.13 C53.6 319.14 42.81 319.14 32.01 319.12 C26.5 319.11 21 319.11 15.49 319.12 C10.45 319.13 5.41 319.12 0.37 319.11 C-1.46 319.1 -3.29 319.11 -5.11 319.11 C-7.59 319.12 -10.06 319.11 -12.54 319.1 C-13.26 319.11 -13.97 319.11 -14.71 319.12 C-19.06 319.07 -21.77 318.36 -25.25 315.72 C-27.01 313.57 -27.01 313.57 -28.5 311.22 C-29 310.45 -29.5 309.67 -30.01 308.88 C-31.98 305.45 -32.37 302.76 -32.38 298.88 C-32.39 297.88 -32.39 296.87 -32.4 295.84 C-32.4 294.73 -32.4 293.63 -32.4 292.49 C-32.4 291.32 -32.4 290.14 -32.41 288.94 C-32.42 285.68 -32.42 282.42 -32.42 279.16 C-32.43 275.64 -32.44 272.13 -32.45 268.62 C-32.47 260.13 -32.48 251.64 -32.48 243.15 C-32.49 239.15 -32.49 235.16 -32.5 231.16 C-32.52 217.87 -32.53 204.58 -32.54 191.29 C-32.54 187.84 -32.54 184.39 -32.54 180.94 C-32.54 180.09 -32.54 179.23 -32.54 178.35 C-32.55 164.46 -32.58 150.58 -32.61 136.69 C-32.64 122.44 -32.66 108.18 -32.67 93.93 C-32.67 85.92 -32.68 77.92 -32.7 69.92 C-32.72 63.1 -32.73 56.28 -32.72 49.47 C-32.72 45.99 -32.72 42.51 -32.74 39.04 C-32.76 35.26 -32.75 31.49 -32.74 27.72 C-32.75 26.62 -32.76 25.53 -32.77 24.41 C-32.71 16.79 -31.95 10.45 -26.4 4.86 C-18.52 -0.91 -9.29 -0.1 0 0 Z " fill="#DBDEDD" transform="translate(243.24832153320313,479.2784729003906)"/>
<path d="M0 0 C1.86 -0 3.72 -0.01 5.58 -0.02 C10.68 -0.03 15.78 -0 20.87 0.03 C26.37 0.05 31.88 0.04 37.38 0.04 C46.91 0.03 56.43 0.05 65.96 0.09 C79.74 0.14 93.51 0.15 107.29 0.16 C129.64 0.17 151.99 0.21 174.34 0.27 C196.05 0.32 217.76 0.37 239.47 0.39 C240.14 0.39 240.81 0.39 241.5 0.39 C248.22 0.4 254.94 0.41 261.67 0.42 C318.03 0.48 374.39 0.59 430.75 0.72 C430.75 1.38 430.75 2.04 430.75 2.72 C432.24 2.23 432.24 2.23 433.75 1.72 C438.3 4.26 442.06 7.23 444.25 11.97 C444.42 12.88 444.58 13.79 444.75 14.72 C445.08 15.71 445.41 16.7 445.75 17.72 C445.84 19.34 445.88 20.96 445.87 22.57 C445.88 23.58 445.88 24.58 445.88 25.62 C445.88 26.73 445.87 27.84 445.87 28.98 C445.87 30.74 445.87 30.74 445.87 32.54 C445.88 35.8 445.87 39.07 445.87 42.33 C445.86 45.85 445.86 49.37 445.87 52.89 C445.87 58.99 445.86 65.09 445.86 71.19 C445.85 80.01 445.85 88.83 445.85 97.65 C445.84 111.95 445.84 126.26 445.83 140.57 C445.82 154.47 445.81 168.37 445.81 182.27 C445.81 183.55 445.81 183.55 445.81 184.86 C445.8 189.16 445.8 193.46 445.8 197.75 C445.79 233.41 445.77 269.06 445.75 304.72 C445.09 304.72 444.43 304.72 443.75 304.72 C443.96 305.31 444.17 305.89 444.38 306.5 C444.75 308.72 444.75 308.72 443.93 310.54 C443.5 311.11 443.07 311.69 442.63 312.28 C442.21 312.86 441.8 313.44 441.37 314.04 C438.28 317.25 435.68 318.62 431.22 319.1 C429.83 319.11 428.44 319.11 427.04 319.1 C426.27 319.1 425.5 319.11 424.7 319.11 C422.11 319.12 419.51 319.11 416.91 319.1 C415.03 319.11 413.16 319.11 411.28 319.12 C406.11 319.13 400.94 319.12 395.78 319.11 C390.21 319.11 384.64 319.12 379.07 319.13 C368.16 319.14 357.24 319.14 346.33 319.13 C337.46 319.12 328.6 319.12 319.73 319.12 C318.47 319.12 317.21 319.12 315.91 319.12 C313.35 319.13 310.79 319.13 308.23 319.13 C284.88 319.14 261.54 319.13 238.2 319.11 C216.88 319.1 195.57 319.1 174.25 319.11 C150.31 319.13 126.37 319.14 102.43 319.13 C99.88 319.12 97.33 319.12 94.77 319.12 C93.52 319.12 92.26 319.12 90.97 319.12 C82.11 319.12 73.25 319.12 64.39 319.13 C53.6 319.14 42.81 319.14 32.01 319.12 C26.5 319.11 21 319.11 15.49 319.12 C10.45 319.13 5.41 319.12 0.37 319.11 C-1.46 319.1 -3.29 319.11 -5.11 319.11 C-7.59 319.12 -10.06 319.11 -12.54 319.1 C-13.26 319.11 -13.97 319.11 -14.71 319.12 C-19.06 319.07 -21.77 318.36 -25.25 315.72 C-27.01 313.57 -27.01 313.57 -28.5 311.22 C-29 310.45 -29.5 309.67 -30.01 308.88 C-31.98 305.45 -32.37 302.76 -32.38 298.88 C-32.39 297.88 -32.39 296.87 -32.4 295.84 C-32.4 294.73 -32.4 293.63 -32.4 292.49 C-32.4 291.32 -32.4 290.14 -32.41 288.94 C-32.42 285.68 -32.42 282.42 -32.42 279.16 C-32.43 275.64 -32.44 272.13 -32.45 268.62 C-32.47 260.13 -32.48 251.64 -32.48 243.15 C-32.49 239.15 -32.49 235.16 -32.5 231.16 C-32.52 217.87 -32.53 204.58 -32.54 191.29 C-32.54 187.84 -32.54 184.39 -32.54 180.94 C-32.54 180.09 -32.54 179.23 -32.54 178.35 C-32.55 164.46 -32.58 150.58 -32.61 136.69 C-32.64 122.44 -32.66 108.18 -32.67 93.93 C-32.67 85.92 -32.68 77.92 -32.7 69.92 C-32.72 63.1 -32.73 56.28 -32.72 49.47 C-32.72 45.99 -32.72 42.51 -32.74 39.04 C-32.76 35.26 -32.75 31.49 -32.74 27.72 C-32.75 26.62 -32.76 25.53 -32.77 24.41 C-32.71 16.79 -31.95 10.45 -26.4 4.86 C-18.52 -0.91 -9.29 -0.1 0 0 Z M-22.04 13.63 C-23.92 18.43 -23.66 23.08 -23.64 28.18 C-23.64 29.36 -23.65 30.53 -23.65 31.74 C-23.66 34.99 -23.66 38.24 -23.66 41.49 C-23.65 45 -23.66 48.51 -23.67 52.02 C-23.69 58.89 -23.69 65.76 -23.69 72.63 C-23.68 78.21 -23.68 83.79 -23.69 89.38 C-23.69 90.17 -23.69 90.97 -23.69 91.78 C-23.69 93.4 -23.69 95.01 -23.7 96.63 C-23.71 111.76 -23.7 126.9 -23.69 142.03 C-23.68 155.88 -23.7 169.73 -23.72 183.58 C-23.74 197.8 -23.75 212.02 -23.75 226.24 C-23.74 234.23 -23.75 242.21 -23.76 250.19 C-23.78 256.99 -23.78 263.79 -23.76 270.58 C-23.75 274.05 -23.75 277.52 -23.77 280.99 C-23.78 284.74 -23.77 288.5 -23.75 292.26 C-23.76 293.36 -23.77 294.46 -23.78 295.59 C-23.74 301.53 -23.74 301.53 -21.34 306.88 C-17.67 310.11 -14.68 309.87 -10 309.86 C-9.24 309.86 -8.48 309.86 -7.7 309.86 C-5.13 309.87 -2.56 309.87 0.01 309.87 C1.86 309.87 3.71 309.88 5.56 309.88 C10.67 309.89 15.78 309.89 20.88 309.9 C26.38 309.9 31.88 309.91 37.38 309.92 C50.68 309.94 63.97 309.95 77.26 309.96 C83.51 309.96 89.76 309.97 96.02 309.97 C116.79 309.99 137.56 310 158.34 310.01 C159.68 310.01 161.02 310.01 162.37 310.01 C163.03 310.01 163.7 310.01 164.39 310.01 C167.76 310.01 171.14 310.02 174.52 310.02 C175.19 310.02 175.86 310.02 176.55 310.02 C198.28 310.03 220.02 310.05 241.75 310.08 C264.72 310.12 287.69 310.14 310.66 310.14 C323.19 310.14 335.71 310.15 348.24 310.18 C358.9 310.2 369.56 310.2 380.23 310.2 C385.67 310.19 391.12 310.19 396.56 310.21 C401.54 310.23 406.52 310.23 411.5 310.21 C413.3 310.21 415.11 310.21 416.92 310.23 C419.36 310.24 421.81 310.23 424.25 310.22 C425.32 310.23 425.32 310.23 426.4 310.25 C429.66 310.2 431.5 309.9 434.19 308 C436.03 305.31 436.25 303.94 436.25 300.7 C436.26 299.68 436.27 298.66 436.28 297.61 C436.27 296.49 436.26 295.37 436.25 294.22 C436.26 293.03 436.26 291.84 436.27 290.62 C436.28 287.32 436.27 284.02 436.26 280.71 C436.25 277.15 436.26 273.59 436.27 270.03 C436.28 263.06 436.28 256.09 436.26 249.11 C436.24 241 436.25 232.88 436.25 224.76 C436.26 210.28 436.24 195.79 436.22 181.31 C436.19 167.25 436.19 153.19 436.2 139.13 C436.21 123.83 436.21 108.53 436.2 93.22 C436.2 91.59 436.19 89.96 436.19 88.33 C436.19 87.53 436.19 86.73 436.19 85.9 C436.19 80.24 436.19 74.58 436.19 68.91 C436.2 62.02 436.19 55.12 436.17 48.22 C436.16 44.7 436.16 41.18 436.16 37.66 C436.17 33.85 436.16 30.04 436.14 26.22 C436.15 25.11 436.15 23.99 436.16 22.84 C436.15 21.82 436.14 20.8 436.13 19.75 C436.13 18.87 436.13 17.99 436.13 17.08 C435.67 14.19 434.76 12.83 432.75 10.72 C429.24 9.55 426.1 9.58 422.45 9.59 C421.69 9.59 420.94 9.59 420.16 9.59 C417.62 9.58 415.08 9.59 412.53 9.59 C410.7 9.59 408.86 9.58 407.03 9.58 C401.97 9.57 396.91 9.57 391.86 9.58 C386.41 9.58 380.96 9.57 375.51 9.57 C364.83 9.56 354.15 9.56 343.47 9.55 C334.8 9.55 326.12 9.55 317.44 9.55 C292.86 9.54 268.28 9.54 243.69 9.54 C243.03 9.54 242.37 9.54 241.69 9.54 C240.35 9.54 239 9.54 237.66 9.54 C216.81 9.54 195.95 9.53 175.09 9.52 C151.67 9.5 128.24 9.49 104.82 9.49 C92.41 9.49 80.01 9.49 67.6 9.48 C57.04 9.47 46.48 9.47 35.92 9.48 C30.52 9.48 25.13 9.48 19.74 9.47 C14.81 9.46 9.88 9.46 4.94 9.47 C3.15 9.47 1.37 9.47 -0.42 9.47 C-2.84 9.46 -5.27 9.46 -7.69 9.47 C-8.39 9.47 -9.09 9.46 -9.81 9.46 C-14.73 9.49 -18.59 9.95 -22.04 13.63 Z " fill="#5B5E5F" transform="translate(243.24832153320313,479.2784729003906)"/>
<path d="M0 0 C5.2 1.77 5.2 1.77 6.38 4.12 C7.37 4.78 8.36 5.45 9.38 6.12 C8.72 7.45 8.06 8.76 7.38 10.12 C7.7 9.67 8.03 9.21 8.37 8.73 C13.19 2.52 18.35 0.13 25.88 -1.75 C32.69 -1.99 38.44 -0.22 44.38 3.12 C44.38 4.12 44.38 5.11 44.38 6.12 C45.03 6.12 45.69 6.12 46.38 6.12 C45.06 10.36 43.43 14.2 41.38 18.12 C40.88 16.64 40.88 16.64 40.38 15.12 C38.49 14.02 38.49 14.02 36.38 13.12 C35.38 12.47 34.39 11.8 33.38 11.12 C27.76 10.66 24.22 10.97 19.38 14.12 C16.68 17.1 15.93 19.27 15.62 23.25 C15.55 24.12 15.47 24.99 15.39 25.88 C15.21 28.16 15.21 28.16 16.38 30.12 C21.35 34.56 24.52 36.52 31.31 36.49 C34.91 35.85 36.78 33.6 39.38 31.12 C40.03 31.12 40.69 31.12 41.38 31.12 C41.38 35.75 41.38 40.37 41.38 45.12 C34.49 48.57 29.92 49.24 22.38 48.12 C18.43 46.51 14.91 44.51 11.38 42.12 C11.54 41.49 11.7 40.85 11.88 40.19 C12.41 38.32 12.41 38.32 12.38 37.12 C11.98 37.56 11.59 37.99 11.19 38.43 C9.06 40.42 6.83 41.78 4.31 43.25 C3.43 43.77 2.56 44.29 1.65 44.82 C-2 46.91 -4.02 47.25 -8.25 47.26 C-9.93 47.26 -9.93 47.26 -11.64 47.26 C-12.81 47.26 -13.98 47.25 -15.19 47.25 C-16.36 47.25 -17.54 47.26 -18.75 47.26 C-20.42 47.26 -20.42 47.26 -22.13 47.26 C-23.16 47.26 -24.19 47.26 -25.25 47.25 C-27.62 47.12 -27.62 47.12 -28.62 46.12 C-28.72 44.65 -28.74 43.17 -28.74 41.7 C-28.74 40.76 -28.74 39.82 -28.74 38.85 C-28.73 37.82 -28.73 36.8 -28.72 35.75 C-28.72 34.7 -28.72 33.66 -28.72 32.59 C-28.71 29.25 -28.7 25.9 -28.69 22.56 C-28.68 20.3 -28.68 18.04 -28.67 15.78 C-28.66 10.23 -28.65 4.68 -28.62 -0.88 C-21.11 -4.63 -7.8 -2.33 0 0 Z " fill="#000102" transform="translate(281.625,652.875)"/>
<path d="M0 0 C0.78 -0.01 1.57 -0.01 2.37 -0.02 C4.96 -0.04 7.54 -0.04 10.12 -0.05 C11.92 -0.05 13.72 -0.06 15.52 -0.07 C19.29 -0.08 23.06 -0.08 26.82 -0.08 C31.65 -0.08 36.48 -0.11 41.3 -0.14 C45.02 -0.16 48.73 -0.17 52.44 -0.17 C54.22 -0.17 56 -0.18 57.78 -0.19 C60.27 -0.21 62.76 -0.21 65.25 -0.2 C65.98 -0.21 66.72 -0.22 67.47 -0.23 C72.33 -0.17 74.78 0.84 78.19 4.29 C80.87 8.31 80.88 11.56 80.19 16.29 C78.08 19.79 77.07 21 73.19 22.29 C70.63 22.41 68.1 22.48 65.54 22.5 C64.37 22.51 64.37 22.51 63.18 22.53 C60.61 22.56 58.03 22.58 55.46 22.6 C54.58 22.61 53.7 22.61 52.79 22.62 C48.13 22.65 43.46 22.68 38.8 22.7 C34.94 22.71 31.09 22.75 27.24 22.8 C22.58 22.86 17.92 22.89 13.26 22.9 C11.49 22.91 9.72 22.93 7.94 22.96 C-8.73 23.22 -8.73 23.22 -14.63 17.97 C-16.41 15.44 -16.67 13.29 -16.34 10.25 C-15.3 6.41 -13.44 3.42 -10.16 1.14 C-6.8 -0.08 -3.53 -0 0 0 Z " fill="#A0A4A5" transform="translate(378.810302734375,561.70947265625)"/>
<path d="M0 0 C1 -0.01 2 -0.01 3.04 -0.02 C5.15 -0.02 7.27 -0.02 9.38 -0.01 C12.61 -0 15.85 -0.03 19.08 -0.06 C21.14 -0.07 23.19 -0.07 25.25 -0.06 C26.7 -0.08 26.7 -0.08 28.17 -0.1 C32.45 -0.05 34.94 0.01 38.65 2.28 C41.5 5.38 42.96 7.55 43.19 11.75 C43.25 12.48 43.31 13.22 43.38 13.98 C42.12 18.06 39.23 20.29 35.62 22.43 C32.11 23.26 28.72 23.23 25.12 23.16 C23.63 23.16 23.63 23.16 22.11 23.16 C20.02 23.16 17.92 23.14 15.83 23.11 C12.63 23.06 9.44 23.06 6.25 23.08 C4.21 23.07 2.17 23.05 0.12 23.04 C-1.3 23.04 -1.3 23.04 -2.75 23.04 C-8.78 22.91 -12.45 22 -17.38 18.43 C-19.73 14.9 -19.86 13.6 -19.38 9.43 C-14.7 0.61 -9.22 -0.03 0 0 Z " fill="#A0A4A5" transform="translate(521.375,561.56640625)"/>
<path d="M0 0 C0.8 -0 1.61 -0.01 2.43 -0.01 C5.06 -0.02 7.7 -0.01 10.33 0.01 C12.17 0.01 14.01 0.01 15.85 0.01 C19.69 0.01 23.54 0.02 27.38 0.04 C32.3 0.06 37.23 0.06 42.15 0.05 C45.95 0.05 49.74 0.06 53.53 0.07 C55.35 0.07 57.16 0.07 58.98 0.07 C61.52 0.07 64.05 0.08 66.59 0.1 C67.34 0.1 68.08 0.09 68.85 0.09 C72.88 0.13 76.11 0.41 79.67 2.37 C81.82 5.6 82.13 6.62 81.67 10.37 C80.38 12 80.38 12 78.67 13.37 C75.72 13.67 72.98 13.78 70.03 13.76 C69.15 13.77 68.27 13.77 67.36 13.78 C64.44 13.79 61.53 13.78 58.61 13.77 C56.58 13.77 54.55 13.78 52.53 13.78 C48.28 13.78 44.03 13.78 39.78 13.76 C34.33 13.75 28.88 13.76 23.43 13.77 C19.25 13.78 15.06 13.78 10.88 13.77 C8.87 13.77 6.86 13.77 4.85 13.78 C2.04 13.79 -0.77 13.78 -3.57 13.76 C-4.82 13.77 -4.82 13.77 -6.1 13.78 C-10.43 13.73 -13.22 13.54 -16.33 10.37 C-16.27 7.06 -16.27 7.06 -15.33 3.37 C-10.24 0.51 -5.82 -0.06 0 0 Z " fill="#A0A4A5" transform="translate(495.33447265625,625.627685546875)"/>
<path d="M0 0 C0.66 0.33 1.32 0.66 2 1 C2.62 3.56 2.62 3.56 3 6 C2.34 6 1.68 6 1 6 C4.46 7.49 4.46 7.49 8 9 C8 7.35 8 5.7 8 4 C10.87 4.32 12.23 5.17 14.56 6.94 C17.81 11.01 18.83 14.99 20 20 C20.25 21.01 20.5 22.02 20.75 23.06 C21.14 27.66 21.09 32.82 19 37 C19 38.32 19 39.64 19 41 C18.34 41 17.68 41 17 41 C16.34 42.98 15.68 44.96 15 47 C14.34 47 13.68 47 13 47 C13.96 49.33 13.96 49.33 17 51 C17 51.66 17 52.32 17 53 C10.67 54.14 4.48 54.11 -1.94 54.06 C-3.54 54.06 -3.54 54.06 -5.17 54.05 C-7.78 54.04 -10.39 54.02 -13 54 C-13.66 52.68 -14.32 51.36 -15 50 C-13.51 49.5 -13.51 49.5 -12 49 C-12 48.01 -12 47.02 -12 46 C-13.65 45.67 -15.3 45.34 -17 45 C-16.94 44.07 -16.88 43.14 -16.81 42.19 C-16.64 39.02 -16.64 39.02 -18.5 37.5 C-20 36 -20 36 -20.12 33.06 C-20.08 32.05 -20.04 31.04 -20 30 C-20.44 27.73 -20.44 27.73 -21 26 C-20.34 26 -19.68 26 -19 26 C-18.67 25.01 -18.34 24.02 -18 23 C-16.5 24.31 -16.5 24.31 -15 26 C-15 26.99 -15 27.98 -15 29 C-15.66 29 -16.32 29 -17 29 C-16.65 29.78 -16.3 30.57 -15.94 31.38 C-15.63 32.24 -15.32 33.11 -15 34 C-15.33 34.66 -15.66 35.32 -16 36 C-15.01 36.33 -14.02 36.66 -13 37 C-13 37.99 -13 38.98 -13 40 C-12.67 40 -12.34 40 -12 40 C-12 39.34 -12 38.68 -12 38 C-10.02 37.5 -10.02 37.5 -8 37 C-7.25 33.53 -7.25 33.53 -7 30 C-7.97 29.69 -8.94 29.38 -9.94 29.06 C-13 28 -13 28 -14 27 C-13.91 25.47 -13.75 23.95 -13.56 22.44 C-13.46 21.61 -13.36 20.78 -13.25 19.93 C-13.17 19.3 -13.09 18.66 -13 18 C-12.34 18 -11.68 18 -11 18 C-10.67 19.65 -10.34 21.3 -10 23 C-8.35 22.34 -6.7 21.68 -5 21 C-3.62 22.29 -2.29 23.63 -1 25 C-1 25.66 -1 26.32 -1 27 C2.96 25.51 2.96 25.51 7 24 C7 23.01 7 22.02 7 21 C8.32 20.67 9.64 20.34 11 20 C10.34 19.67 9.68 19.34 9 19 C9.02 18.26 9.04 17.51 9.06 16.75 C9.01 14.3 8.69 12.34 8 10 C7.01 10 6.02 10 5 10 C4.9 11.26 4.79 12.52 4.69 13.81 C4.35 16.6 4.2 17.74 2.44 20 C1.96 20.33 1.49 20.66 1 21 C-1.31 19.68 -3.62 18.36 -6 17 C-4 15 -4 15 -2 14.69 C-1.01 14.35 -1.01 14.35 0 14 C1.3 11.51 1.3 11.51 2 9 C0.68 8.34 -0.64 7.68 -2 7 C-1.34 4.69 -0.68 2.38 0 0 Z " fill="#878A8B" transform="translate(266,501)"/>
<path d="M0 0 C0.68 -0 1.35 -0.01 2.05 -0.01 C4.26 -0.02 6.47 -0.01 8.68 0.01 C10.23 0.01 11.77 0.01 13.32 0.01 C16.55 0.01 19.79 0.02 23.02 0.04 C27.16 0.06 31.29 0.06 35.43 0.05 C38.62 0.05 41.81 0.06 45 0.07 C46.53 0.07 48.06 0.07 49.58 0.07 C51.71 0.07 53.84 0.08 55.98 0.1 C57.19 0.1 58.4 0.11 59.65 0.11 C62.83 0.37 65.03 0.93 67.86 2.37 C69.7 4.8 69.9 5.95 69.61 9 C68.86 11.37 68.86 11.37 66.86 13.37 C64.38 13.58 62.01 13.66 59.54 13.65 C58.4 13.65 58.4 13.65 57.25 13.66 C54.75 13.68 52.24 13.68 49.74 13.67 C48.01 13.68 46.27 13.68 44.53 13.69 C40.89 13.69 37.25 13.69 33.6 13.69 C28.93 13.68 24.26 13.7 19.59 13.72 C16.01 13.74 12.42 13.74 8.83 13.73 C7.11 13.74 5.39 13.74 3.67 13.75 C1.26 13.76 -1.15 13.76 -3.56 13.74 C-4.27 13.75 -4.98 13.76 -5.72 13.77 C-9.81 13.72 -12.16 13.25 -15.14 10.37 C-15.08 7.06 -15.08 7.06 -14.14 3.37 C-9.3 0.72 -5.57 -0 0 0 Z " fill="#A0A4A5" transform="translate(397.14111328125,625.627685546875)"/>
<path d="M0 0 C1.2 -0.01 1.2 -0.01 2.43 -0.02 C4.11 -0.03 5.8 -0.02 7.48 -0.01 C10.06 0 12.62 -0.03 15.2 -0.07 C16.84 -0.07 18.48 -0.07 20.12 -0.06 C21.27 -0.08 21.27 -0.08 22.44 -0.1 C26.53 -0.03 28.27 0.38 31.46 3.04 C32.13 3.88 32.8 4.71 33.5 5.57 C33.99 6.06 33.99 6.06 34.5 6.57 C34.8 8.89 34.8 8.89 34.93 11.82 C34.99 12.77 35.05 13.72 35.12 14.71 C34.38 18.09 33.01 19.39 30.33 21.51 C27.05 23.4 23.81 23.3 20.1 23.27 C18.91 23.28 18.91 23.28 17.69 23.29 C16.02 23.3 14.35 23.29 12.67 23.27 C10.13 23.25 7.6 23.29 5.06 23.34 C-9.54 23.41 -9.54 23.41 -15.31 18.25 C-16.67 16.34 -17.15 14.87 -17.5 12.57 C-17.16 10.57 -17.16 10.57 -16.44 8.57 C-16.22 7.91 -16.01 7.25 -15.78 6.57 C-11.95 0.57 -6.47 -0.04 0 0 Z " fill="#A0A4A5" transform="translate(319.50390625,561.43359375)"/>
<path d="M0 0 C0.76 -0.01 1.51 -0.02 2.29 -0.03 C4.79 -0.05 7.3 -0.06 9.8 -0.06 C11.53 -0.07 13.27 -0.08 15.01 -0.09 C18.65 -0.11 22.29 -0.12 25.93 -0.12 C30.6 -0.12 35.28 -0.16 39.95 -0.21 C43.53 -0.24 47.12 -0.24 50.71 -0.25 C52.43 -0.25 54.15 -0.26 55.88 -0.28 C58.28 -0.31 60.69 -0.31 63.09 -0.29 C64.16 -0.32 64.16 -0.32 65.26 -0.34 C67.25 -0.31 67.25 -0.31 70.55 0.31 C72.86 3.08 73.61 4.38 73.36 7.99 C72.55 10.31 72.55 10.31 70.55 12.31 C68.07 12.51 65.7 12.59 63.22 12.58 C62.09 12.59 62.09 12.59 60.94 12.6 C58.43 12.61 55.93 12.61 53.43 12.61 C51.69 12.61 49.96 12.62 48.22 12.62 C44.58 12.63 40.93 12.63 37.29 12.62 C32.62 12.62 27.95 12.63 23.28 12.66 C19.69 12.67 16.11 12.67 12.52 12.67 C10.8 12.67 9.08 12.67 7.35 12.68 C4.95 12.7 2.54 12.69 0.13 12.68 C-0.58 12.69 -1.29 12.69 -2.03 12.7 C-6.12 12.66 -8.48 12.19 -11.45 9.31 C-11.14 5.93 -11.14 5.93 -10.45 2.31 C-6.84 -0.1 -4.18 0 0 0 Z " fill="#A0A4A5" transform="translate(393.453125,646.693603515625)"/>
<path d="M0 0 C0.7 -0.01 1.4 -0.01 2.12 -0.02 C4.42 -0.04 6.72 -0.04 9.02 -0.03 C10.62 -0.03 12.22 -0.04 13.82 -0.05 C17.18 -0.05 20.53 -0.05 23.88 -0.04 C28.18 -0.03 32.48 -0.05 36.78 -0.08 C40.09 -0.1 43.39 -0.1 46.7 -0.09 C48.28 -0.09 49.87 -0.1 51.46 -0.11 C53.67 -0.13 55.88 -0.11 58.1 -0.1 C59.36 -0.1 60.62 -0.1 61.92 -0.1 C64.98 0.4 64.98 0.4 66.93 2.2 C68.5 5.48 67.77 7.94 66.98 11.4 C65.08 13.31 61.67 12.56 59.14 12.58 C58.07 12.59 58.07 12.59 56.97 12.6 C54.6 12.62 52.22 12.63 49.84 12.64 C49.03 12.65 48.22 12.65 47.38 12.65 C43.09 12.68 38.8 12.69 34.51 12.7 C30.08 12.71 25.64 12.74 21.21 12.78 C17.8 12.81 14.39 12.82 10.99 12.82 C9.35 12.83 7.72 12.84 6.08 12.86 C3.79 12.88 1.5 12.88 -0.78 12.87 C-2.09 12.88 -3.39 12.89 -4.73 12.89 C-8.02 12.4 -8.02 12.4 -10.47 10.53 C-12.02 8.4 -12.02 8.4 -12.02 5.84 C-9.69 0.18 -5.64 0.02 0 0 Z " fill="#A0A4A5" transform="translate(564.015869140625,646.595947265625)"/>
<path d="M0 0 C2 2 2 2 2.23 3.91 C2.11 9.89 2.11 9.89 1 11 C-0.6 11.29 -2.21 11.56 -3.81 11.81 C-6.97 12.43 -8.81 12.87 -11.5 14.69 C-13.74 18.14 -15 21.86 -15 26 C-13.94 25.99 -12.88 25.98 -11.79 25.96 C-10.4 25.96 -9.01 25.95 -7.62 25.94 C-6.93 25.93 -6.23 25.92 -5.51 25.91 C-0.23 25.89 -0.23 25.89 2 27 C2 29.97 2 32.94 2 36 C-6.42 36.5 -6.42 36.5 -15 37 C-15.33 40.96 -15.66 44.92 -16 49 C-24.5 49.1 -24.5 49.1 -27 49 C-29.74 46.26 -28.38 38.36 -28.44 34.69 C-28.48 33.46 -28.53 32.23 -28.58 30.96 C-28.69 21.61 -26.95 13.19 -20.29 6.2 C-14.95 1.8 -6.86 -0.59 0 0 Z " fill="#000102" transform="translate(352,651)"/>
<path d="M0 0 C1.29 -0.01 2.59 -0.02 3.92 -0.03 C5.34 -0.02 6.75 -0.02 8.17 -0.01 C9.61 -0.01 11.06 -0.02 12.51 -0.02 C15.54 -0.02 18.58 -0.02 21.61 -0 C25.5 0.01 29.4 0 33.29 -0.01 C36.28 -0.02 39.27 -0.02 42.26 -0.01 C43.7 -0.01 45.13 -0.01 46.57 -0.02 C48.57 -0.03 50.57 -0.01 52.58 0 C54.29 0 54.29 0 56.04 0.01 C56.92 0.13 57.81 0.26 58.72 0.39 C61.17 4.06 61.04 6.05 60.72 10.39 C58 13.12 56.5 12.65 52.69 12.66 C50.78 12.68 50.78 12.68 48.84 12.69 C47.45 12.69 46.06 12.69 44.67 12.69 C43.25 12.69 41.82 12.7 40.4 12.7 C37.42 12.71 34.43 12.71 31.45 12.7 C27.63 12.7 23.81 12.71 19.98 12.74 C17.04 12.75 14.1 12.75 11.17 12.75 C9.76 12.75 8.35 12.76 6.94 12.77 C4.97 12.78 2.99 12.77 1.02 12.76 C-0.1 12.76 -1.22 12.76 -2.38 12.76 C-5.61 12.34 -7 11.7 -9.28 9.39 C-9.73 6.3 -9.94 4.36 -8.14 1.72 C-5.42 -0.22 -3.32 0.01 0 0 Z " fill="#555859" transform="translate(391.275634765625,606.61181640625)"/>
<path d="M0 0 C1.11 -0.01 2.23 -0.02 3.38 -0.03 C4.57 -0.02 5.77 -0.02 7.01 -0.01 C8.24 -0.01 9.47 -0.02 10.74 -0.02 C14.01 -0.02 17.28 -0.01 20.55 0.01 C22.56 0.01 24.57 0.01 26.58 -0 C30.43 -0.02 34.28 -0.02 38.13 -0.01 C39.33 -0.02 40.54 -0.02 41.77 -0.03 C43.44 -0.01 43.44 -0.01 45.13 0 C46.6 0 46.6 0 48.1 0.01 C48.87 0.13 49.64 0.26 50.44 0.39 C52.89 4.06 52.75 6.05 52.44 10.39 C49.82 13 48.69 12.65 45.04 12.66 C43.35 12.68 43.35 12.68 41.62 12.69 C40.4 12.69 39.17 12.69 37.91 12.69 C36.03 12.7 36.03 12.7 34.12 12.7 C31.46 12.71 28.81 12.71 26.15 12.7 C22.75 12.7 19.36 12.71 15.96 12.74 C12.71 12.76 9.47 12.75 6.23 12.75 C5.01 12.76 3.79 12.77 2.53 12.78 C1.4 12.77 0.26 12.77 -0.91 12.76 C-2.4 12.76 -2.4 12.76 -3.93 12.76 C-6.95 12.33 -8.32 11.4 -10.56 9.39 C-10.07 3.89 -10.07 3.89 -7.86 1.71 C-5.04 0.09 -3.25 0.01 0 0 Z " fill="#A0A4A5" transform="translate(489.56298828125,646.61181640625)"/>
<path d="M0 0 C1.84 1.24 3.44 2.34 4.93 3.98 C4.93 4.97 4.93 5.96 4.93 6.98 C5.59 6.98 6.25 6.98 6.93 6.98 C7.06 9.09 7.16 11.19 7.24 13.3 C7.3 14.47 7.36 15.64 7.42 16.85 C6.93 19.98 6.93 19.98 4.52 21.8 C3.67 22.19 2.81 22.58 1.93 22.98 C1.33 23.54 0.73 24.1 0.12 24.67 C-3.2 26.66 -6.37 26.62 -10.07 25.98 C-12.7 24.9 -14.68 23.59 -17.07 21.98 C-17.87 21.55 -18.68 21.12 -19.51 20.67 C-21.07 18.98 -21.07 18.98 -21.45 15.73 C-20.95 10.78 -20.38 6.66 -17.26 2.67 C-12.23 -1.2 -5.92 -2.9 0 0 Z " fill="#DBDEDD" transform="translate(317.0703125,664.015625)"/>
<path d="M0 0 C1.23 -0.01 2.46 -0.02 3.72 -0.04 C4.9 -0.04 6.09 -0.04 7.31 -0.04 C8.39 -0.05 9.47 -0.05 10.58 -0.06 C13.68 0.2 15.81 0.74 18.56 2.19 C20.72 5.42 21.03 6.44 20.56 10.19 C19.54 11.82 19.54 11.82 17.56 13.19 C14.81 13.5 12.29 13.63 9.54 13.62 C8.75 13.63 7.96 13.63 7.16 13.64 C5.5 13.64 3.84 13.64 2.18 13.63 C-0.36 13.63 -2.9 13.65 -5.44 13.69 C-7.05 13.69 -8.66 13.69 -10.28 13.68 C-11.03 13.69 -11.79 13.71 -12.57 13.72 C-16.1 13.67 -18.08 13.45 -20.95 11.32 C-22.44 9.19 -22.44 9.19 -22.44 6.62 C-21.23 3.69 -20.17 2.75 -17.44 1.19 C-11.87 -0.61 -5.78 0 0 0 Z " fill="#A0A4A5" transform="translate(611.4375,625.8125)"/>
<path d="M0 0 C3.46 2.05 4.78 3.67 7 7 C7.73 11.56 7.59 15.02 5.19 19 C1.2 22.65 -3.05 22.33 -8.2 22.29 C-12.4 21.86 -14.62 20.51 -18 18 C-20.51 14.23 -20.53 12.47 -20 8 C-15.39 -0.09 -8.62 -1.06 0 0 Z " fill="#A0A4A5" transform="translate(487,562)"/>
<path d="M0 0 C6.95 0.04 10.03 2.53 14.88 7.38 C15.19 14.28 14.55 20.15 9.88 25.38 C6.35 27.73 4.85 27.59 0.69 27.5 C-0.4 27.48 -1.49 27.46 -2.61 27.45 C-3.85 27.41 -3.85 27.41 -5.12 27.38 C-6.42 24.78 -6.25 22.87 -6.26 19.96 C-6.26 18.89 -6.26 17.82 -6.26 16.72 C-6.26 15.59 -6.25 14.47 -6.25 13.31 C-6.25 12.19 -6.26 11.06 -6.26 9.9 C-6.26 8.83 -6.26 7.76 -6.26 6.65 C-6.26 5.66 -6.26 4.68 -6.25 3.66 C-6.02 -0.56 -3.74 0.13 0 0 Z " fill="#DCDFDE" transform="translate(271.125,661.625)"/>
<path d="M0 0 C0.74 -0.01 1.49 -0.01 2.25 -0.02 C3.82 -0.03 5.39 -0.03 6.96 -0.03 C9.37 -0.04 11.77 -0.08 14.17 -0.11 C15.7 -0.12 17.22 -0.12 18.75 -0.12 C19.47 -0.14 20.19 -0.15 20.93 -0.17 C24.17 -0.14 25.91 -0.1 28.33 2.17 C29.72 5.06 29.72 7.17 29.38 10.34 C26.45 13.26 23.36 12.66 19.45 12.67 C18.27 12.68 18.27 12.68 17.06 12.69 C15.4 12.7 13.73 12.71 12.06 12.71 C9.52 12.71 6.97 12.75 4.43 12.79 C2.81 12.79 1.19 12.79 -0.43 12.8 C-1.57 12.82 -1.57 12.82 -2.73 12.84 C-6.39 12.81 -8.25 12.64 -11.14 10.31 C-11.63 9.66 -12.12 9.01 -12.62 8.34 C-10.47 0.72 -7.44 0.02 0 0 Z " fill="#A0A4A5" transform="translate(471.625,750.6640625)"/>
<path d="M0 0 C1 -0.04 2 -0.07 3.03 -0.11 C10.38 -0.2 10.38 -0.2 14.36 2.64 C17.07 6.7 16.74 8.59 16.19 13.38 C12.94 16.62 9.03 15.67 4.61 15.7 C3.36 15.69 2.1 15.69 0.81 15.69 C-0.43 15.7 -1.68 15.72 -2.96 15.74 C-4.16 15.74 -5.35 15.74 -6.59 15.74 C-7.68 15.74 -8.78 15.74 -9.91 15.75 C-13.15 15.33 -14.53 14.68 -16.81 12.38 C-17.49 8.47 -17.15 6.88 -14.94 3.56 C-10.66 -0.84 -5.82 0.08 0 0 Z " fill="#A0A4A5" transform="translate(398.8125,747.625)"/>
<path d="M0 0 C1.94 -0.03 1.94 -0.03 3.92 -0.06 C5.15 -0.06 6.39 -0.06 7.66 -0.06 C8.79 -0.06 9.92 -0.06 11.09 -0.06 C13.94 0.44 13.94 0.44 15.81 2.28 C17.34 5.2 17.35 7.19 16.94 10.44 C15.82 12.1 15.82 12.1 13.94 13.44 C11 13.83 11 13.83 7.44 13.84 C6.16 13.84 4.88 13.84 3.56 13.85 C2.56 13.84 2.56 13.84 1.54 13.83 C-0.49 13.81 -2.52 13.83 -4.55 13.85 C-5.83 13.84 -7.11 13.84 -8.43 13.84 C-9.61 13.83 -10.78 13.83 -11.99 13.83 C-15.29 13.41 -16.66 12.67 -19.06 10.44 C-18.57 3.97 -18.57 3.97 -16.42 1.73 C-11.52 -0.97 -5.46 -0.03 0 0 Z " fill="#A0A4A5" transform="translate(502.0625,703.5625)"/>
<path d="M0 0 C1.15 -0.02 2.3 -0.04 3.48 -0.06 C4.58 -0.06 5.68 -0.06 6.82 -0.06 C7.82 -0.06 8.83 -0.06 9.87 -0.06 C12.44 0.44 12.44 0.44 14.27 2.24 C15.95 5.4 15.76 7.92 15.44 11.44 C12.19 14.69 8.28 13.73 3.86 13.76 C2.61 13.76 1.35 13.75 0.06 13.75 C-1.18 13.77 -2.43 13.78 -3.71 13.8 C-4.91 13.8 -6.1 13.8 -7.34 13.8 C-8.43 13.8 -9.53 13.81 -10.66 13.81 C-13.86 13.4 -15.22 12.59 -17.56 10.44 C-17.07 3.95 -17.07 3.95 -14.88 1.73 C-10.35 -0.8 -5.06 -0.03 0 0 Z " fill="#A0A4A5" transform="translate(399.5625,703.5625)"/>
<path d="M0 0 C1.5 1.31 1.5 1.31 3 3 C3 3.99 3 4.98 3 6 C2.34 6 1.68 6 1 6 C1.35 6.78 1.7 7.57 2.06 8.38 C2.37 9.24 2.68 10.11 3 11 C2.67 11.66 2.34 12.32 2 13 C2.99 13.33 3.98 13.66 5 14 C5 14.99 5 15.98 5 17 C5.33 17 5.66 17 6 17 C6 16.34 6 15.68 6 15 C6.99 14.67 7.98 14.34 9 14 C9.35 14.49 9.7 14.99 10.07 15.5 C12.81 19.05 14.28 20.78 18.69 22.12 C21.89 22.28 21.89 22.28 23.81 20.88 C25.21 18.67 26.14 16.46 27 14 C28.65 14 30.3 14 32 14 C29.88 20.37 29.88 20.37 26.56 22.75 C24 24 24 24 21 24 C21.33 24.66 21.66 25.32 22 26 C22.99 25.67 23.98 25.34 25 25 C25 25.66 25 26.32 25 27 C25.99 27 26.98 27 28 27 C28.66 25.02 29.32 23.04 30 21 C30.99 21 31.98 21 33 21 C33 19.02 33 17.04 33 15 C34.32 14.67 35.64 14.34 37 14 C37 15.32 37 16.64 37 18 C36.34 18 35.68 18 35 18 C34.34 19.98 33.68 21.96 33 24 C32.34 24 31.68 24 31 24 C31.96 26.33 31.96 26.33 35 28 C35 28.66 35 29.32 35 30 C28.67 31.14 22.48 31.11 16.06 31.06 C14.46 31.06 14.46 31.06 12.83 31.05 C10.22 31.04 7.61 31.02 5 31 C4.34 29.68 3.68 28.36 3 27 C3.99 26.67 4.98 26.34 6 26 C6 25.01 6 24.02 6 23 C4.35 22.67 2.7 22.34 1 22 C1.06 21.07 1.12 20.14 1.19 19.19 C1.36 16.02 1.36 16.02 -0.5 14.5 C-2 13 -2 13 -2.12 10.06 C-2.08 9.05 -2.04 8.04 -2 7 C-2.44 4.73 -2.44 4.73 -3 3 C-2.34 3 -1.68 3 -1 3 C-0.67 2.01 -0.34 1.02 0 0 Z " fill="#444748" transform="translate(248,524)"/>
<path d="M0 0 C1.06 -0.01 2.11 -0.01 3.2 -0.02 C4.3 -0 5.4 0.02 6.53 0.03 C7.63 0.02 8.73 0 9.87 -0.02 C10.92 -0.01 11.98 -0.01 13.06 0 C14.03 0 14.99 0.01 15.98 0.01 C18.46 0.53 18.46 0.53 20.28 2.34 C21.98 5.5 21.79 8.01 21.46 11.53 C17.84 15.16 12.06 13.9 7.15 13.91 C5.44 13.94 5.44 13.94 3.69 13.98 C-4.76 14.01 -4.76 14.01 -8.83 11.51 C-9.67 10.53 -9.67 10.53 -10.54 9.53 C-9.8 2.89 -6.64 0.03 0 0 Z " fill="#A0A4A5" transform="translate(574.53515625,703.46875)"/>
<path d="M0 0 C1.46 1.27 2.93 2.54 4.39 3.81 C7.59 6.18 11.04 6.38 14.93 6.37 C18.53 5.73 20.4 3.47 23 1 C23.66 1 24.32 1 25 1 C25 5.62 25 10.24 25 15 C18.12 18.44 13.54 19.11 6 18 C2.05 16.38 -1.46 14.38 -5 12 C-4.36 8.99 -3.35 6.48 -1.94 3.75 C-1.58 3.04 -1.21 2.34 -0.84 1.61 C-0.56 1.08 -0.29 0.55 0 0 Z " fill="#040506" transform="translate(298,683)"/>
<path d="M0 0 C1.06 -0.03 2.12 -0.06 3.21 -0.09 C6.06 -0.09 8.69 -0.04 11.5 0.5 C13.73 2.87 13.73 2.87 14.5 5.5 C14.36 8.35 13.99 9.88 12.23 12.12 C10.02 13.88 8.8 13.89 6.01 13.9 C4.7 13.9 4.7 13.9 3.37 13.91 C2.46 13.9 1.56 13.89 0.62 13.88 C-0.27 13.89 -1.17 13.9 -2.1 13.91 C-10.72 13.87 -10.72 13.87 -14.5 10.5 C-15.33 4.67 -15.33 4.67 -13.29 1.81 C-9.57 -0.91 -4.44 -0.01 0 0 Z " fill="#555859" transform="translate(474.5,732.5)"/>
<path d="M0 0 C1.51 -0.04 1.51 -0.04 3.05 -0.07 C5.78 -0.07 8.27 0.01 10.94 0.56 C13.36 3.22 13.81 4.69 14.31 8.19 C13.85 11.09 13.24 11.79 10.94 13.56 C8.64 13.95 8.64 13.95 5.97 13.96 C4.53 13.97 4.53 13.97 3.05 13.97 C1.54 13.96 1.54 13.96 0 13.94 C-1.5 13.95 -1.5 13.95 -3.04 13.97 C-4 13.97 -4.97 13.96 -5.96 13.96 C-6.85 13.96 -7.73 13.95 -8.64 13.95 C-11.56 13.48 -12.94 12.61 -15.06 10.56 C-15.64 7.15 -15.56 5.36 -13.72 2.41 C-9.45 -0.56 -5.07 -0.06 0 0 Z " fill="#555859" transform="translate(497.0625,686.4375)"/>
<path d="M0 0 C1.51 -0.04 1.51 -0.04 3.05 -0.07 C5.78 -0.07 8.27 0.01 10.94 0.56 C13.36 3.22 13.81 4.69 14.31 8.19 C13.85 11.09 13.24 11.79 10.94 13.56 C8.64 13.95 8.64 13.95 5.97 13.96 C4.53 13.97 4.53 13.97 3.05 13.97 C1.54 13.96 1.54 13.96 0 13.94 C-1.5 13.95 -1.5 13.95 -3.04 13.97 C-4 13.97 -4.97 13.96 -5.96 13.96 C-6.85 13.96 -7.73 13.95 -8.64 13.95 C-11.56 13.48 -12.94 12.61 -15.06 10.56 C-15.64 7.15 -15.56 5.36 -13.72 2.41 C-9.45 -0.56 -5.07 -0.06 0 0 Z " fill="#555859" transform="translate(397.0625,686.4375)"/>
<path d="M0 0 C0.9 -0.02 1.8 -0.05 2.72 -0.07 C9.26 -0.06 9.26 -0.06 12.53 2.93 C14.09 5.85 14.54 7.32 13.94 10.56 C12.28 12.77 11.39 13.49 8.64 13.95 C7.76 13.95 6.88 13.96 5.97 13.96 C4.53 13.97 4.53 13.97 3.05 13.97 C1.54 13.96 1.54 13.96 0 13.94 C-1.5 13.95 -1.5 13.95 -3.04 13.97 C-4 13.97 -4.97 13.96 -5.96 13.96 C-6.85 13.96 -7.73 13.95 -8.64 13.95 C-11.56 13.48 -12.94 12.61 -15.06 10.56 C-15.62 7.62 -15.62 7.62 -15.06 4.56 C-10.71 -0.36 -6.13 -0.08 0 0 Z " fill="#555859" transform="translate(397.0625,729.4375)"/>
<path d="M0 0 C1.01 -0.03 2.01 -0.06 3.05 -0.09 C5.77 -0.09 8.26 -0.04 10.94 0.5 C13.13 2.87 13.13 2.87 13.94 5.5 C13.8 8.34 13.42 9.88 11.68 12.12 C9.41 13.92 8.06 13.89 5.19 13.9 C4.27 13.9 3.35 13.91 2.4 13.91 C1.45 13.9 0.49 13.89 -0.5 13.88 C-1.93 13.89 -1.93 13.89 -3.39 13.91 C-4.31 13.91 -5.23 13.9 -6.18 13.9 C-7.02 13.9 -7.86 13.89 -8.73 13.89 C-11.61 13.41 -12.99 12.54 -15.06 10.5 C-15.56 7 -15.56 7 -15.06 3.5 C-10.72 -0.78 -5.74 -0.01 0 0 Z " fill="#555859" transform="translate(580.0625,686.5)"/>
<path d="M0 0 C0.66 0.33 1.32 0.66 2 1 C2.62 3.56 2.62 3.56 3 6 C2.34 6 1.68 6 1 6 C4.46 7.49 4.46 7.49 8 9 C8 7.35 8 5.7 8 4 C10.87 4.32 12.23 5.17 14.56 6.94 C17.81 11.01 18.83 14.99 20 20 C20.25 21.03 20.5 22.06 20.75 23.12 C21.08 26.91 20.58 30.25 20 34 C18.51 33.5 18.51 33.5 17 33 C17.66 31.02 18.32 29.04 19 27 C18.34 26.67 17.68 26.34 17 26 C16.44 23.42 16.44 23.42 16 20.19 C15.48 16.38 14.94 13.34 13 10 C12.01 10 11.02 10 10 10 C12.03 14.32 12.03 14.32 15 18 C15.58 21.66 15.74 25.3 16 29 C11.71 29 7.42 29 3 29 C2.67 28.01 2.34 27.02 2 26 C3.65 25.34 5.3 24.68 7 24 C7 23.01 7 22.02 7 21 C8.32 20.67 9.64 20.34 11 20 C10.34 19.67 9.68 19.34 9 19 C9.02 18.26 9.04 17.51 9.06 16.75 C9.01 14.3 8.69 12.34 8 10 C7.01 10 6.02 10 5 10 C4.85 11.89 4.85 11.89 4.69 13.81 C4.35 16.6 4.2 17.74 2.44 20 C1.96 20.33 1.49 20.66 1 21 C-2.46 19.02 -2.46 19.02 -6 17 C-4 15 -4 15 -2 14.69 C-1.01 14.35 -1.01 14.35 0 14 C1.3 11.51 1.3 11.51 2 9 C0.68 8.34 -0.64 7.68 -2 7 C-1.34 4.69 -0.68 2.38 0 0 Z " fill="#17191A" transform="translate(266,501)"/>
<path d="M0 0 C-0.12 2.31 -0.12 2.31 -1 5 C-4.06 6.81 -4.06 6.81 -7 8 C-5.02 8.99 -3.04 9.98 -1 11 C1.4 8.6 1.34 7.67 1.62 4.38 C1.7 3.56 1.77 2.74 1.85 1.9 C1.9 1.27 1.95 0.65 2 0 C3.92 0.36 3.92 0.36 6 1 C7.52 3.68 8.12 5.25 7.62 8.31 C7.32 9.15 7.32 9.15 7 10 C7.99 10.33 8.98 10.66 10 11 C8.35 11.66 6.7 12.32 5 13 C5.66 13.66 6.32 14.32 7 15 C0.38 18 0.38 18 -3 18 C-3 17.34 -3 16.68 -3 16 C-3.99 15.67 -4.98 15.34 -6 15 C-6.33 14.34 -6.66 13.68 -7 13 C-8.65 13.66 -10.3 14.32 -12 15 C-13 14 -13 14 -13.38 10.31 C-13.35 6.94 -12.78 5.17 -10.62 2.56 C-6.65 -1.31 -5.31 -1.04 0 0 Z " fill="#DADDDC" transform="translate(268,510)"/>
<path d="M0 0 C0.99 0.5 0.99 0.5 2 1 C2.59 3.65 2.74 6.29 3 9 C3.66 8.34 4.32 7.68 5 7 C7.94 6.56 7.94 6.56 11 7 C13.6 9.86 13.98 11.79 14.38 15.62 C14 19 14 19 12.88 20.94 C10.14 22.49 8.09 22.32 5 22 C4.01 21.34 3.02 20.68 2 20 C1.67 20.66 1.34 21.32 1 22 C0.06 19.18 -0.12 17.47 -0.1 14.55 C-0.09 13.7 -0.09 12.86 -0.09 11.98 C-0.08 11.1 -0.07 10.22 -0.06 9.31 C-0.06 8.42 -0.05 7.53 -0.05 6.61 C-0.04 4.4 -0.02 2.2 0 0 Z " fill="#575A5B" transform="translate(289,715)"/>
<path d="M0 0 C3.56 0.38 3.56 0.38 5.5 2.12 C6.56 4.38 6.56 4.38 6.56 8.38 C4.16 9.58 2.61 9.48 -0.06 9.44 C-1.29 9.42 -1.29 9.42 -2.54 9.41 C-3.48 9.39 -3.48 9.39 -4.44 9.38 C-3.94 9.83 -3.45 10.28 -2.94 10.75 C-1.44 12.38 -1.44 12.38 -1.44 14.38 C1.2 13.72 3.84 13.05 6.56 12.38 C5.57 13.86 5.57 13.86 4.56 15.38 C-2.36 16.03 -2.36 16.03 -5.38 14.19 C-6.76 11.83 -7.24 10.11 -7.44 7.38 C-6.04 2.75 -5.04 0.55 0 0 Z " fill="#6E7172" transform="translate(328.4375,721.625)"/>
<path d="M0 0 C2.57 3.85 1.83 5.59 1 10 C-2.25 10.81 -2.25 10.81 -6 11 C-8.44 8.56 -8.44 8.56 -10 6 C-10.66 7.32 -11.32 8.64 -12 10 C-12.66 9.01 -13.32 8.02 -14 7 C-14.99 7 -15.98 7 -17 7 C-17.33 6.01 -17.66 5.02 -18 4 C-16.35 4 -14.7 4 -13 4 C-12.67 3.01 -12.34 2.02 -12 1 C-11.01 1.33 -10.02 1.66 -9 2 C-5.55 -0.3 -4.05 -0.43 0 0 Z " fill="#BEC1C0" transform="translate(501,509)"/>
<path d="M0 0 C1.32 2.64 1.1 4.68 1.06 7.62 C1.05 8.63 1.04 9.63 1.04 10.66 C1.02 11.43 1.01 12.21 1 13 C-2.53 14.18 -5.29 14.2 -9 14 C-9.99 13.34 -10.98 12.68 -12 12 C-11.67 10.35 -11.34 8.7 -11 7 C-6.05 6.01 -6.05 6.01 -1 5 C-1 4.34 -1 3.68 -1 3 C-1.66 3 -2.32 3 -3 3 C-3 2.34 -3 1.68 -3 1 C-5.31 1.66 -7.62 2.32 -10 3 C-7.08 -1.38 -4.8 -1.39 0 0 Z " fill="#555859" transform="translate(350,723)"/>
<path d="M0 0 C5.37 -0.44 5.37 -0.44 8 0 C10 2.5 10 2.5 11 5 C10.32 4.65 9.64 4.3 8.94 3.94 C5.29 2.77 2.72 3.27 -1 4 C-0.67 5.32 -0.34 6.64 0 8 C0.63 8.11 1.25 8.22 1.9 8.33 C2.72 8.49 3.53 8.65 4.38 8.81 C5.19 8.96 6 9.11 6.84 9.27 C9 10 9 10 11 13 C11.55 18.27 11.55 18.27 9.76 20.66 C6.98 22.77 4.54 22.41 1.16 22.3 C-1.62 21.91 -3.14 21.1 -5 19 C-5 18.34 -5 17.68 -5 17 C-2.13 17.57 -1.14 17.86 1 20 C3.57 20.65 3.57 20.65 6 21 C6.33 20.34 6.66 19.68 7 19 C7.66 18.34 8.32 17.68 9 17 C8.34 15.35 7.68 13.7 7 12 C5.76 11.92 4.52 11.84 3.25 11.75 C0.18 11.36 -0.96 11.03 -3.56 9.19 C-5 7 -5 7 -4.75 4.75 C-4.38 3.88 -4.38 3.88 -4 3 C-2.68 2.67 -1.36 2.34 0 2 C0 1.34 0 0.68 0 0 Z " fill="#555859" transform="translate(257,715)"/>
<path d="M0 0 C0.66 0 1.32 0 2 0 C6.2 4.36 5.66 9.21 6 15 C1.71 15 -2.58 15 -7 15 C-7.33 14.01 -7.66 13.02 -8 12 C-6.35 11.34 -4.7 10.68 -3 10 C-3 9.01 -3 8.02 -3 7 C-1.68 6.67 -0.36 6.34 1 6 C0.34 5.67 -0.32 5.34 -1 5 C-0.67 3.35 -0.34 1.7 0 0 Z " fill="#010203" transform="translate(276,515)"/>
<path d="M0 0 C1.98 0 3.96 0 6 0 C7.98 2.92 7.99 4.12 7.62 7.75 C7.42 8.82 7.21 9.89 7 11 C4.28 11.76 2.5 12.14 -0.25 11.38 C-2 10 -2 10 -2.88 7.56 C-3 5 -3 5 -1 2 C-0.67 1.34 -0.34 0.68 0 0 Z " fill="#555859" transform="translate(256,565)"/>
<path d="M0 0 C0.33 1.32 0.66 2.64 1 4 C0.34 4 -0.32 4 -1 4 C-1.66 5.98 -2.32 7.96 -3 10 C-3.66 10 -4.32 10 -5 10 C-4.04 12.33 -4.04 12.33 -1 14 C-1 14.66 -1 15.32 -1 16 C-7.27 17.07 -13.87 18.04 -20 16 C-19.67 15.34 -19.34 14.68 -19 14 C-18.34 14.33 -17.68 14.66 -17 15 C-17 14.34 -17 13.68 -17 13 C-15.02 12.34 -13.04 11.68 -11 11 C-11 11.66 -11 12.32 -11 13 C-10.01 13 -9.02 13 -8 13 C-7.34 11.02 -6.68 9.04 -6 7 C-5.01 7 -4.02 7 -3 7 C-3 5.02 -3 3.04 -3 1 C-2.01 0.67 -1.02 0.34 0 0 Z " fill="#393C3D" transform="translate(284,538)"/>
<path d="M0 0 C1.01 0.08 2.02 0.17 3.06 0.25 C5.63 4.1 4.9 5.84 4.06 10.25 C0.75 10.94 0.75 10.94 -2.94 11.25 C-4.88 9.81 -4.88 9.81 -5.94 8.25 C-3.78 0.32 -3.78 0.32 0 0 Z " fill="#A3A6A5" transform="translate(376.9375,508.75)"/>
<path d="M0 0 C1.01 0.08 2.02 0.17 3.06 0.25 C5.63 4.1 4.9 5.84 4.06 10.25 C0.75 10.94 0.75 10.94 -2.94 11.25 C-4.88 9.81 -4.88 9.81 -5.94 8.25 C-3.78 0.32 -3.78 0.32 0 0 Z " fill="#A5A8A8" transform="translate(348.9375,508.75)"/>
<path d="M0 0 C2.31 0.33 4.62 0.66 7 1 C8.16 5.05 7.84 7.22 6 11 C3.69 11 1.38 11 -1 11 C-2.19 8.31 -2.19 8.31 -3 5 C-1.62 2.12 -1.62 2.12 0 0 Z " fill="#A4A7A7" transform="translate(405,509)"/>
<path d="M0 0 C2.33 2.33 4.67 4.67 7 7 C10.43 7.92 10.43 7.92 14 8 C17.02 6.12 17.85 3.27 19 0 C20.65 0 22.3 0 24 0 C21.88 6.37 21.88 6.37 18.56 8.75 C16 10 16 10 13 10 C13 10.66 13 11.32 13 12 C12.34 12 11.68 12 11 12 C11 11.34 11 10.68 11 10 C9.67 9.85 9.67 9.85 8.31 9.69 C4.84 8.97 2.79 8.17 0 6 C-1.31 3.31 -1.31 3.31 -2 1 C-1.34 0.67 -0.68 0.34 0 0 Z " fill="#020304" transform="translate(256,538)"/>
<path d="M0 0 C5.44 1.49 5.44 1.49 11 3 C10.01 3.99 9.02 4.98 8 6 C7.29 8.1 7.29 8.1 7 10 C5.68 10.33 4.36 10.66 3 11 C3.33 11.99 3.66 12.98 4 14 C3.01 14.5 3.01 14.5 2 15 C1.34 13.68 0.68 12.36 0 11 C0.33 10.67 0.66 10.34 1 10 C0.34 9.67 -0.32 9.34 -1 9 C-1.41 6.68 -1.74 4.34 -2 2 C-1.34 2 -0.68 2 0 2 C0 1.34 0 0.68 0 0 Z " fill="#919495" transform="translate(251,528)"/>
<path d="M0 0 C6.93 0.59 6.93 0.59 9 1 C10 3 10 3 9 6.56 C8.34 7.7 7.68 8.83 7 10 C3.31 10.94 3.31 10.94 0 11 C0 7.37 0 3.74 0 0 Z " fill="#A1A5A5" transform="translate(333,509)"/>
<path d="M0 0 C1.48 0.11 2.96 0.24 4.44 0.38 C5.26 0.44 6.08 0.51 6.93 0.59 C7.96 0.79 7.96 0.79 9 1 C10 3 10 3 8.94 6.56 C7 10 7 10 3.88 11 C2.93 11 1.98 11 1 11 C0 10 0 10 -0.1 7.71 C-0.09 6.8 -0.07 5.88 -0.06 4.94 C-0.05 4.02 -0.04 3.1 -0.04 2.15 C-0.02 1.44 -0.01 0.73 0 0 Z " fill="#A3A6A6" transform="translate(361,509)"/>
<path d="M0 0 C2.03 0.26 4.07 0.52 6.09 0.84 C8.09 1.17 8.09 1.17 10 0 C12.62 0.94 12.62 0.94 15 2 C15 2.99 15 3.98 15 5 C15.66 5 16.32 5 17 5 C16.67 5.99 16.34 6.98 16 8 C15.24 7.17 14.47 6.35 13.69 5.5 C11.25 2.66 11.25 2.66 8 3 C8 4.32 8 5.64 8 7 C8.99 7.33 9.98 7.66 11 8 C8 9 8 9 5 8 C3.98 8.28 3.98 8.28 2.94 8.56 C1.98 8.78 1.98 8.78 1 9 C-1 7 -1 7 -1.19 3.94 C-1 1 -1 1 0 0 Z " fill="#939798" transform="translate(416,539)"/>
<path d="M0 0 C1.88 1.88 1.63 4.57 2.01 7.09 C2 9 2 9 0 11 C-1.32 11 -2.64 11 -4 11 C-6 9 -6 9 -8 6 C-7.25 2.88 -7.25 2.88 -6 0 C-3.5 -1.25 -2.6 -0.84 0 0 Z " fill="#D8DBDB" transform="translate(299,725)"/>
<path d="M0 0 C2 0 2 0 4.62 2.5 C5.41 3.33 6.19 4.15 7 5 C7.66 3.35 8.32 1.7 9 0 C9.66 0.33 10.32 0.66 11 1 C11 4.3 11 7.6 11 11 C9.68 10.34 8.36 9.68 7 9 C7 9.66 7 10.32 7 11 C5.68 10.34 4.36 9.68 3 9 C2.67 9.66 2.34 10.32 2 11 C1.34 11 0.68 11 0 11 C-1.49 8.01 -1.12 5.29 -1 2 C-0.67 1.34 -0.34 0.68 0 0 Z " fill="#585B5C" transform="translate(267,565)"/>
<path d="M0 0 C0.66 0 1.32 0 2 0 C2.33 1.65 2.66 3.3 3 5 C4.65 4.34 6.3 3.68 8 3 C9.32 5.64 10.64 8.28 12 11 C10.21 11.05 8.42 11.09 6.62 11.12 C5.63 11.15 4.63 11.17 3.6 11.2 C1 11 1 11 -1 9 C-0.98 6.84 -0.98 6.84 -0.62 4.38 C-0.51 3.56 -0.4 2.74 -0.29 1.9 C-0.19 1.27 -0.1 0.65 0 0 Z " fill="#060708" transform="translate(253,519)"/>
<path d="M0 0 C0 0.66 0 1.32 0 2 C0.66 2 1.32 2 2 2 C2 2.66 2 3.32 2 4 C-0.97 3.67 -3.94 3.34 -7 3 C-6.67 3.66 -6.34 4.32 -6 5 C-4.87 5.27 -3.73 5.54 -2.56 5.81 C1 7 1 7 2.56 9.44 C3 12 3 12 1 15 C-6.15 15.57 -6.15 15.57 -10 13 C-10 12.34 -10 11.68 -10 11 C-7.52 11.5 -7.52 11.5 -5 12 C-5 12.66 -5 13.32 -5 14 C-3.02 13.67 -1.04 13.34 1 13 C0.5 12.55 0.01 12.09 -0.5 11.62 C-2 10 -2 10 -2 8 C-2.76 8.04 -3.53 8.08 -4.31 8.12 C-7 8 -7 8 -10 6 C-9.62 3.56 -9.62 3.56 -9 1 C-6.04 -0.48 -3.26 -0.06 0 0 Z " fill="#575A5B" transform="translate(316,722)"/>
<path d="M0 0 C2.88 -0.12 2.88 -0.12 6 0 C8 2 8 2 8.31 5.5 C8.16 7.23 8.16 7.23 8 9 C5 11 5 11 0 11 C0 7.37 0 3.74 0 0 Z " fill="#A5A8A8" transform="translate(420,509)"/>
<path d="M0 0 C0.66 0.33 1.32 0.66 2 1 C2.62 3.56 2.62 3.56 3 6 C2.34 6 1.68 6 1 6 C1.68 6.31 2.36 6.62 3.06 6.94 C5 9 5 9 5.15 11.1 C4.76 15.48 4.48 18.06 1 21 C-2.46 19.02 -2.46 19.02 -6 17 C-4 15 -4 15 -2 14.69 C-1.01 14.35 -1.01 14.35 0 14 C1.3 11.51 1.3 11.51 2 9 C0.68 8.34 -0.64 7.68 -2 7 C-1.34 4.69 -0.68 2.38 0 0 Z " fill="#000102" transform="translate(266,501)"/>
<path d="M0 0 C0.58 0.37 1.15 0.74 1.75 1.12 C2.49 1.41 3.24 1.7 4 2 C5.34 1.35 6.67 0.68 8 0 C10.75 0.38 10.75 0.38 13 1 C12.01 2.49 12.01 2.49 11 4 C10.01 3.67 9.02 3.34 8 3 C7.67 4.65 7.34 6.3 7 8 C0.38 9.25 0.38 9.25 -3 7 C-3 3 -3 3 -1.5 1.25 C-1 0.84 -0.51 0.42 0 0 Z " fill="#A1A5A6" transform="translate(300,539)"/>
<path d="M0 0 C0.99 0.5 0.99 0.5 2 1 C2 3.97 2 6.94 2 10 C2.66 10 3.32 10 4 10 C4 10.99 4 11.98 4 13 C5.32 13 6.64 13 8 13 C8 12.34 8 11.68 8 11 C8.66 11 9.32 11 10 11 C10 7.7 10 4.4 10 1 C10.99 1 11.98 1 13 1 C13 5.29 13 9.58 13 14 C3.38 14.25 3.38 14.25 0 12 C-0.29 9.18 -0.29 9.18 -0.19 5.88 C-0.16 4.78 -0.13 3.68 -0.11 2.55 C-0.07 1.71 -0.04 0.87 0 0 Z " fill="#56595A" transform="translate(272,723)"/>
<path d="M0 0 C4.49 0 8.6 0.05 13 1 C14 4 14 4 13 7 C11.02 7 9.04 7 7 7 C7 6.34 7 5.68 7 5 C6.34 5 5.68 5 5 5 C5 5.66 5 6.32 5 7 C3.35 7 1.7 7 0 7 C0.99 6.01 1.98 5.02 3 4 C2.67 3.67 2.34 3.34 2 3 C2 3.66 2 4.32 2 5 C1.34 5 0.68 5 0 5 C0 3.35 0 1.7 0 0 Z " fill="#9EA2A3" transform="translate(406,527)"/>
<path d="M0 0 C2.01 0.26 4.01 0.6 6 1 C7.32 1 8.64 1 10 1 C10 1.66 10 2.32 10 3 C9.34 3 8.68 3 8 3 C8 4.65 8 6.3 8 8 C1.38 9.25 1.38 9.25 -2 7 C-2.31 4.5 -2.31 4.5 -2 2 C-1.34 1.34 -0.68 0.68 0 0 Z " fill="#9EA1A2" transform="translate(398,539)"/>
<path d="M0 0 C0.33 1.65 0.66 3.3 1 5 C1 3.68 1 2.36 1 1 C2.32 1.33 3.64 1.66 5 2 C5 2.99 5 3.98 5 5 C4.34 5 3.68 5 3 5 C2.67 5.99 2.34 6.98 2 8 C0.68 7.67 -0.64 7.34 -2 7 C-2 6.34 -2 5.68 -2 5 C-2.99 5 -3.98 5 -5 5 C-5.66 4.34 -6.32 3.68 -7 3 C-7.66 2.67 -8.32 2.34 -9 2 C-9 2.66 -9 3.32 -9 4 C-8.01 4.33 -7.02 4.66 -6 5 C-7.32 5.33 -8.64 5.66 -10 6 C-10 4.35 -10 2.7 -10 1 C-6.53 -0.16 -3.64 -0.07 0 0 Z " fill="#949899" transform="translate(329,526)"/>
<path d="M0 0 C1.98 0 3.96 0 6 0 C5.34 2.31 4.68 4.62 4 7 C-2.62 7.25 -2.62 7.25 -6 5 C-6.33 5.66 -6.66 6.32 -7 7 C-7 5.35 -7 3.7 -7 2 C-5.68 2 -4.36 2 -3 2 C-2.67 3.32 -2.34 4.64 -2 6 C-1.34 4.02 -0.68 2.04 0 0 Z " fill="#9A9E9F" transform="translate(389,527)"/>
<path d="M0 0 C-0.33 1.98 -0.66 3.96 -1 6 C-0.34 6 0.32 6 1 6 C1.33 4.35 1.66 2.7 2 1 C3.32 1.66 4.64 2.32 6 3 C6 3.99 6 4.98 6 6 C6.66 6.33 7.32 6.66 8 7 C7.01 7 6.02 7 5 7 C5 6.34 5 5.68 5 5 C4.01 5.66 3.02 6.32 2 7 C0.68 7 -0.64 7 -2 7 C-2 6.34 -2 5.68 -2 5 C-2.66 5 -3.32 5 -4 5 C-4.33 5.66 -4.66 6.32 -5 7 C-5.33 5.35 -5.66 3.7 -6 2 C-6.99 1.67 -7.98 1.34 -9 1 C-6.04 -0.48 -3.26 -0.06 0 0 Z " fill="#979B9C" transform="translate(322,540)"/>
<path d="M0 0 C6.15 -0.1 6.15 -0.1 8 0 C9 1 9 1 9.06 4.06 C9.04 5.03 9.02 6 9 7 C7.02 7 5.04 7 3 7 C3 6.34 3 5.68 3 5 C2.01 5.33 1.02 5.66 0 6 C-1.25 3.51 -0.78 2.59 0 0 Z " fill="#AEB2B2" transform="translate(335,527)"/>
<path d="M0 0 C1.32 0.33 2.64 0.66 4 1 C4.33 2.65 4.66 4.3 5 6 C4.01 6.66 3.02 7.32 2 8 C1.67 8.66 1.34 9.32 1 10 C1.33 10.66 1.66 11.32 2 12 C1.34 12.66 0.68 13.32 0 14 C-2.12 13.62 -2.12 13.62 -4 13 C-4 11.35 -4 9.7 -4 8 C-3.01 8 -2.02 8 -1 8 C-1 7.01 -1 6.02 -1 5 C-0.69 3.33 -0.36 1.66 0 0 Z " fill="#363839" transform="translate(250,510)"/>
<path d="M0 0 C2.81 -0.31 2.81 -0.31 6 0 C8.6 2.86 8.98 4.79 9.38 8.62 C9 12 9 12 7.88 13.94 C5.21 15.44 3 15.2 0 15 C-0.33 14.34 -0.66 13.68 -1 13 C0.98 13 2.96 13 5 13 C6.53 9.93 5.55 7.3 5 4 C4.07 3.78 4.07 3.78 3.12 3.56 C1 3 1 3 -1 2 C-0.67 1.34 -0.34 0.68 0 0 Z " fill="#555859" transform="translate(294,722)"/>
<path d="M0 0 C3.27 0 5.85 0.3 9 1 C10 4 10 4 9 7 C3.38 7.25 3.38 7.25 0 5 C-0.19 2.38 -0.19 2.38 0 0 Z " fill="#AFB3B3" transform="translate(429,527)"/>
<path d="M0 0 C0.33 0.66 0.66 1.32 1 2 C1.66 2 2.32 2 3 2 C6.31 6 6.79 10.5 7.57 15.48 C7.95 18.11 7.95 18.11 9 21 C8.34 21.66 7.68 22.32 7 23 C6.52 21.42 6.04 19.83 5.56 18.25 C5.16 16.93 5.16 16.93 4.75 15.58 C4.3 14.04 3.89 12.5 3.53 10.94 C2.92 8.7 2 6.81 0.94 4.75 C0.58 4.04 0.21 3.34 -0.16 2.61 C-0.58 1.81 -0.58 1.81 -1 1 C-0.67 0.67 -0.34 0.34 0 0 Z " fill="#BABDBD" transform="translate(276,509)"/>
<path d="M0 0 C0.99 0.33 1.98 0.66 3 1 C2.94 3.31 2.94 3.31 2 6 C-1.38 7.88 -1.38 7.88 -5 9 C-5.99 8.67 -6.98 8.34 -8 8 C-6.5 3.8 -3.83 2.11 0 0 Z " fill="#DCDFDE" transform="translate(265,509)"/>
<path d="M0 0 C0.99 0 1.98 0 3 0 C4.39 1.53 4.39 1.53 5.69 3.5 C6.12 4.15 6.56 4.8 7.01 5.47 C7.34 5.97 7.66 6.48 8 7 C8.33 5.02 8.66 3.04 9 1 C9.33 1 9.66 1 10 1 C10 4.3 10 7.6 10 11 C6.35 9.75 5.22 9.33 3 6 C2.67 7.65 2.34 9.3 2 11 C1.67 11 1.34 11 1 11 C0.67 7.37 0.34 3.74 0 0 Z " fill="#555859" transform="translate(241,565)"/>
<path d="M0 0 C1.32 0.33 2.64 0.66 4 1 C3.69 2.88 3.69 2.88 3 5 C2.01 5.66 1.02 6.32 0 7 C-1.19 9.05 -1.19 9.05 -2 11 C-2.56 10.81 -3.11 10.63 -3.69 10.44 C-6.4 9.92 -8.34 10.34 -11 11 C-10.34 10.67 -9.68 10.34 -9 10 C-9 9.34 -9 8.68 -9 8 C-7.55 7.57 -7.55 7.57 -6.06 7.12 C-2.89 6.36 -2.89 6.36 -2 4 C-1.33 2.67 -0.67 1.33 0 0 Z " fill="#CED1D1" transform="translate(278,540)"/>
<path d="M0 0 C2.97 0.5 2.97 0.5 6 1 C5.01 1.66 4.02 2.32 3 3 C3 3.66 3 4.32 3 5 C3.66 5 4.32 5 5 5 C5 5.66 5 6.32 5 7 C4.01 7.5 4.01 7.5 3 8 C3 8.66 3 9.32 3 10 C3.66 10 4.32 10 5 10 C5 10.66 5 11.32 5 12 C3.02 11.34 1.04 10.68 -1 10 C-1.12 2.25 -1.12 2.25 0 0 Z " fill="#555859" transform="translate(282,565)"/>
<path d="M0 0 C0.99 0.33 1.98 0.66 3 1 C2.03 1.6 1.06 2.2 0.06 2.81 C-3.23 4.71 -3.23 4.71 -4 8 C-3.01 8.33 -2.02 8.66 -1 9 C-2.25 12.65 -2.67 13.78 -6 16 C-7 15 -7 15 -7.38 11.31 C-7.35 7.94 -6.78 6.17 -4.62 3.56 C-2 1 -2 1 0 0 Z " fill="#7B7E7F" transform="translate(262,509)"/>
<path d="M0 0 C0.99 0.33 1.98 0.66 3 1 C3.99 0.67 4.98 0.34 6 0 C6 2.31 6 4.62 6 7 C8.48 7.99 8.48 7.99 11 9 C11 9.33 11 9.66 11 10 C8.75 10.31 8.75 10.31 6 10 C3.69 7.5 3.69 7.5 2 5 C1.34 6.32 0.68 7.64 0 9 C-0.66 8.01 -1.32 7.02 -2 6 C-2.99 6 -3.98 6 -5 6 C-5.33 5.01 -5.66 4.02 -6 3 C-4.35 3 -2.7 3 -1 3 C-0.67 2.01 -0.34 1.02 0 0 Z " fill="#6B6E6F" transform="translate(489,510)"/>
<path d="M0 0 C1.88 0.19 1.88 0.19 4 1 C5.52 3.68 6.12 5.25 5.62 8.31 C5.42 8.87 5.21 9.43 5 10 C5.99 10.33 6.98 10.66 8 11 C4 11 4 11 1 10 C-0.61 6.79 -0.06 3.56 0 0 Z " fill="#BFC2C2" transform="translate(270,510)"/>
<path d="M0 0 C2.97 0.33 5.94 0.66 9 1 C9 3.64 9 6.28 9 9 C7.68 8.01 6.36 7.02 5 6 C6 4 6 4 7 3 C6.01 3 5.02 3 4 3 C4 4.98 4 6.96 4 9 C3.34 8.34 2.68 7.68 2 7 C1.67 7.33 1.34 7.66 1 8 C-0.06 6.25 -0.06 6.25 -1 4 C-0.67 2.68 -0.34 1.36 0 0 Z " fill="#9CA0A1" transform="translate(441,539)"/>
<path d="M0 0 C3.3 0.66 6.6 1.32 10 2 C9.67 3.32 9.34 4.64 9 6 C7.02 6.33 5.04 6.66 3 7 C2.9 6.36 2.79 5.72 2.69 5.06 C2.46 4.38 2.23 3.7 2 3 C1.01 2.67 0.02 2.34 -1 2 C-0.67 1.34 -0.34 0.68 0 0 Z " fill="#9EA2A3" transform="translate(374,539)"/>
<path d="M0 0 C3 0 3 0 5 1 C5 3.31 5 5.62 5 8 C4.34 7.34 3.68 6.68 3 6 C2.34 6.66 1.68 7.32 1 8 C-1.62 7.62 -1.62 7.62 -4 7 C-4.33 5.68 -4.66 4.36 -5 3 C-4.34 3 -3.68 3 -3 3 C-2.67 2.34 -2.34 1.68 -2 1 C-2 2.98 -2 4.96 -2 7 C-1.34 6.34 -0.68 5.68 0 5 C-0.41 2.95 -0.41 2.95 -1 1 C-0.67 0.67 -0.34 0.34 0 0 Z " fill="#999D9E" transform="translate(446,526)"/>
<path d="M0 0 C-0.66 2.31 -1.32 4.62 -2 7 C-3.65 6.67 -5.3 6.34 -7 6 C-7.33 4.35 -7.66 2.7 -8 1 C-5.29 -0.35 -2.99 -0.07 0 0 Z " fill="#B0B4B4" transform="translate(355,527)"/>
<path d="M0 0 C1.65 0 3.3 0 5 0 C5 1.32 5 2.64 5 4 C5.99 4.33 6.98 4.66 8 5 C7.25 6.94 7.25 6.94 6 9 C4 9.81 4 9.81 2 10 C1.34 9.67 0.68 9.34 0 9 C0.66 6.36 1.32 3.72 2 1 C1.34 0.67 0.68 0.34 0 0 Z " fill="#757879" transform="translate(278,530)"/>
<path d="M0 0 C0.53 0.35 1.06 0.7 1.61 1.06 C2.32 1.51 3.02 1.97 3.75 2.44 C4.45 2.89 5.14 3.34 5.86 3.81 C7.93 4.96 9.69 5.55 12 6 C11.67 6.99 11.34 7.98 11 9 C2.75 7.69 2.75 7.69 -0.12 5.06 C-1 3 -1 3 0 0 Z " fill="#C7CACA" transform="translate(255,542)"/>
<path d="M0 0 C0.99 0.33 1.98 0.66 3 1 C3.69 3.31 3.69 3.31 4 6 C2.56 7.81 2.56 7.81 1 9 C0.01 8.67 -0.98 8.34 -2 8 C-3.18 5.06 -3.03 4.1 -2 1 C-1.34 0.67 -0.68 0.34 0 0 Z " fill="#B1B4B5" transform="translate(358,526)"/>
<path d="M0 0 C0.99 0.33 1.98 0.66 3 1 C3.95 3.07 3.95 3.07 4.69 5.56 C5.06 6.8 5.06 6.8 5.45 8.07 C5.63 8.7 5.81 9.34 6 10 C5.34 9.67 4.68 9.34 4 9 C4 8.34 4 7.68 4 7 C2.82 7.71 2.82 7.71 1.62 8.44 C0.11 9.34 -1.42 10.21 -3 11 C-2.53 6.94 -2.12 3.53 0 0 Z " fill="#727576" transform="translate(450,509)"/>
<path d="M0 0 C5.54 -0.37 5.54 -0.37 7.88 1.5 C8.25 2 8.62 2.49 9 3 C7.51 5.48 7.51 5.48 6 8 C5.01 7.67 4.02 7.34 3 7 C1.31 3.44 1.31 3.44 0 0 Z " fill="#DADDDC" transform="translate(272,530)"/>
<path d="M0 0 C2.06 0.44 2.06 0.44 4 1 C4.62 3.38 4.62 3.38 5 6 C4.34 6.66 3.68 7.32 3 8 C0.88 7.62 0.88 7.62 -1 7 C-1.04 5 -1.04 3 -1 1 C-0.67 0.67 -0.34 0.34 0 0 Z " fill="#B8BBBB" transform="translate(478,540)"/>
<path d="M0 0 C2.06 1.75 2.06 1.75 4 4 C3.75 6.25 3.75 6.25 3 8 C1.68 8.33 0.36 8.66 -1 9 C-2.19 7.31 -2.19 7.31 -3 5 C-1.62 2.25 -1.62 2.25 0 0 Z " fill="#A6A9AA" transform="translate(347,539)"/>
<path d="M0 0 C0.66 0.66 1.32 1.32 2 2 C4.57 2.65 4.57 2.65 7 3 C5.33 5.03 4.49 5.93 1.84 6.33 C1.07 6.3 0.3 6.28 -0.5 6.25 C-1.66 6.23 -1.66 6.23 -2.84 6.2 C-5 6 -5 6 -8 5 C-7.67 4.34 -7.34 3.68 -7 3 C-6.34 3.33 -5.68 3.66 -5 4 C-5 3.34 -5 2.68 -5 2 C-3.35 1.34 -1.7 0.68 0 0 Z " fill="#08090A" transform="translate(272,549)"/>
<path d="M0 0 C0.99 0.33 1.98 0.66 3 1 C4.12 5.75 4.12 5.75 3 8 C1.35 7.67 -0.3 7.34 -2 7 C-2 5.02 -2 3.04 -2 1 C-1.34 0.67 -0.68 0.34 0 0 Z " fill="#B2B6B7" transform="translate(398,526)"/>
<path d="M0 0 C2.89 0.4 3.82 0.79 5.75 3.06 C6.37 4.02 6.37 4.02 7 5 C5.68 5.33 4.36 5.66 3 6 C3.33 7.32 3.66 8.64 4 10 C2.68 9.67 1.36 9.34 0 9 C0 8.01 0 7.02 0 6 C-0.99 6 -1.98 6 -3 6 C-2.67 5.34 -2.34 4.68 -2 4 C-1.34 4.33 -0.68 4.66 0 5 C0 3.35 0 1.7 0 0 Z " fill="#353738" transform="translate(274,505)"/>
<path d="M0 0 C2.64 0.33 5.28 0.66 8 1 C7.29 1.62 7.29 1.62 6.56 2.25 C4.84 4.18 4.43 5.48 4 8 C2.68 7.34 1.36 6.68 0 6 C0 4.02 0 2.04 0 0 Z " fill="#DCDFDE" transform="translate(254,530)"/>
<path d="M0 0 C1.49 0.99 1.49 0.99 3 2 C3.33 1.34 3.66 0.68 4 0 C5.32 0 6.64 0 8 0 C8 2.31 8 4.62 8 7 C7.34 6.67 6.68 6.34 6 6 C3.93 5.85 3.93 5.85 2 7 C0 4 0 4 0 0 Z " fill="#9DA1A2" transform="translate(495,540)"/>
<path d="M0 0 C0.99 0.5 0.99 0.5 2 1 C2 2.98 2 4.96 2 7 C3.65 6.67 5.3 6.34 7 6 C6.67 4.35 6.34 2.7 6 1 C6.99 1.33 7.98 1.66 9 2 C8.67 2.33 8.34 2.66 8 3 C8.66 3.33 9.32 3.66 10 4 C10 5.32 10 6.64 10 8 C6.49 9.17 4.56 8.85 1 8 C-0.35 5.29 -0.07 2.99 0 0 Z " fill="#999D9E" transform="translate(365,526)"/>
<path d="M0 0 C2.12 0.38 2.12 0.38 4 1 C4 3.31 4 5.62 4 8 C2.35 7.67 0.7 7.34 -1 7 C-1.62 4.62 -1.62 4.62 -2 2 C-1.34 1.34 -0.68 0.68 0 0 Z " fill="#A3A7A8" transform="translate(424,526)"/>
<path d="M0 0 C0.76 0.21 1.53 0.41 2.31 0.62 C1.98 1.62 1.65 2.61 1.31 3.62 C0.65 3.62 -0.01 3.62 -0.69 3.62 C-0.69 4.28 -0.69 4.95 -0.69 5.62 C-2.01 5.62 -3.33 5.62 -4.69 5.62 C-5.02 4.3 -5.35 2.99 -5.69 1.62 C-2.69 -0.38 -2.69 -0.38 0 0 Z " fill="#D8DBDA" transform="translate(346.6875,730.375)"/>
<path d="M0 0 C0.99 0.5 0.99 0.5 2 1 C2 3.97 2 6.94 2 10 C2.66 10 3.32 10 4 10 C4 10.99 4 11.98 4 13 C4.99 13.33 5.98 13.66 7 14 C2.25 13.12 2.25 13.12 0 12 C0 8.04 0 4.08 0 0 Z " fill="#555859" transform="translate(272,723)"/>
<path d="M0 0 C1.98 0 3.96 0 6 0 C6 2.64 6 5.28 6 8 C5.34 7.67 4.68 7.34 4 7 C4 6.34 4 5.68 4 5 C3.01 5 2.02 5 1 5 C0.67 3.35 0.34 1.7 0 0 Z " fill="#989C9C" transform="translate(354,540)"/>
<path d="M0 0 C2.31 0 4.62 0 7 0 C7 0.33 7 0.66 7 1 C5.35 1 3.7 1 2 1 C2.67 4.11 2.67 4.11 5.06 5.19 C5.7 5.46 6.34 5.72 7 6 C5.35 6 3.7 6 2 6 C2 7.32 2 8.64 2 10 C3.65 10 5.3 10 7 10 C7 10.33 7 10.66 7 11 C5.02 11 3.04 11 1 11 C0.31 7.28 -0.11 3.79 0 0 Z " fill="#555859" transform="translate(469,509)"/>
<path d="M0 0 C2.31 0 4.62 0 7 0 C7 0.33 7 0.66 7 1 C5.35 1 3.7 1 2 1 C2.67 4.11 2.67 4.11 5.06 5.19 C5.7 5.46 6.34 5.72 7 6 C5.35 6 3.7 6 2 6 C2 7.32 2 8.64 2 10 C3.65 10 5.3 10 7 10 C7 10.33 7 10.66 7 11 C5.02 11 3.04 11 1 11 C0.31 7.28 -0.11 3.79 0 0 Z " fill="#555859" transform="translate(430,509)"/>
<path d="M0 0 C1.68 0.29 3.34 0.62 5 1 C6 4 6 4 5 7 C3.12 6.81 3.12 6.81 1 6 C-0.25 3.44 -0.25 3.44 -1 1 C-0.67 0.67 -0.34 0.34 0 0 Z " fill="#BABDBD" transform="translate(414,527)"/>
<path d="M0 0 C0.66 0 1.32 0 2 0 C2.66 2.64 3.32 5.28 4 8 C2.02 7.34 0.04 6.68 -2 6 C-1.12 1.12 -1.12 1.12 0 0 Z " fill="#DCDFDE" transform="translate(258,567)"/>
<path d="M0 0 C1.89 0.21 1.89 0.21 4 1 C5.05 3.07 5.05 3.07 5.75 5.56 C5.99 6.39 6.23 7.22 6.48 8.07 C6.65 8.7 6.82 9.34 7 10 C5.68 10 4.36 10 3 10 C1.87 6.69 0.79 3.41 0 0 Z " fill="#161819" transform="translate(279,510)"/>
<path d="M0 0 C2 1 2 1 3.19 3.38 C4 6 4 6 3 9 C1.68 9 0.36 9 -1 9 C-1.66 9.66 -2.32 10.32 -3 11 C-2.62 9.06 -2.62 9.06 -2 7 C-1.34 6.67 -0.68 6.34 0 6 C-0.66 6 -1.32 6 -2 6 C-1.34 4.02 -0.68 2.04 0 0 Z " fill="#66696A" transform="translate(325,508)"/>
<path d="M0 0 C-1.32 0.33 -2.64 0.66 -4 1 C-4 2.32 -4 3.64 -4 5 C-2.68 5.33 -1.36 5.66 0 6 C-1.32 6 -2.64 6 -4 6 C-4 6.66 -4 7.32 -4 8 C-4.99 8 -5.98 8 -7 8 C-7 5.69 -7 3.38 -7 1 C-4.54 -0.23 -2.72 -0.07 0 0 Z " fill="#555859" transform="translate(302,509)"/>
<path d="M0 0 C1.5 1.31 1.5 1.31 3 3 C3 3.99 3 4.98 3 6 C2.01 6 1.02 6 0 6 C-0.33 6.99 -0.66 7.98 -1 9 C-3 6 -3 6 -3 3 C-2.34 3 -1.68 3 -1 3 C-0.67 2.01 -0.34 1.02 0 0 Z " fill="#535657" transform="translate(248,524)"/>
<path d="M0 0 C1.98 0 3.96 0 6 0 C5.34 2.31 4.68 4.62 4 7 C3.01 6.67 2.02 6.34 1 6 C0.67 4.02 0.34 2.04 0 0 Z " fill="#B8BCBC" transform="translate(389,527)"/>
<path d="M0 0 C0.66 0.66 1.32 1.32 2 2 C1.01 2.5 1.01 2.5 0 3 C-0.66 2.67 -1.32 2.34 -2 2 C-0.68 3.32 0.64 4.64 2 6 C1.67 6.99 1.34 7.98 1 9 C1 8.34 1 7.68 1 7 C0.01 7 -0.98 7 -2 7 C-2 8.65 -2 10.3 -2 12 C-2.33 12 -2.66 12 -3 12 C-4.12 4.38 -4.12 4.38 -3 1 C-2.01 0.67 -1.02 0.34 0 0 Z " fill="#555859" transform="translate(392,508)"/>
<path d="M0 0 C1.98 0.5 1.98 0.5 4 1 C4.33 2.65 4.66 4.3 5 6 C2 6 2 6 -1 5 C-0.67 3.35 -0.34 1.7 0 0 Z " fill="#535657" transform="translate(250,510)"/>
<path d="M0 0 C0 0.99 0 1.98 0 3 C-4.76 4.97 -7.96 5.01 -13 4 C-13 3.67 -13 3.34 -13 3 C-11.64 2.81 -11.64 2.81 -10.25 2.62 C-6.47 1.9 -3.83 0 0 0 Z " fill="#333637" transform="translate(267,550)"/>
<path d="M0 0 C1.32 0 2.64 0 4 0 C4.33 1.65 4.66 3.3 5 5 C3.12 5.62 3.12 5.62 1 6 C0.34 5.34 -0.32 4.68 -1 4 C-0.62 1.88 -0.62 1.88 0 0 Z " fill="#ADB0B1" transform="translate(416,542)"/>
<path d="M0 0 C1.21 0.03 1.21 0.03 2.44 0.06 C2.44 0.72 2.44 1.38 2.44 2.06 C3.76 1.73 5.08 1.4 6.44 1.06 C6.44 1.72 6.44 2.38 6.44 3.06 C3.47 3.06 0.5 3.06 -2.56 3.06 C-2.56 3.72 -2.56 4.38 -2.56 5.06 C-1.9 5.39 -1.24 5.72 -0.56 6.06 C-1.55 6.39 -2.54 6.72 -3.56 7.06 C-3.61 5.06 -3.6 3.06 -3.56 1.06 C-2.56 0.06 -2.56 0.06 0 0 Z " fill="#9DA1A2" transform="translate(364.5625,538.9375)"/>
<path d="M0 0 C0.66 0.33 1.32 0.66 2 1 C2.62 3.56 2.62 3.56 3 6 C2.34 6 1.68 6 1 6 C1.66 6.33 2.32 6.66 3 7 C3 7.66 3 8.32 3 9 C1.68 8.67 0.36 8.34 -1 8 C-1 5.16 -0.6 2.76 0 0 Z " fill="#232526" transform="translate(266,501)"/>
</svg>
