<svg width="24" height="25" viewBox="0 0 24 25" fill="none" xmlns="http://www.w3.org/2000/svg">
<path d="M18.7376 18.5H23V17.2692C23 16.5348 22.6632 15.8304 22.0637 15.3111C21.4642 14.7918 20.651 14.5 19.8032 14.5H17.672C17.0769 14.5 16.499 14.6437 16 14.909" stroke="#6E6E7B" stroke-linecap="round"/>
<path d="M5.2624 18.5H1V17.2692C1 16.5348 1.3368 15.8304 1.93632 15.3111C2.53584 14.7918 3.34895 14.5 4.1968 14.5H6.328C6.92305 14.5 7.501 14.6437 8 14.909" stroke="#6E6E7B" stroke-linecap="round"/>
<path d="M8 10C8 11.3807 6.88071 12.5 5.5 12.5C4.11929 12.5 3 11.3807 3 10C3 8.61929 4.11929 7.5 5.5 7.5C6.4249 7.5 7.2325 8.00226 7.66492 8.74891" stroke="#6E6E7B" stroke-linecap="round" stroke-linejoin="round"/>
<path d="M16 10C16 11.3807 17.1193 12.5 18.5 12.5C19.8807 12.5 21 11.3807 21 10C21 8.61929 19.8807 7.5 18.5 7.5C17.5751 7.5 16.7675 8.00226 16.3351 8.74891" stroke="#6E6E7B" stroke-linecap="round" stroke-linejoin="round"/>
<path d="M17.2758 16.1276C18.1908 16.9722 18.6964 18.1088 18.6964 19.2847V21H11.9968H5.29712V19.2847C5.29712 18.1088 5.80278 16.9722 6.71781 16.1276C7.63418 15.2817 8.88503 14.8003 10.1969 14.8003H13.7967C15.1085 14.8003 16.3594 15.2817 17.2758 16.1276Z" stroke="#6E6E7B" stroke-linecap="round" stroke-linejoin="round"/>
<path d="M16.3061 8.29978C16.3061 10.6745 14.381 12.5996 12.0063 12.5996C9.63162 12.5996 7.70654 10.6745 7.70654 8.29978C7.70654 5.92508 9.63162 4 12.0063 4C14.381 4 16.3061 5.92508 16.3061 8.29978Z" stroke="#6E6E7B" stroke-linecap="round" stroke-linejoin="round"/>
</svg>
