<svg width="195" height="165" viewBox="0 0 195 165" fill="none" xmlns="http://www.w3.org/2000/svg">
<path d="M117.431 85.0764L139.062 30.3553L158.529 95.2688L117.431 97.951V85.0764Z" fill="#BACBD6"/>
<path d="M139.062 30.3553L139.541 30.2116L138.597 30.1715L139.062 30.3553ZM117.431 85.0764L116.966 84.8926L116.931 84.9812V85.0764H117.431ZM117.431 97.951H116.931V98.4847L117.464 98.4499L117.431 97.951ZM158.529 95.2688L158.562 95.7677L159.189 95.7268L159.008 95.1251L158.529 95.2688ZM138.597 30.1715L116.966 84.8926L117.896 85.2602L139.527 30.5391L138.597 30.1715ZM116.931 85.0764V97.951H117.931V85.0764H116.931ZM117.464 98.4499L158.562 95.7677L158.497 94.7698L117.399 97.452L117.464 98.4499ZM159.008 95.1251L139.541 30.2116L138.583 30.4989L158.051 95.4124L159.008 95.1251Z" fill="#22223B"/>
<path d="M118.513 81.7274L45.0497 84.7881L49.8356 109.847L118.513 106.062V81.7274Z" fill="#BACBD6" stroke="#22223B"/>
<path d="M31.4447 36.8449H21.7108L39.5564 102.278L49.8306 101.737L31.4447 36.8449Z" fill="#E5EAED"/>
<path d="M158.524 95.2476L139.057 29.815H147.169L166.636 94.7069L158.524 95.2476Z" fill="#E5EAED"/>
<path d="M21.7108 36.8449V36.3449L21.2284 36.9765L21.7108 36.8449ZM31.4447 36.8449L31.9258 36.7086L31.4447 36.3449V36.8449ZM49.8306 101.737L49.8569 102.236L50.4824 102.203L50.3116 101.601L49.8306 101.737ZM39.5564 102.278L39.0741 102.409L39.5827 102.777L39.5564 102.278ZM139.057 29.815V29.315L138.578 29.9576L139.057 29.815ZM158.524 95.2476L158.045 95.3902L158.558 95.7465L158.524 95.2476ZM166.636 94.7069L166.669 95.2057L167.115 94.5632L166.636 94.7069ZM147.169 29.815L147.648 29.6713L147.169 29.315V29.815ZM21.7108 37.3449H31.4447V36.3449H21.7108V37.3449ZM30.9637 36.9812L49.3495 101.873L50.3116 101.601L31.9258 36.7086L30.9637 36.9812ZM49.8043 101.238L39.5302 101.778L39.5827 102.777L49.8569 102.236L49.8043 101.238ZM40.0388 102.146L22.1932 36.7134L21.2284 36.9765L39.0741 102.409L40.0388 102.146ZM138.578 29.9576L158.045 95.3902L159.004 95.105L139.536 29.6724L138.578 29.9576ZM158.558 95.7465L166.669 95.2057L166.603 94.208L158.491 94.7487L158.558 95.7465ZM167.115 94.5632L147.648 29.6713L146.69 29.9587L166.157 94.8505L167.115 94.5632ZM147.169 29.315H139.057V30.315H147.169V29.315Z" fill="#22223B"/>
<path d="M141.22 37.3854L32.5261 40.63L36.3115 53.6084L143.924 47.1192L141.22 37.3854Z" fill="#EEF2F5" stroke="#22223B"/>
<path d="M143.378 44.4155L34.684 48.2009L36.8474 55.2309L145.541 51.9863L143.378 44.4155Z" fill="#E5EAED" stroke="#22223B"/>
<path d="M87.5766 81.8255L86.7832 81.7047C86.7812 81.8265 86.7679 82.1043 86.7312 82.2413C86.6945 82.3782 85.5458 83.6975 84.9761 84.34L73.4882 100.162C72.0066 102.61 68.9418 107.679 68.5345 108.377C68.0254 109.25 67.5605 111.327 67.3417 112.829C67.1668 114.03 64.9292 122.061 63.8323 125.926C62.8062 129.413 61.8797 130.816 61.7253 131.05C61.5709 131.284 61.1535 131.814 60.6735 132.236C61.21 132.288 63.1241 130.966 63.7417 130.031C64.3594 129.095 65.1807 125.003 65.4789 123.89C66.0109 122.932 67.7956 115.244 68.0081 114.108C68.2207 112.972 69.1092 109.999 69.9394 107.928C70.7697 105.857 72.4453 103.37 75.7737 98.4811C78.3529 94.6764 86.8381 83.5544 87.5643 82.5562C87.6927 82.0769 87.626 81.8694 87.5766 81.8255Z" fill="#BACBD6" stroke="#22223B"/>
<path d="M91.4701 73.4975L88.9825 77.6464L89.2644 78.1347L86.7861 81.7357C86.903 81.8129 87.0185 82.1007 86.5453 82.6343C85.9538 83.3013 71.4898 101.852 69.103 107.679C66.7163 113.506 63.5168 133.149 59.9225 132.186C58.0481 131.821 54.3963 130.32 54.7835 127.231C55.4071 125.931 56.0972 123.869 56.4068 122.713C56.7853 121.301 60.2027 98.2773 75.0653 82.8603C75.4369 79.933 75.2926 78.9312 73.1128 76.2834C73.2504 75.7699 73.7516 74.721 74.6557 74.633C75.7858 74.5231 79.2057 78.1911 80.8862 76.0273C81.95 74.111 82.3871 73.6778 82.4727 73.7007L88.9825 77.6464L84.6457 74.8333L87.9839 68.023C88.0068 67.9375 88.1948 67.7494 88.7634 67.6816C88.3157 69.763 90.3813 72.4261 91.4701 73.4975Z" fill="#EEF2F5"/>
<path d="M88.9825 77.6464L91.4701 73.4975C90.3813 72.4261 88.3157 69.763 88.7634 67.6816C88.1948 67.7494 88.0068 67.9375 87.9839 68.023L84.6457 74.8333L88.9825 77.6464ZM88.9825 77.6464L89.2644 78.1347L86.7861 81.7357C86.903 81.8129 87.0185 82.1007 86.5453 82.6343C85.9538 83.3013 71.4898 101.852 69.103 107.679C66.7163 113.506 63.5168 133.149 59.9225 132.186C58.0481 131.821 54.3963 130.32 54.7835 127.231C55.4071 125.931 56.0972 123.869 56.4068 122.713C56.7853 121.301 60.2027 98.2773 75.0653 82.8603C75.4369 79.933 75.2926 78.9312 73.1128 76.2834C73.2504 75.7699 73.7516 74.721 74.6557 74.633C75.7858 74.5231 79.2057 78.1911 80.8862 76.0273C81.95 74.111 82.3871 73.6778 82.4727 73.7007L88.9825 77.6464Z" stroke="#22223B"/>
<path d="M73.9692 75.1363L84.5248 81.9546C79.2465 88.4744 68.2653 102.996 66.5666 108.925C64.4432 116.336 62.1909 131.417 59.6646 132.116" stroke="#22223B"/>
<path d="M88.9836 77.6146L91.3519 73.5699L91.9909 73.9246L89.7999 77.6499L90.0674 78.3638L87.5799 81.826L86.7865 81.7052L89.297 78.1573L88.9836 77.6146Z" fill="#BACBD6"/>
<path d="M88.9836 77.6146L91.3519 73.5699L91.9909 73.9246L89.7999 77.6499M88.9836 77.6146L89.297 78.1573M88.9836 77.6146L89.7999 77.6499M89.297 78.1573L86.7866 81.7052L87.5799 81.826L90.0674 78.3638M89.297 78.1573L90.0674 78.3638M90.0674 78.3638L89.7999 77.6499" stroke="#22223B"/>
<path d="M95.0695 74.4597L95.1493 79.2965L94.661 79.5784L95.0068 83.9362C94.867 83.9446 94.623 84.1361 94.766 84.8348C94.9447 85.7082 98.1957 109.006 97.3492 115.245C96.5027 121.485 89.4521 140.096 93.0464 141.059C94.852 141.68 98.7653 142.206 99.974 139.338C100.084 137.9 100.518 135.769 100.827 134.614C101.205 133.201 109.758 111.553 104.595 90.7705C105.737 88.0496 106.363 87.2542 109.574 86.051C109.712 85.5375 109.802 84.3785 109.063 83.8503C108.14 83.19 103.344 84.6567 102.971 81.9426C103.007 79.7511 102.845 79.1573 102.76 79.1344L100.333 79.1861L100.826 71.4618C100.849 71.3762 100.78 71.1193 100.322 70.7763C99.6685 72.8027 96.5481 74.0762 95.0695 74.4597Z" fill="#EEF2F5"/>
<path d="M95.1493 79.2965L95.0695 74.4597C96.5481 74.0762 99.6685 72.8027 100.322 70.7763C100.78 71.1193 100.849 71.3762 100.826 71.4618L100.333 79.1861L95.1493 79.2965ZM95.1493 79.2965L94.661 79.5784L95.0068 83.9362C94.867 83.9446 94.623 84.1361 94.766 84.8348C94.9447 85.7082 98.1957 109.006 97.3492 115.245C96.5027 121.485 89.4521 140.096 93.0464 141.059C94.852 141.68 98.7653 142.206 99.974 139.338C100.084 137.9 100.518 135.769 100.827 134.614C101.205 133.201 109.758 111.553 104.595 90.7705C105.737 88.0496 106.363 87.2542 109.574 86.051C109.712 85.5375 109.802 84.3785 109.063 83.8503C108.14 83.19 103.344 84.6567 102.971 81.9426C103.007 79.7511 102.845 79.1573 102.76 79.1344L95.1493 79.2965Z" stroke="#22223B"/>
<path d="M109.402 84.6304L96.8517 85.2574C98.1629 93.5428 100.412 111.61 98.9189 117.593C97.0523 125.073 91.4623 139.26 93.3006 141.128" stroke="#22223B"/>
<path d="M105.324 88.8921L104.567 90.6889C104.931 92.0709 105.666 93.846 106.119 100.647C106.686 109.148 104.91 118.857 104.669 120.443C104.427 122.03 102.775 128.194 102.294 129.991C101.812 131.789 100.89 134.203 100.844 134.374C100.729 134.802 100.075 137.93 100.04 138.746C100.012 139.399 99.8292 139.76 99.7415 139.859C99.8939 139.747 100.402 139.455 101.194 138.42C101.3 137.2 102.346 133.778 102.706 132.774C108.11 115.688 107.394 105.136 107.212 99.3072C107.148 97.2335 106.072 91.6922 105.324 88.8921Z" fill="#BACBD6" stroke="#22223B"/>
<path d="M96.5961 47.354L97.117 41.3023C96.6661 41.2732 95.6874 41.1944 95.3793 41.1118C95.0711 41.0293 90.381 52.0635 88.0745 57.5909L88.2488 65.1586C88.2488 65.1586 88.1227 65.6293 89.2292 65.605C90.3903 62.504 93.6881 61.8009 95.1919 61.8369L95.8848 55.1433L94.8075 54.0292L95.3646 53.4905L94.6631 53.0274L95.2546 52.3604L94.3653 51.5717L95.1791 51.1019L94.7436 50.1597L95.523 49.8182L95.0532 49.0044L95.8326 48.6629L95.7135 48.0806L96.5961 47.354Z" fill="#EEF2F5" stroke="#22223B"/>
<path d="M103.697 49.2561L106.272 43.7547C106.677 43.9549 107.564 44.376 107.872 44.4586C108.18 44.5411 106.725 56.4421 105.959 62.3822L102.024 68.8489C102.024 68.8489 101.898 69.3196 100.952 68.7453C101.497 65.4792 98.9922 63.2214 97.6719 62.5007L100.419 56.3575L101.909 55.9312L101.696 55.1862L102.535 55.1358L102.356 54.2624L103.52 54.0241L103.051 53.2103L103.899 52.6121L103.394 51.9266L104.208 51.4568L103.704 50.7713L104.098 50.3266L103.697 49.2561Z" fill="#EEF2F5" stroke="#22223B"/>
<path d="M96.5947 47.3538L97.1156 41.302L97.2466 41.2941L97.7312 41.8827L97.3531 47.7452L96.4389 48.4177L96.6666 48.9375L95.9298 49.2905L96.3225 50.2215L95.5001 50.5517L95.8532 51.2885L95.179 51.7501L96.0059 52.4305L95.48 53.0236L96.0104 53.4409L95.5472 54.1426L96.7563 55.1088L96.0403 61.89L95.1993 61.7524L95.8834 55.1431L94.8061 54.0289L95.3632 53.4903L94.6618 53.0271L95.2533 52.3601L94.3639 51.5715L95.1777 51.1016L94.7423 50.1594L95.5217 49.8179L95.0518 49.0041L95.8313 48.6626L95.7121 48.0804L96.5947 47.3538Z" fill="#E5EAED"/>
<path d="M95.1993 61.7524L95.8834 55.1431L94.8061 54.0289L95.3632 53.4903L94.6618 53.0271L95.2533 52.3601L94.3639 51.5715L95.1777 51.1016L94.7423 50.1594L95.5217 49.8179L95.0518 49.0041L95.8313 48.6626L95.7121 48.0804L96.5947 47.3538L97.1156 41.302L97.2466 41.2941L97.7312 41.8827L97.3531 47.7452L96.4389 48.4177L96.6666 48.9375L95.9298 49.2905L96.3225 50.2215L95.5001 50.5517L95.8532 51.2885L95.179 51.7501L96.0059 52.4305L95.48 53.0236L96.0104 53.4409L95.5472 54.1426L96.7563 55.1088L96.0403 61.89L95.1993 61.7524ZM95.1993 61.7524L95.1906 61.8367M95.1993 61.7524L95.1613 61.7462" stroke="#22223B"/>
<circle cx="94.9906" cy="68.2141" r="6.0582" transform="rotate(15 94.9906 68.2141)" fill="#BACBD6" stroke="#22223B"/>
<circle cx="94.9924" cy="68.2137" r="4.9947" transform="rotate(15 94.9924 68.2137)" fill="#E5EAED" stroke="#22223B"/>
<path d="M107.015 62.7182L108.64 45.354L108.03 44.5483L107.859 44.5024L105.988 62.4429L106.706 63.1859L107.015 62.7182Z" fill="#E5EAED" stroke="#22223B"/>
<path d="M106.86 62.9518L102.53 69.8657L101.331 69.5445L101.406 68.9224L101.92 69.06L105.987 62.4427L106.86 62.9518Z" fill="#E5EAED" stroke="#22223B"/>
<path d="M100.751 72.0509C100.83 71.4847 100.75 71.2555 100.701 71.2116L100.924 70.721L101.01 70.7439C101.215 70.7989 101.289 71.1857 101.3 71.3722L100.977 79.0844L100.332 79.095C100.454 76.9258 100.673 72.6171 100.751 72.0509Z" fill="#BACBD6" stroke="#22223B"/>
<path d="M103.426 79.1896L102.695 79.1773C102.837 79.6741 102.933 80.3422 102.927 80.7075C102.917 81.3438 102.892 82.0252 103.114 82.409C103.552 83.1688 103.661 83.1061 104.237 83.3523C104.085 83.0057 103.761 82.2522 103.679 82.01C103.577 81.7073 103.629 81.1708 103.664 80.3545C103.692 79.7014 103.517 79.3058 103.426 79.1896Z" fill="#BACBD6" stroke="#22223B"/>
<path d="M112.591 147.903L158.296 81.2677L140.397 56.0238C139.192 49.4619 136.864 34.2268 133.961 33.2211C131.057 32.2155 128.085 31.1287 126.017 31.0171L129.827 36.386L125.352 38.5345L127.433 42.0387L124.131 44.2663L127.554 48.8939L123.05 50.8683L125.8 54.0865L121.273 57.5824L124.001 59.5542L120.469 61.4617L122.669 64.5898L118.524 67.1314L120.739 70.7382L117.165 73.6258L120.412 75.9734L115.862 79.8515L118.575 83.1938L114.637 85.7022L118.678 88.6234L114.119 90.2497L117.857 92.9517L113.566 95.6954L116.198 99.2897L112.161 100.832L114.82 104.6L110.721 106.867L113.752 109.058L109.927 111.369L112.453 113.195L109.224 115.322L111.738 119.292L108.059 121.401L110.433 124.502L107.21 125.556L109.594 129.279L106.124 130.462L107.538 134.253L104.921 135.745L106.587 138.334L103.74 139.506L112.591 147.903Z" fill="#EEF2F5" stroke="#22223B"/>
<path d="M159.588 80.9705C160.227 80.8167 160.598 80.6235 161.116 79.9212C168.787 69.5208 184.28 47.8747 186.091 45.3691C185.287 46.1413 182.174 47.1005 180.717 47.4836L156.034 81.6315C156.079 81.91 156.337 81.8506 156.932 81.6656C157.445 81.5235 158.694 81.1857 159.588 80.9705Z" fill="#EEF2F5" stroke="#22223B"/>
<path d="M186.091 45.37C185.543 45.9582 182.232 47.0921 180.717 47.4845L180.257 46.8443C179.668 45.957 177.788 45.3666 177.164 45.3777C169.658 45.3353 164.789 35.0349 161.529 29.769C157.91 23.9229 150.586 17.2444 145.939 13.8851C142.221 11.1977 141.337 7.48286 141.36 5.96137C141.619 4.61027 142.865 1.8803 145.775 1.76919C148.686 1.65808 149.682 3.67031 149.816 4.69031C150.009 5.70098 151.488 8.42118 155.866 11.2166C161.618 15.0053 168.42 24.1367 171.102 28.2288C173.997 34.0127 176.101 35.9956 178.93 38.0404C180.629 39.2687 181.87 39.2935 182.315 39.1028C183.176 38.9048 185.172 38.7682 186.268 39.8062C188.574 41.935 186.776 44.6348 186.091 45.37Z" fill="#EEF2F5" stroke="#22223B"/>
<path fill-rule="evenodd" clip-rule="evenodd" d="M155.959 81.7343L180.715 47.4853C180.401 46.643 179.635 46.0754 178.639 45.6766C178.162 45.4855 177.574 45.2765 176.438 45.3164C175.018 45.3664 170.611 42.9503 168.266 40.0243C167.067 38.4911 164.427 35.035 163.35 32.7798C162.004 29.9609 157.992 24.4458 155.051 21.7048C153.789 20.3306 150.17 16.669 147.525 14.8803C145.606 13.4927 142.822 11.1729 142.267 9.38725C142.15 9.01247 142.044 8.71639 141.947 8.44593C141.698 7.74998 141.51 7.22363 141.358 5.96211C141.037 8.96006 140.148 15.085 137.957 18.1159C137.321 18.9955 136.647 19.7309 136.01 20.4256C134.453 22.1244 133.119 23.5796 133.114 26.3053C133.11 28.2343 133.581 31.0106 134.021 33.6065C134.457 36.1785 134.863 38.5735 134.748 39.7917C134.676 40.5498 134.483 41.6185 134.273 42.7849C133.804 45.3849 133.247 48.4706 133.75 49.6839C133.897 50.9697 134.72 54.0456 136.83 56.0631C139.468 58.585 143.862 63.1457 144.737 64.7012C145.612 66.2568 147.043 69.5979 147.564 72.2818C147.461 72.5662 147.456 73.2811 148.265 73.8654C149.275 74.5956 152.053 77.9878 152.513 78.6281C152.973 79.2681 153.91 80.099 154.846 80.93L154.848 80.9309C155.146 81.1956 155.674 81.6312 155.959 81.7343ZM140.841 23.2759C141.924 23.9052 144.615 25.7579 146.712 28.1348C148.084 29.691 149.615 32.079 150.973 34.1975C152.208 36.1236 153.3 37.8268 154 38.4794C154.607 39.0445 155.801 40.5316 157.163 42.2266C159.104 44.6429 161.384 47.4814 162.783 48.6731C165.162 50.7009 168.4 54.7333 168.27 57.2541C165.513 56.9835 161.726 52.8311 160.177 50.7887L149.476 36.4396C148.724 35.2808 146.892 32.6948 145.576 31.6208C144.26 30.5468 142.765 26.359 142.182 24.3993L140.841 23.2759Z" fill="#E5EAED"/>
<path d="M180.715 47.4853L181.121 47.7782L181.277 47.5614L181.184 47.3107L180.715 47.4853ZM155.959 81.7343L155.788 82.2044L156.143 82.3329L156.364 82.0272L155.959 81.7343ZM178.639 45.6766L178.453 46.1408L178.453 46.1408L178.639 45.6766ZM176.438 45.3164L176.456 45.8161L176.438 45.3164ZM168.266 40.0243L167.872 40.3323L167.876 40.3371L168.266 40.0243ZM163.35 32.7798L162.899 32.9953L163.35 32.7798ZM155.051 21.7048L154.683 22.0431L154.696 22.0574L154.71 22.0706L155.051 21.7048ZM147.525 14.8803L147.232 15.2855L147.239 15.2901L147.245 15.2944L147.525 14.8803ZM142.267 9.38725L141.789 9.53569L141.789 9.53569L142.267 9.38725ZM141.947 8.44593L141.477 8.6144L141.477 8.6144L141.947 8.44593ZM141.358 5.96211L141.855 5.90249L140.861 5.90884L141.358 5.96211ZM136.01 20.4256L136.379 20.7635L136.379 20.7635L136.01 20.4256ZM133.114 26.3053L132.614 26.3044L133.114 26.3053ZM134.021 33.6065L133.528 33.69L134.021 33.6065ZM134.748 39.7917L134.25 39.7447L134.748 39.7917ZM134.273 42.7849L134.765 42.8737L134.273 42.7849ZM133.75 49.6839L134.247 49.627L134.239 49.5572L134.212 49.4923L133.75 49.6839ZM136.83 56.0631L136.484 56.4245L136.83 56.0631ZM144.737 64.7012L144.301 64.9464L144.301 64.9464L144.737 64.7012ZM147.564 72.2818L148.034 72.4521L148.081 72.3222L148.054 72.1865L147.564 72.2818ZM152.513 78.6281L152.107 78.9199L152.107 78.9199L152.513 78.6281ZM154.846 80.93L155.179 80.5563L155.178 80.5559L154.846 80.93ZM154.848 80.9309L154.515 81.3046L154.516 81.305L154.848 80.9309ZM146.712 28.1348L146.337 28.4655L146.712 28.1348ZM140.841 23.2759L141.092 22.8436L140.52 23.6592L140.841 23.2759ZM150.973 34.1975L151.394 33.9277L150.973 34.1975ZM154 38.4794L153.66 38.8452L154 38.4794ZM157.163 42.2266L156.773 42.5398L157.163 42.2266ZM162.783 48.6731L162.459 49.0537L162.459 49.0537L162.783 48.6731ZM168.27 57.2541L168.221 57.7517L168.743 57.8029L168.77 57.2799L168.27 57.2541ZM160.177 50.7887L159.776 51.0876L159.778 51.0908L160.177 50.7887ZM149.476 36.4396L149.057 36.7117L149.065 36.7254L149.075 36.7385L149.476 36.4396ZM142.182 24.3993L142.661 24.2567L142.619 24.1126L142.503 24.016L142.182 24.3993ZM180.31 47.1924L155.554 81.4414L156.364 82.0272L181.121 47.7782L180.31 47.1924ZM178.453 46.1408C179.394 46.5177 180.005 47.0108 180.247 47.66L181.184 47.3107C180.798 46.2752 179.875 45.633 178.825 45.2124L178.453 46.1408ZM176.456 45.8161C177.504 45.7793 178.021 45.9678 178.453 46.1408L178.825 45.2124C178.302 45.0032 177.644 44.7737 176.42 44.8168L176.456 45.8161ZM167.876 40.3371C169.095 41.8586 170.834 43.2297 172.438 44.2127C173.242 44.7055 174.023 45.1076 174.703 45.385C175.362 45.6542 175.988 45.8326 176.456 45.8161L176.42 44.8168C176.178 44.8253 175.72 44.7204 175.081 44.4592C174.461 44.2062 173.728 43.8307 172.96 43.36C171.419 42.4159 169.782 41.1159 168.656 39.7116L167.876 40.3371ZM162.899 32.9953C164.005 35.3097 166.682 38.8109 167.872 40.3323L168.66 39.7163C167.451 38.1713 164.85 34.7603 163.802 32.5643L162.899 32.9953ZM154.71 22.0706C156.149 23.4118 157.867 25.4489 159.397 27.511C160.929 29.5754 162.247 31.6288 162.899 32.9953L163.802 32.5643C163.108 31.1118 161.746 28.9983 160.2 26.9151C158.653 24.8297 156.894 22.7388 155.392 21.339L154.71 22.0706ZM147.245 15.2944C149.838 17.048 153.423 20.6719 154.683 22.0431L155.419 21.3665C154.154 19.9894 150.502 16.29 147.805 14.4661L147.245 15.2944ZM141.789 9.53569C142.107 10.5587 143.026 11.6606 144.036 12.6417C145.064 13.6409 146.261 14.5834 147.232 15.2855L147.818 14.475C146.87 13.7895 145.715 12.8784 144.733 11.9244C143.732 10.9523 142.981 10.0014 142.744 9.23882L141.789 9.53569ZM141.477 8.6144C141.573 8.88459 141.676 9.17193 141.789 9.53569L142.744 9.23882C142.624 8.85301 142.515 8.5482 142.418 8.27747L141.477 8.6144ZM140.862 6.02173C141.02 7.33312 141.22 7.89782 141.477 8.6144L142.418 8.27747C142.177 7.60215 142 7.11415 141.855 5.90249L140.862 6.02173ZM138.362 18.4088C139.518 16.8093 140.306 14.439 140.846 12.1409C141.389 9.82798 141.694 7.52466 141.856 6.01538L140.861 5.90884C140.702 7.39751 140.402 9.65563 139.872 11.9124C139.339 14.184 138.586 16.3916 137.552 17.823L138.362 18.4088ZM136.379 20.7635C137.014 20.0707 137.707 19.3153 138.362 18.4088L137.552 17.823C136.935 18.6758 136.28 19.3912 135.642 20.0878L136.379 20.7635ZM133.614 26.3063C133.619 23.792 134.819 22.4652 136.379 20.7635L135.642 20.0878C134.087 21.7836 132.619 23.3673 132.614 26.3044L133.614 26.3063ZM134.514 33.5229C134.071 30.9093 133.61 28.1825 133.614 26.3063L132.614 26.3044C132.61 28.286 133.091 31.1119 133.528 33.69L134.514 33.5229ZM135.246 39.8388C135.309 39.1673 135.228 38.2133 135.087 37.1413C134.944 36.0579 134.731 34.8063 134.514 33.5229L133.528 33.69C133.746 34.9786 133.955 36.2106 134.095 37.2722C134.237 38.3454 134.302 39.198 134.25 39.7447L135.246 39.8388ZM134.765 42.8737C134.974 41.7164 135.172 40.6229 135.246 39.8388L134.25 39.7447C134.181 40.4767 133.993 41.5205 133.781 42.6961L134.765 42.8737ZM134.212 49.4923C134.122 49.2749 134.064 48.9283 134.053 48.4485C134.043 47.9782 134.078 47.4212 134.144 46.8082C134.277 45.5811 134.53 44.178 134.765 42.8737L133.781 42.6961C133.547 43.9917 133.287 45.4316 133.15 46.7007C133.081 47.3357 133.042 47.9402 133.054 48.4709C133.065 48.9922 133.127 49.4863 133.288 49.8755L134.212 49.4923ZM137.175 55.7017C135.182 53.7957 134.387 50.8504 134.247 49.627L133.253 49.7408C133.408 51.0889 134.257 54.2955 136.484 56.4245L137.175 55.7017ZM145.173 64.4561C144.929 64.0223 144.462 63.4142 143.886 62.7283C143.302 62.0336 142.582 61.2321 141.81 60.4037C140.266 58.7467 138.501 56.9692 137.175 55.7017L136.484 56.4245C137.796 57.6789 139.548 59.4427 141.079 61.0855C141.844 61.9069 142.552 62.6948 143.12 63.3716C143.697 64.0571 144.108 64.6024 144.301 64.9464L145.173 64.4561ZM148.054 72.1865C147.521 69.4379 146.067 66.0461 145.173 64.4561L144.301 64.9464C145.157 66.4675 146.564 69.758 147.073 72.3771L148.054 72.1865ZM148.558 73.4601C147.933 73.0087 148.005 72.53 148.034 72.4521L147.093 72.1115C146.916 72.6025 146.98 73.5535 147.972 74.2706L148.558 73.4601ZM152.919 78.3363C152.675 77.9974 151.854 76.9755 150.974 75.9541C150.532 75.441 150.07 74.9218 149.652 74.483C149.243 74.0526 148.852 73.6727 148.558 73.4601L147.972 74.2706C148.183 74.4231 148.518 74.7411 148.928 75.1722C149.33 75.5948 149.78 76.1006 150.216 76.6068C151.093 77.6242 151.89 78.6185 152.107 78.9199L152.919 78.3363ZM155.178 80.5559C154.221 79.7066 153.338 78.9196 152.919 78.3363L152.107 78.9199C152.608 79.6167 153.598 80.4913 154.515 81.304L155.178 80.5559ZM155.18 80.5573L155.179 80.5563L154.514 81.3036L154.515 81.3046L155.18 80.5573ZM156.129 81.2642C156.067 81.2415 155.918 81.1516 155.71 80.9943C155.519 80.8498 155.322 80.6837 155.179 80.5569L154.516 81.305C154.671 81.4428 154.888 81.627 155.107 81.7922C155.309 81.9446 155.567 82.124 155.788 82.2044L156.129 81.2642ZM147.086 27.804C144.945 25.3763 142.208 23.4918 141.092 22.8436L140.59 23.7083C141.64 24.3186 144.285 26.1394 146.337 28.4655L147.086 27.804ZM151.394 33.9277C150.044 31.821 148.49 29.3953 147.086 27.804L146.337 28.4655C147.678 29.9866 149.187 32.3371 150.553 34.4674L151.394 33.9277ZM154.341 38.1137C154.036 37.8292 153.616 37.2831 153.099 36.5325C152.59 35.7925 152.013 34.8928 151.394 33.9277L150.553 34.4674C151.169 35.4283 151.755 36.3432 152.276 37.0994C152.789 37.8451 153.264 38.4769 153.66 38.8452L154.341 38.1137ZM157.553 41.9135C156.208 40.2389 154.982 38.7105 154.341 38.1137L153.66 38.8452C154.232 39.3784 155.395 40.8244 156.773 42.5398L157.553 41.9135ZM163.107 48.2925C161.754 47.1398 159.511 44.3516 157.553 41.9135L156.773 42.5398C158.697 44.9341 161.014 47.8229 162.459 49.0537L163.107 48.2925ZM168.77 57.2799C168.808 56.5442 168.6 55.7399 168.263 54.9407C167.923 54.1357 167.437 53.3014 166.879 52.4943C165.763 50.8815 164.33 49.3342 163.107 48.2925L162.459 49.0537C163.616 50.0397 164.991 51.5225 166.056 53.0632C166.589 53.8327 167.036 54.6059 167.342 55.3294C167.649 56.0586 167.798 56.7036 167.771 57.2283L168.77 57.2799ZM159.778 51.0908C160.568 52.1322 161.923 53.7059 163.437 55.0586C164.194 55.7352 165 56.3652 165.803 56.8459C166.601 57.3233 167.428 57.6739 168.221 57.7517L168.319 56.7565C167.734 56.6991 167.054 56.429 166.317 55.988C165.586 55.5502 164.831 54.9636 164.103 54.313C162.647 53.0113 161.334 51.4876 160.575 50.4866L159.778 51.0908ZM149.075 36.7385L159.776 51.0876L160.578 50.4898L149.877 36.1406L149.075 36.7385ZM145.26 32.0081C145.87 32.5066 146.628 33.3824 147.342 34.3045C148.049 35.2179 148.687 36.1426 149.057 36.7117L149.895 36.1674C149.513 35.5778 148.859 34.6301 148.133 33.6923C147.413 32.7632 146.597 31.8091 145.892 31.2335L145.26 32.0081ZM141.703 24.5419C141.999 25.5359 142.525 27.0915 143.145 28.5391C143.455 29.2628 143.792 29.9683 144.141 30.5665C144.483 31.1539 144.859 31.6811 145.26 32.0081L145.892 31.2335C145.635 31.0236 145.331 30.6245 145.005 30.0634C144.684 29.5131 144.365 28.8478 144.064 28.1453C143.462 26.7406 142.949 25.2225 142.661 24.2567L141.703 24.5419ZM140.52 23.6592L141.861 24.7827L142.503 24.016L141.162 22.8926L140.52 23.6592Z" fill="#22223B"/>
<path d="M160.179 50.7883C161.728 52.8307 165.515 56.9832 168.272 57.2538C167.708 58.7432 166.002 62.0116 163.689 63.1695C161.375 64.3273 158.013 61.3743 156.622 59.7531L137.346 34.284C136.337 32.6311 134.488 28.8335 135.171 26.8665C135.855 24.8995 139.286 23.5856 140.916 23.1745L142.184 24.399C142.768 26.3586 144.263 30.5465 145.578 31.6205C146.894 32.6945 148.726 35.2805 149.478 36.4392L160.179 50.7883Z" fill="#BACBD6" stroke="black"/>
<circle cx="152.117" cy="70.7424" r="1.91431" transform="rotate(85.8609 152.117 70.7424)" fill="#E5EAED" stroke="#22223B"/>
<path d="M153.551 72.0217L153.374 72.1852L152.922 72.4484L150.858 69.4054L151.488 68.9787L153.551 72.0217Z" fill="#BACBD6" stroke="#22223B"/>
<circle cx="138.806" cy="51.2799" r="1.91431" transform="rotate(155.861 138.806 51.2799)" fill="#E5EAED" stroke="#22223B"/>
<path d="M138.093 53.0656L137.879 52.9553L137.477 52.6202L139.631 49.6406L140.247 50.086L138.093 53.0656Z" fill="#BACBD6" stroke="#22223B"/>
<path d="M112.694 147.975L158.124 81.2946L159.663 80.8686L114.204 147.375L112.694 147.975Z" fill="#EEF2F5" stroke="#22223B"/>
<path d="M55.7954 87.4881L54.2453 84.6931L61.8112 81.5903L65.0475 76.9195L66.8695 76.7478L68.4352 79.2197L68.2492 83.0975L65.8381 86.7714L60.3529 89.0347L55.7954 87.4881Z" fill="#EEF2F5" stroke="#22223B"/>
<path d="M66.0212 78.9424C65.4822 78.2946 66.3142 77.337 66.7975 76.9391L66.9668 76.7852L68.4001 79.3156L68.2821 82.4517L68.2237 82.3193C67.7141 81.4636 66.5602 79.5901 66.0212 78.9424Z" fill="#E5EAED" stroke="#22223B"/>
<path d="M62.2417 86.1447L61.0206 83.916L64.2867 81.9997C64.5105 81.611 65.0969 80.8023 65.3336 80.4305C65.7736 80.7107 66.385 81.0207 66.6167 81.3665C66.6167 81.3665 67.0238 81.9304 67.2165 82.367C67.3334 82.6317 67.5086 83.0288 67.2284 83.4688C66.8671 84.0237 66.0546 85.2522 65.695 85.7273C65.2454 86.3211 64.4882 86.5763 63.5403 86.7576C62.7819 86.9026 62.3585 86.4094 62.2417 86.1447Z" fill="#E5EAED" stroke="#22223B"/>
<path d="M55.7956 87.4874L54.5161 85.1264L54.5531 85.031L59.3729 84.4849L60.4771 86.4488C60.7478 86.8828 61.1299 87.4259 60.6643 87.9477C60.1988 88.4695 59.0299 88.4847 58.5037 88.4271L55.7956 87.4874Z" fill="#E5EAED" stroke="#22223B"/>
<path d="M60.1878 84.3633L54.4569 84.9953L54.1863 84.5613L55.0424 82.9181C55.4455 83.2937 56.6796 83.2233 57.4953 83.1005C58.2106 82.9928 58.8987 82.8763 59.7883 82.5627C60.6778 82.2491 62.922 80.7049 63.7102 79.8034C64.3407 79.0822 64.9686 77.8772 65.1852 77.4125L65.7969 79.5148L64.285 82.001L60.1878 84.3633Z" fill="#87A2B5"/>
<path d="M65.1852 77.4125L65.7969 79.5148L64.285 82.001L60.1878 84.3633L54.4569 84.9953L54.1863 84.5613L55.0424 82.9181C55.4455 83.2937 56.6796 83.2233 57.4953 83.1005C58.2106 82.9928 58.8987 82.8763 59.7883 82.5627C60.6778 82.2491 62.922 80.7049 63.7102 79.8034C64.3407 79.0822 64.9686 77.8772 65.1852 77.4125ZM65.1852 77.4125L64.9515 76.8831" stroke="#22223B"/>
<path d="M59.8208 76.5394L56.4224 78.5141C55.522 79.2633 54.1257 80.7669 54.5385 81.677C54.5556 81.7148 54.5759 81.7516 54.5995 81.7873L55.1191 82.727C55.1068 82.7588 55.2827 83.0976 55.6176 83.1396C56.0361 83.192 58.7167 83.353 60.8869 81.9995C63.0571 80.6461 64.2054 79.6647 65.2094 77.64C65.0807 77.2312 64.794 76.6746 64.5969 76.3225C64.5686 76.2473 64.5296 76.1805 64.4812 76.1215C63.7935 75.2823 61.1898 76.0048 59.8208 76.5394Z" fill="#E5EAED"/>
<path d="M54.5385 81.677C54.1257 80.7669 55.522 79.2633 56.4224 78.5141L59.8208 76.5394C61.1898 76.0048 63.7935 75.2823 64.4812 76.1215M54.5385 81.677C54.6206 81.8581 54.7743 82.0156 55.0178 82.1391C56.8517 83.0692 60.0284 81.6669 60.8964 81.1255C61.656 80.6518 64.8183 78.3662 64.6466 76.5441C64.6305 76.3728 64.5729 76.2332 64.4812 76.1215M54.5385 81.677L55.1191 82.727C55.1068 82.7588 55.2827 83.0976 55.6176 83.1396C56.0361 83.192 58.7167 83.353 60.8869 81.9995C63.0571 80.6461 64.2054 79.6647 65.2094 77.64C65.052 77.1401 64.6584 76.4193 64.4812 76.1215" stroke="#22223B"/>
<path d="M60.2937 92.0156L57.3216 88.0799L58.3125 88.3542L60.0373 88.9298C60.2408 88.9977 60.4619 88.99 60.6602 88.9082L65.5692 86.8826C65.7438 86.8106 65.8911 86.6849 65.9898 86.5238L67.4087 84.2071C67.77 83.6171 68.6368 83.6444 68.9628 84.2546C69.4609 85.1869 70.0373 86.2549 70.399 86.8933C70.9344 87.8385 72.8516 89.1852 73.9232 89.8558C74.0628 89.9431 74.1773 90.0651 74.2528 90.2115L86.6664 114.271C86.7098 114.355 86.7395 114.445 86.7543 114.538C86.9031 115.478 87.1757 117.277 87.2733 118.2C87.2834 118.296 87.277 118.391 87.2541 118.484C86.9133 119.867 86.1619 121.534 82.2509 123.414C79.0866 124.935 76.319 123.265 75.2575 122.176C75.2103 122.128 75.1726 122.076 75.1389 122.018C71.3215 115.364 63.4566 101.543 61.5003 97.6906C61.4158 97.5241 61.3939 97.3419 61.4089 97.1557C61.5324 95.6241 60.8346 93.3333 60.4111 92.226C60.3822 92.1506 60.3424 92.08 60.2937 92.0156Z" fill="#EEF2F5" stroke="#22223B"/>
<path d="M74.1367 89.9873C73.1275 89.4207 71.7757 88.341 71.226 87.8719C71.2526 87.992 71.3102 88.2776 71.3273 88.4598C71.3488 88.6876 71.8806 90.4297 72.6867 91.1809C73.3316 91.7819 73.8537 92.5109 74.0342 92.8003C78.2058 100.817 86.6031 116.937 86.8197 117.284C87.0362 117.632 87.111 117.288 87.1214 117.072L86.673 114.265C82.5332 106.261 74.2302 90.1991 74.1367 89.9873Z" fill="#E5EAED" stroke="#22223B"/>
<path d="M75.4864 121.34L62.565 98.3393C62.4625 98.1321 62.2721 97.736 62.3313 97.8099C62.5066 98.207 62.0586 97.1922 62.0761 97.0527C62.1234 96.7419 62.2378 95.8426 62.3169 94.7322C62.2902 93.6686 62.9585 93.7373 63.2959 93.9047C63.9021 94.3224 65.2215 95.2213 65.6498 95.4751C66.0781 95.7288 66.3553 96.2971 66.4404 96.5495C71.2981 105.344 80.9986 122.971 80.9394 123.124C80.8655 123.315 80.0713 123.665 78.1849 123.154C76.6758 122.745 75.7571 121.774 75.4864 121.34Z" fill="#E5EAED" stroke="#22223B"/>
<path d="M81.2792 121.392L67.6721 96.4794L67.2846 95.7806C67.0294 95.0234 67.1934 94.0337 67.1963 92.8937C67.1999 91.4688 67.8831 91.4044 68.0155 91.3459C68.1478 91.2875 69.4989 91.4819 71.179 92.2426C72.5231 92.8512 73.2201 93.5821 73.4005 93.8715C77.2533 101.106 85.0599 115.769 85.4634 116.54C85.9678 117.503 86.3708 117.879 86.3243 118.848C86.2779 119.818 84.172 121.854 83.0178 122.285C82.0943 122.629 81.4986 121.769 81.2792 121.392Z" fill="#E5EAED" stroke="#22223B"/>
<path d="M31.6966 22.6243L29.9865 21.3182C29.6193 21.0378 29.1248 20.9899 28.7106 21.1947C28.2267 21.434 27.9587 21.9639 28.0528 22.4955L28.5333 25.2104C28.5656 25.3929 28.6261 25.5692 28.7127 25.7331L56.8151 78.9187C56.8978 79.0751 56.9995 79.2233 57.1398 79.3311C57.8171 79.8513 58.6429 79.7543 59.4511 79.4694C59.9957 79.2774 60.2868 78.4903 60.4161 77.8615C60.4843 77.5299 60.4088 77.19 60.2519 76.8899L32.195 23.2159C32.0741 22.9846 31.904 22.7827 31.6966 22.6243Z" fill="#EEF2F5" stroke="#22223B"/>
<path d="M30.5091 27.8774L28.5833 25.4854L27.8953 21.5981L28.0276 21.5397L30.5091 27.8774Z" fill="#BACBD6" stroke="#22223B"/>
<path d="M32.0144 22.8646L29.4853 20.8971L31.6353 24.6926L33.9152 26.4538L32.0144 22.8646Z" fill="#BACBD6" stroke="#22223B"/>
<path d="M4.95232 88.2183L21.716 36.3048L40.6428 101.606L166.641 94.7075V154.732L40.6428 163.925L4.95232 146.08V88.2183Z" fill="#EEF2F5"/>
<path d="M40.6428 163.925L4.95232 146.08V88.2183L21.716 36.3048L40.6428 101.606M40.6428 163.925V101.606M40.6428 163.925L166.641 154.732V94.7075L40.6428 101.606" stroke="#22223B" stroke-linejoin="bevel"/>
<path d="M130.144 132.649L130.129 125.155L103.254 117.126L76.2143 127.388L76.2143 136.529L103.254 144.29L130.144 132.649Z" fill="#E5EAED" stroke="#22223B"/>
</svg>
