<svg width="16" height="16" viewBox="0 0 16 16" fill="none" xmlns="http://www.w3.org/2000/svg">
<g clip-path="url(#clip0_3_12789)">
<path d="M8 16C12.4183 16 16 12.4183 16 8.00003C16 3.58175 12.4183 3.05176e-05 8 3.05176e-05C3.58172 3.05176e-05 0 3.58175 0 8.00003C0 12.4183 3.58172 16 8 16Z" fill="#FEF5E7"/>
<line x1="8" y1="5.00003" x2="8" y2="9.00003" stroke="#E18315" stroke-linecap="round"/>
<path fill-rule="evenodd" clip-rule="evenodd" d="M7.5 11C7.5 10.7239 7.72274 10.5 7.99751 10.5H8.00249C8.27726 10.5 8.5 10.7239 8.5 11C8.5 11.2762 8.27726 11.5 8.00249 11.5H7.99751C7.72274 11.5 7.5 11.2762 7.5 11Z" fill="#E18315"/>
</g>
<defs>
<clipPath id="clip0_3_12789">
<rect width="16" height="16" fill="white"/>
</clipPath>
</defs>
</svg>
