<svg width="129" height="170" viewBox="0 0 129 170" fill="none" xmlns="http://www.w3.org/2000/svg">
<path d="M1.78749 15.8665C1.12499 10.3879 5.25407 5.49966 10.7663 5.23679L82.0829 1.83588C93.3583 1.29819 103.287 9.19844 105.296 20.3065L124.462 126.296C126.656 138.424 118.684 150.059 106.582 152.393L30.3158 167.102C24.9065 168.145 19.7469 164.383 19.0855 158.914L1.78749 15.8665Z" fill="#BACBD6" stroke="#22223B"/>
<path d="M5.02175 14.9049C4.44143 9.93579 8.17263 5.51599 13.1438 5.27339L95.2648 1.26575C99.5918 1.05458 103.402 4.11037 104.151 8.39916L127.108 139.849C127.917 144.48 124.889 148.908 120.298 149.815L32.1372 167.227C27.2229 168.198 22.5229 164.76 21.9389 159.76L5.02175 14.9049ZM9.65496 16.8018C9.19355 12.7528 12.2367 9.15922 16.2851 8.96194L93.775 5.1858C97.3175 5.01317 100.433 7.52389 101.031 11.0386L122.562 137.741C123.203 141.512 120.732 145.105 116.998 145.842L33.8537 162.24C29.8371 163.032 25.9979 160.215 25.5319 156.126L9.65496 16.8018ZM16.2364 7.96312C11.6067 8.18873 8.13504 12.2962 8.66139 16.9151L24.5383 156.24C25.07 160.905 29.4532 164.127 34.0472 163.221L117.192 146.823C121.461 145.981 124.279 141.875 123.548 137.574L102.016 10.8711C101.335 6.86051 97.7775 3.98957 93.7263 4.18699L16.2364 7.96312Z" fill="#EEF2F5" stroke="#22223B"/>
<path opacity="0.3" d="M42.3281 160.4L107.197 147.528C108.415 147.286 109.663 147.178 110.904 147.13C126.652 146.521 122.55 138.019 121.011 129.518C46.3817 50.8181 14.9964 8.79828 14.9964 8.79828C10.4028 8.79828 10.4028 16.7742 10.4028 23.7219L24.7533 147.443C25.7517 156.182 23.3302 167.022 42.3281 160.4Z" fill="#BACBD6"/>
<path d="M43.5293 7.1947L69.0911 5.99152L69.337 7.47261C69.6312 9.24541 68.3115 10.8774 66.5163 10.9606L46.8181 11.8735C45.2055 11.9483 43.823 10.7336 43.6895 9.12486L43.5293 7.1947Z" fill="#22223B"/>
<ellipse cx="18.6669" cy="19.8792" rx="18.6669" ry="19.8792" transform="matrix(0.996411 -0.084649 0.0839555 0.996469 47.5137 61.9738)" stroke="#DB7758"/>
<path d="M59.0752 84.7621L59.8679 89.8035L78.3649 87.4155L77.5722 83.1701" stroke="#DB7758"/>
<path d="M67.2668 69.1071L69.1165 85.0274" stroke="#DB7758"/>
<path d="M64.0372 81.0122L69.2556 85.5649L72.6104 80.1844" stroke="#DB7758" stroke-linejoin="round"/>
</svg>
