<svg width="157" height="160" viewBox="0 0 157 160" fill="none" xmlns="http://www.w3.org/2000/svg">
<path d="M95.5908 142.458C58.2642 152.226 27.1902 130.693 17.8718 95.9166C8.51643 61.0018 26.847 26.4739 59.6625 17.681C64.4836 16.3892 69.2242 15.4433 73.9744 15.3677L95.5908 142.458Z" fill="#E2DDD7" stroke="#22223B"/>
<path d="M139.128 64.0835C148.397 98.6752 130.592 133.409 99.49 141.742C68.3878 150.076 35.6016 128.899 26.3328 94.3071C17.064 59.7154 34.8689 24.982 65.9711 16.6482C97.0734 8.31437 129.86 29.4919 139.128 64.0835Z" fill="#F8F5F4" stroke="#22223B"/>
<path d="M136.613 64.5999C145.38 97.3211 128.411 130.21 98.8352 138.135C69.259 146.06 38.119 126.062 29.3513 93.3404C20.5837 60.6192 37.5526 27.7301 67.1288 19.8051C96.705 11.8802 127.845 31.8786 136.613 64.5999Z" fill="#F8F5F4" stroke="#22223B"/>
<path d="M124.992 67.8742C131.987 93.982 118.801 120.094 95.6851 126.288C72.5696 132.482 48.0933 116.461 41.0978 90.3536C34.1023 64.2459 47.2891 38.1338 70.4046 31.94C93.5201 25.7462 117.996 41.7665 124.992 67.8742Z" fill="#F8F5F4" stroke="#22223B"/>
<path fill-rule="evenodd" clip-rule="evenodd" d="M102.226 123.632C81.7615 124.969 61.8321 109.652 55.6175 86.4592C49.404 63.2702 59.0006 40.0451 77.3856 30.9674C74.9261 31.1281 72.4589 31.5294 70.0069 32.1864C47.152 38.3103 34.2679 64.3362 41.2294 90.3167C48.1908 116.297 72.3617 132.394 95.2166 126.27C97.6723 125.612 100.013 124.725 102.226 123.632Z" fill="#C4BBB3" fill-opacity="0.4"/>
<path d="M116.8 56.2911C118.87 59.8534 120.534 63.7602 121.701 67.952L119.774 68.4882C119.816 68.6392 119.857 68.7906 119.898 68.9424C119.939 69.0942 119.979 69.246 120.018 69.3979L121.955 68.8988C123.04 73.1122 123.552 77.3279 123.541 81.4478L121.541 81.4423C121.54 81.7546 121.536 82.0663 121.529 82.3774L123.528 82.4231C123.429 86.7395 122.756 90.9414 121.567 94.9149L119.651 94.3416C119.562 94.6404 119.469 94.9379 119.374 95.2339L121.277 95.8478C119.96 99.9332 118.092 103.763 115.739 107.21L114.087 106.082C113.912 106.338 113.735 106.592 113.555 106.843L115.18 108.008C112.703 111.464 109.726 114.51 106.32 117.011L105.136 115.399C104.888 115.581 104.637 115.761 104.384 115.937L105.527 117.578C102.111 119.957 98.2839 121.797 94.1131 122.972L93.5709 121.047C93.4221 121.089 93.2728 121.13 93.1231 121.17C92.9733 121.21 92.8235 121.25 92.6737 121.288L93.1667 123.226C88.9672 124.294 84.7328 124.613 80.5855 124.261L80.7544 122.269C80.447 122.243 80.1402 122.213 79.8338 122.179L79.6145 124.167C75.414 123.703 71.3133 122.554 67.4403 120.8L68.2653 118.978C67.9835 118.851 67.703 118.72 67.4237 118.586L66.5569 120.388C62.7961 118.579 59.2635 116.197 56.0797 113.317L57.4212 111.834C57.1905 111.625 56.9616 111.414 56.7348 111.2L55.3621 112.655C52.3457 109.808 49.6616 106.506 47.4179 102.817L49.1266 101.777C48.9649 101.512 48.8055 101.244 48.6486 100.974L46.9194 101.978C44.8494 98.4162 43.1849 94.5094 42.0185 90.3176L43.9453 89.7814C43.9033 89.6304 43.8619 89.479 43.8213 89.3272C43.7806 89.1754 43.7407 89.0236 43.7016 88.8718L41.7648 89.3708C40.6791 85.1574 40.1672 80.9417 40.1787 76.8218L42.1787 76.8274C42.1795 76.515 42.1835 76.2033 42.1907 75.8922L40.1912 75.8465C40.29 71.5301 40.9633 67.3282 42.1522 63.3547L44.0683 63.928C44.1577 63.6292 44.2502 63.3317 44.3457 63.0357L42.4422 62.4218C43.7598 58.3364 45.6278 54.5066 47.9806 51.0599L49.6324 52.1875C49.8071 51.9316 49.9846 51.6779 50.1648 51.4265L48.5394 50.2611C51.0167 46.806 53.9933 43.7601 57.3994 41.2586L58.5832 42.8706C58.8316 42.6881 59.0824 42.5087 59.3356 42.3325L58.1929 40.6911C61.6088 38.313 65.4355 36.4721 69.6063 35.2973L70.1485 37.2224C70.2973 37.1805 70.4466 37.1395 70.5963 37.0993C70.7461 37.0592 70.8959 37.0201 71.0457 36.982L70.5527 35.0437C74.7522 33.9757 78.9865 33.6567 83.1339 34.0082L82.965 36.001C83.2724 36.0271 83.5792 36.057 83.8856 36.0908L84.1048 34.1029C88.3054 34.5662 92.4061 35.7158 96.2791 37.4693L95.4541 39.2913C95.7359 39.4189 96.0164 39.5498 96.2957 39.6841L97.1625 37.8817C100.923 39.6902 104.456 42.0729 107.64 44.9522L106.298 46.4355C106.529 46.6442 106.758 46.8556 106.985 47.0697L108.357 45.6151C111.374 48.4617 114.058 51.7641 116.302 55.4528L114.593 56.4921C114.755 56.758 114.914 57.0259 115.071 57.296L116.8 56.2911Z" stroke="#22223B" stroke-width="4" stroke-dasharray="1 13"/>
<circle cx="82.3502" cy="78.9685" r="2.54648" transform="rotate(-15 82.3502 78.9685)" fill="#22223B"/>
<path d="M97.7822 60.3357L83.4094 78.0275L83.6566 78.9499L99.9786 62.3835L110.481 48.6947L97.7822 60.3357Z" fill="#22223B" stroke="#22223B" stroke-linejoin="round"/>
<path d="M63.9695 74.3369L83.434 79.3371L84.1916 78.475L64.5403 71.5477L53.6084 68.8747L63.9695 74.3369Z" fill="#22223B" stroke="#22223B" stroke-linejoin="round"/>
<path d="M82.6536 78.8863L73.9713 122.735" stroke="#22223B"/>
<circle cx="83.573" cy="78.641" r="1.40986" transform="rotate(-15 83.573 78.641)" fill="#F8F5F4" stroke="#22223B"/>
</svg>
