<svg width="121" height="85" viewBox="0 0 121 85" fill="none" xmlns="http://www.w3.org/2000/svg" xmlns:xlink="http://www.w3.org/1999/xlink">
<rect width="121" height="85" fill="#F5F5F5"/>
<g filter="url(#filter0_d_6906_47132)">
<rect width="2179" height="1333" transform="matrix(1 0 0 -1 -786 902)" fill="#FBFBFC"/>
</g>
<g clip-path="url(#clip0_6906_47132)" filter="url(#filter1_d_6906_47132)">
<rect width="390" height="850" transform="translate(-134 -309)" fill="#EEF2F5"/>
<path d="M2.00027 1.50049L3.00169 2.0012L4.33691 82.6153L2.00027 79.611V1.50049Z" fill="#BACBD6" stroke="#22223B" stroke-width="1.5"/>
<path d="M4.33669 82.615L3.00146 1.83398C3.00146 1.83398 73.1358 3.47241 118.498 2.66882C119.02 2.65959 120 2.66899 120 2.66899L118.665 80.9459L4.33669 82.615Z" fill="#EEF2F5" stroke="#22223B" stroke-width="1.5"/>
<path d="M12.5149 68.429L48.0652 45.8971L64.4217 37.8857L79.6099 45.8971L113.157 67.4275L117.831 81.4563L5.67188 82.7784L12.5149 68.429Z" fill="#E5EAED" stroke="#22223B" stroke-width="1.5"/>
<mask id="mask0_6906_47132" style="mask-type:alpha" maskUnits="userSpaceOnUse" x="2" y="2" width="64" height="59">
<path d="M55.1163 59.3592C53.2298 57.9082 11.6194 30.3807 3.66926 23.8616C3.6696 12.0115 3.33545 13.1798 3.33545 4.33398L64.7588 51.7378L55.1163 59.3592C55.21 59.4313 55.2057 59.4391 55.0943 59.3766L55.1163 59.3592Z" fill="black"/>
<path d="M3.66926 23.8616C12.0144 30.7046 57.4479 60.6955 55.0943 59.3766L64.7588 51.7378L3.33545 4.33398C3.33545 13.1798 3.6696 12.0115 3.66926 23.8616Z" stroke="#22223B" stroke-width="1.5"/>
</mask>
<g mask="url(#mask0_6906_47132)">
<rect x="2.75" y="1.74609" width="61.2555" height="69.9344" fill="#87A2B5" fill-opacity="0.4" stroke="#22223B" stroke-width="1.5"/>
</g>
<mask id="mask1_6906_47132" style="mask-type:alpha" maskUnits="userSpaceOnUse" x="5" y="10" width="61" height="51">
<path d="M55.1267 59.3484C53.4234 57.7522 13.2786 28.3986 6.00586 24.2378C10.5838 12.6704 7.16967 21.3778 10.5838 12.0156L64.7557 51.7377L55.1267 59.3484C55.2103 59.4268 55.2013 59.4382 55.0911 59.3765L55.1267 59.3484Z" fill="black"/>
<path d="M6.00586 24.2378C13.6357 28.6028 57.4447 60.6953 55.0911 59.3765L64.7557 51.7377L10.5838 12.0156C7.16967 21.3778 10.5838 12.6704 6.00586 24.2378Z" stroke="#22223B" stroke-width="1.5"/>
</mask>
<g mask="url(#mask1_6906_47132)">
<rect x="-36.48" y="10.3647" width="146.01" height="61.3568" fill="url(#pattern0)" fill-opacity="0.2" stroke="#22223B" stroke-width="1.5"/>
</g>
<path d="M8.17541 13.017L2 1.33381L119.166 1L115.995 11.5149L64.7555 59.5829L8.17541 13.017Z" fill="#EEF2F5" stroke="#22223B" stroke-width="1.5"/>
</g>
<defs>
<filter id="filter0_d_6906_47132" x="-798" y="-739" width="2203" height="1655" filterUnits="userSpaceOnUse" color-interpolation-filters="sRGB">
<feFlood flood-opacity="0" result="BackgroundImageFix"/>
<feColorMatrix in="SourceAlpha" type="matrix" values="0 0 0 0 0 0 0 0 0 0 0 0 0 0 0 0 0 0 127 0" result="hardAlpha"/>
<feOffset dy="2"/>
<feGaussianBlur stdDeviation="6"/>
<feColorMatrix type="matrix" values="0 0 0 0 0.278431 0 0 0 0 0.32549 0 0 0 0 0.396078 0 0 0 0.1 0"/>
<feBlend mode="normal" in2="BackgroundImageFix" result="effect1_dropShadow_6906_47132"/>
<feBlend mode="normal" in="SourceGraphic" in2="effect1_dropShadow_6906_47132" result="shape"/>
</filter>
<filter id="filter1_d_6906_47132" x="-158" y="-325" width="438" height="898" filterUnits="userSpaceOnUse" color-interpolation-filters="sRGB">
<feFlood flood-opacity="0" result="BackgroundImageFix"/>
<feColorMatrix in="SourceAlpha" type="matrix" values="0 0 0 0 0 0 0 0 0 0 0 0 0 0 0 0 0 0 127 0" result="hardAlpha"/>
<feOffset dy="8"/>
<feGaussianBlur stdDeviation="12"/>
<feComposite in2="hardAlpha" operator="out"/>
<feColorMatrix type="matrix" values="0 0 0 0 0.278431 0 0 0 0 0.32549 0 0 0 0 0.396078 0 0 0 0.3 0"/>
<feBlend mode="normal" in2="BackgroundImageFix" result="effect1_dropShadow_6906_47132"/>
<feBlend mode="normal" in="SourceGraphic" in2="effect1_dropShadow_6906_47132" result="shape"/>
</filter>
<pattern id="pattern0" patternContentUnits="objectBoundingBox" width="15.6193" height="27.491">
<use xlink:href="#image0_6906_47132" transform="scale(0.00677919 0.0159092)"/>
</pattern>
<clipPath id="clip0_6906_47132">
<rect width="390" height="850" fill="white" transform="translate(-134 -309)"/>
</clipPath>
</defs>
</svg>
