<svg width="390" height="160" viewBox="0 0 390 160" fill="none" xmlns="http://www.w3.org/2000/svg">
<rect width="390" height="160" fill="none"/>
<path d="M91.5393 115.834C87.4354 114.724 87.6674 108.825 91.8457 108.041L165.555 94.2066C170.478 93.2825 175.56 93.6962 180.269 95.4046L235.133 115.308L171.845 137.554L91.5393 115.834Z" fill="#BACBD6"/>
<path d="M156.593 45.2323C155.016 32.2465 164.807 20.6581 177.874 20.0448L207.749 18.6426C219.012 18.114 228.927 26.0038 230.942 37.0979L242.636 101.496C244.843 113.653 236.835 125.315 224.697 127.621L191.542 133.919C178.753 136.349 166.577 127.45 165.007 114.527L156.593 45.2323Z" fill="#BACBD6" stroke="#22223B"/>
<path d="M157.749 27.6389C157.339 24.1451 159.974 21.0348 163.487 20.864L222.832 17.9799C225.89 17.8312 228.581 19.982 229.11 22.9979L245.7 117.597C246.271 120.853 244.133 123.969 240.889 124.607L177.18 137.138C173.706 137.821 170.386 135.401 169.974 131.885L157.749 27.6389ZM161.097 29.0044C160.773 26.1726 162.91 23.6567 165.757 23.5185L221.755 20.801C224.246 20.6801 226.435 22.4383 226.855 24.8968L242.415 116.079C242.865 118.717 241.13 121.232 238.504 121.748L178.42 133.549C175.595 134.103 172.898 132.131 172.571 129.27L161.097 29.0044ZM165.709 22.5197C162.284 22.6859 159.714 25.7121 160.104 29.1181L171.577 129.384C171.971 132.824 175.215 135.197 178.613 134.53L238.697 122.729C241.855 122.109 243.942 119.083 243.4 115.911L227.841 24.7286C227.336 21.7715 224.703 19.6567 221.707 19.8021L165.709 22.5197Z" fill="#EEF2F5" stroke="#22223B"/>
<path d="M184.571 132.361L230.947 123.197C232.161 122.957 233.405 122.856 234.64 122.787C245.417 122.186 242.526 116.161 241.43 110.137C187.5 53.5 164.82 23.2601 164.82 23.2601C161.5 23.2601 161.5 29 161.5 34L171.87 123.037C172.592 129.326 170.842 137.127 184.571 132.361Z" fill="#87A2B5" fill-opacity="0.2"/>
<path d="M201.026 62.9097L202.545 72.6156L204.489 72.3269L203.046 62.5136L201.026 62.9097Z" fill="#F9931B"/>
<path d="M213.883 68.9697C214.651 76.1114 209.97 82.3189 203.625 83.0013C197.28 83.6838 191.386 78.6137 190.618 71.4721C189.85 64.3305 194.531 58.123 200.876 57.4405C207.22 56.7581 213.115 61.8281 213.883 68.9697Z" stroke="#F9931B" stroke-width="2"/>
<path d="M204.778 73.771L202.758 74.0597L203.105 76.08L205.067 75.7914L204.778 73.771Z" fill="#F9931B"/>
<path d="M185.438 22.1062L203.911 21.2404L203.932 21.3697C204.228 23.1433 202.907 24.7768 201.111 24.8597L188.615 25.4365C187.003 25.5109 185.621 24.2969 185.487 22.6888L185.438 22.1062Z" fill="#22223B"/>
</svg>
