<svg width="115" height="148" viewBox="0 0 115 148" fill="none" xmlns="http://www.w3.org/2000/svg">
<path d="M2.18376 18.0922C1.30775 10.8779 6.74724 4.4399 14.0065 4.09917L79.3327 1.03299C85.59 0.739291 91.0984 5.12252 92.2176 11.2859L111.382 116.824C112.608 123.578 108.159 130.057 101.416 131.338L30.9927 144.715C23.8874 146.065 17.1229 141.122 16.2511 133.942L2.18376 18.0922Z" fill="#E2DDD7" stroke="#22223B"/>
<path d="M5.52154 12.6804C5.01716 8.37937 8.26021 4.55049 12.5856 4.34027L84.5979 0.840482C88.3628 0.657508 91.6753 3.30522 92.3264 7.0179L112.458 121.81C113.161 125.819 110.529 129.654 106.536 130.44L29.2265 145.646C24.9504 146.487 20.8639 143.508 20.3563 139.179L5.52154 12.6804ZM9.58444 14.3371C9.18421 10.8396 11.8239 7.73205 15.3402 7.5614L83.2914 4.26378C86.3683 4.11446 89.0722 6.28603 89.5903 9.3226L108.472 119.969C109.028 123.227 106.884 126.333 103.642 126.97L30.7318 141.29C27.2429 141.975 23.9112 139.539 23.507 136.006L9.58444 14.3371ZM15.2917 6.56258C11.1981 6.76124 8.12498 10.379 8.59092 14.4508L22.5135 136.12C22.9841 140.233 26.8627 143.069 30.9245 142.271L103.834 127.951C107.609 127.21 110.105 123.593 109.457 119.801L90.5761 9.15438C89.9728 5.61925 86.825 3.09112 83.243 3.26496L15.2917 6.56258Z" fill="#F8F5F4" stroke="#22223B"/>
<path opacity="0.4" d="M38.1747 139.745L94.8406 128.547C96.0537 128.308 97.3 128.202 98.5353 128.147C112.08 127.543 108.514 120.16 107.172 112.776C41.7294 44.0495 14.2074 7.35449 14.2074 7.35449C10.1793 7.35449 10.1793 14.3197 10.1793 20.387L22.7633 128.43C23.6388 136.062 21.5154 145.528 38.1747 139.745Z" fill="#E2DDD7"/>
<path d="M39.2278 5.95453L61.6431 4.90381L61.7879 5.77251C62.0835 7.54613 60.7632 9.17962 58.967 9.26252L42.4659 10.0241C40.854 10.0985 39.4719 8.8845 39.3379 7.27643L39.2278 5.95453Z" fill="#22223B"/>
<path d="M72.7495 75.8241L82.4391 74.5966L82.7169 76.7895L73.0274 78.017L72.7495 75.8241Z" stroke="#C22B38" stroke-linejoin="round"/>
<path d="M55.3135 62.539L65.0031 61.3115L67.2126 78.7528L57.523 79.9803L55.3135 62.539Z" stroke="#C22B38" stroke-linejoin="round"/>
<path d="M38.5702 54.7143L48.2598 53.4867L51.7093 80.7164L42.0197 81.9439L38.5702 54.7143Z" stroke="#C22B38" stroke-linejoin="round"/>
</svg>
