<svg width="108" height="140" viewBox="0 0 108 140" fill="none" xmlns="http://www.w3.org/2000/svg">
<path d="M3.48176 28.6495C1.90494 15.6638 11.696 4.07537 24.7628 3.46206L65.6826 1.54142C76.9457 1.01277 86.8609 8.90258 88.8755 19.9967L103.432 100.16C105.64 112.316 97.6314 123.979 85.4932 126.285L40.5541 134.821C27.7645 137.251 15.5884 128.352 14.0191 115.429L3.48176 28.6495Z" fill="#BACBD6" stroke="#22223B"/>
<path d="M5.25 12.0892C4.77473 8.03642 7.83058 4.42856 11.9063 4.23048L80.0223 0.920044C83.5699 0.747633 86.6912 3.24251 87.3047 6.74088L106.347 115.323C107.009 119.1 104.529 122.713 100.767 123.454L27.6403 137.837C23.611 138.63 19.7604 135.822 19.2821 131.744L5.25 12.0892ZM9.09308 13.6564C8.71629 10.3636 11.2015 7.43798 14.5119 7.27733L78.7866 4.15813C81.6833 4.01755 84.2289 6.06198 84.7167 8.92076L102.576 113.581C103.1 116.648 101.082 119.572 98.0293 120.172L29.0641 133.717C25.7795 134.362 22.6429 132.068 22.2624 128.743L9.09308 13.6564ZM14.4634 6.2785C10.5757 6.46717 7.65706 9.90297 8.09957 13.77L21.2688 128.856C21.7158 132.762 25.3994 135.456 29.2569 134.698L98.222 121.153C101.807 120.449 104.177 117.014 103.562 113.413L85.7024 8.75255C85.1295 5.39519 82.14 2.99421 78.7381 3.1593L14.4634 6.2785Z" fill="#EEF2F5" stroke="#22223B"/>
<path opacity="0.3" d="M36.1096 132.282L89.6109 121.71C90.824 121.47 92.0707 121.366 93.3058 121.307C105.998 120.703 102.64 113.738 101.374 106.773C39.4719 41.7643 13.4391 7.05469 13.4391 7.05469C9.62891 7.05469 9.6289 13.643 9.62891 19.3821L21.5321 121.58C22.3602 128.798 20.3516 137.752 36.1096 132.282Z" fill="#BACBD6"/>
<path d="M37.1055 5.73032L58.308 4.73645L58.4148 5.37775C58.7104 7.15137 57.3902 8.78486 55.594 8.86776L40.3246 9.5725C38.7127 9.6469 37.3307 8.4329 37.1967 6.82483L37.1055 5.73032Z" fill="#22223B"/>
</svg>
